<?xml version="1.0" standalone="no"?>
<!DOCTYPE svg PUBLIC "-//W3C//DTD SVG 1.1//EN" "http://www.w3.org/Graphics/SVG/1.1/DTD/svg11.dtd" >
<svg>
<metadata>
Created by FontForge 20120731 at Fri Nov 22 14:08:48 2013
 By World Wide Web Server
Copyright (c) 2010 by Jonathan Hill. All rights reserved.
</metadata>
<defs>
<font id="Lintel-Regular" horiz-adv-x="516" >
  <font-face 
    font-family="Lintel"
    font-weight="400"
    font-stretch="normal"
    units-per-em="1000"
    panose-1="0 0 5 0 0 0 0 0 0 0"
    ascent="750"
    descent="-250"
    x-height="500.97"
    cap-height="700"
    bbox="-82.001 -219 1042.98 1032.37"
    underline-thickness="50"
    underline-position="-50"
    stemh="59"
    stemv="65"
    unicode-range="U+0020-FB02"
  />
<missing-glyph horiz-adv-x="500" 
d="M0 0v700h500v-700h-500zM250 395l170 255h-340zM280 350l170 -255v510zM80 50h340l-170 255zM50 605v-510l170 255z" />
    <glyph glyph-name="f_f" unicode="ff" horiz-adv-x="584" 
d="M358.84 501l-0.000976562 43.6914c0 124.81 82.9502 166.069 161.521 166.069c14.7695 0 28.8096 -1.37012 42.8193 -3.87012v-52.2695c-16.4805 2.59961 -31.29 3.96973 -42.2998 2.92969c-52.5 -1.99023 -98.8701 -34.0898 -99.1201 -117.45v-39.1104h132.28v-50.3604
h-132.28v-450.64h-62.9199v450.64h-222.95v-450.64h-62.9199v544.7c0 124.81 82.9502 166.069 161.521 166.069c14.7803 0 28.8105 -1.37012 42.8203 -3.87012v-52.2695c-16.4805 2.59961 -31.29 3.96973 -42.29 2.92969
c-52.6396 -2.03027 -98.9199 -34.2998 -99.1299 -117.859v-38.6904h222.95z" />
    <glyph glyph-name="f_f_i" unicode="ffi" horiz-adv-x="780" 
d="M359.26 501v43.6924c0 108.34 68.3203 166.47 164.91 166.47c77.3896 0 138.17 -27.79 150.53 -32.2598v-47.6602s-61.8398 26.7002 -138.8 26.7002c-43.9502 0 -113.54 -14.54 -113.72 -120.65v-36.29h288.74v-501h-62.9199v450.64h-225.82v-450.64h-62.9199v450.64
h-223.36v-450.64h-62.9199v544.7c0 124.81 82.9502 166.069 161.521 166.069c14.7695 0 28.8096 -1.37012 42.8193 -3.87012v-52.2803c-16.4805 2.59961 -31.3008 3.97949 -42.3008 2.93945c-52.9502 -2.12012 -99 -34.79 -99.1201 -118.82v-37.7402h223.36z" />
    <glyph glyph-name="f_f_j" unicode="ffj" horiz-adv-x="780" 
d="M359.26 501l0.00878906 43.7002c0 108.34 68.3203 166.46 164.91 166.46c77.3896 0 138.17 -27.79 150.53 -32.2598v-47.6504s-61.8398 26.6904 -138.8 26.6904c-43.1699 0 -113.37 -14.0596 -113.72 -119.52v-37.4199h288.74v-561c0 -69 -39.4102 -119 -108.55 -135
c-11.2305 -3 -23 -4 -35.5898 -5l-2.15039 52c11.79 1 21.6699 3 30.25 6c44.1299 16 53.1201 57 53.1201 91v501.64h-225.82v-450.64h-62.9199v450.64h-223.36v-450.64h-62.9199v544.7c0 124.81 82.9502 166.069 161.51 166.069
c14.7803 0 28.8105 -1.37012 42.8203 -3.87012v-52.2803c-16.4805 2.59961 -31.29 3.97949 -42.29 2.93945c-52.7803 -2.07031 -98.96 -34.5205 -99.1299 -118.29v-38.2695h223.36z" />
    <glyph glyph-name="f_f_l" unicode="ffl" horiz-adv-x="776" 
d="M359.26 501.04l0.0107422 43.7002c0 108.34 68.3096 166.46 164.899 166.46c110.69 0 186.75 -46.6797 186.75 -46.6797v-664.48h-62.9199v632.7c-40.21 16.5898 -79.6201 25.25 -120.65 25.25c-36.2002 0 -105.05 -15.5898 -105.16 -119.05v-37.9004h132.27v-50.3604
h-132.27v-450.64h-62.9199v450.64h-223.37v-450.64h-62.9199v544.7c0 124.81 82.9502 166.069 161.51 166.069c14.7803 0 28.8105 -1.37012 42.8203 -3.87012v-52.2695c-16.4805 2.59961 -31.29 3.96973 -42.29 2.92969
c-52.8301 -2.08008 -98.9697 -34.5996 -99.1299 -118.46v-38.0996h223.37z" />
    <glyph glyph-name="fi" unicode="fi" horiz-adv-x="494" 
d="M72.9805 0l-0.000976562 544.699c0 108.34 68.3203 166.46 164.91 166.46c77.3799 0 138.16 -27.79 150.53 -32.2598v-47.6504s-61.8398 26.7002 -138.8 26.7002c-43.29 0 -113.4 -14.1396 -113.721 -119.699v-37.25h288.73v-501h-62.9199v450.64h-225.81v-450.64
h-62.9199z" />
    <glyph glyph-name="fl" unicode="fl" horiz-adv-x="490" 
d="M72.9805 0v544.699c0 108.34 68.3096 166.46 164.899 166.46c110.69 0 186.75 -46.6797 186.75 -46.6797v-664.48h-62.9199v632.7c-40.21 16.5898 -79.6201 25.25 -120.65 25.25c-36.8096 0 -105.14 -16.25 -105.159 -120.06v-36.8896h132.27v-50.3604h-132.27v-450.64
h-62.9199z" />
    <glyph glyph-name=".notdef" horiz-adv-x="500" 
d="M0 0v700h500v-700h-500zM250 395l170 255h-340zM280 350l170 -255v510zM80 50h340l-170 255zM50 605v-510l170 255z" />
    <glyph glyph-name="A" unicode="A" horiz-adv-x="604" 
d="M572.34 0h-68.6113l-80.3096 240.56h-243.69l-81.0195 -240.56h-67.2197l239.32 700h61.5303zM196.389 299.43h210.359l-105.18 313.07z" />
    <glyph glyph-name="Aacute" unicode="&#xc1;" horiz-adv-x="604" 
d="M325.35 783.92h-45.3799l52.3496 116.78h66.9102zM572.34 -0h-68.6113l-80.3096 240.56h-243.69l-81.0195 -240.56h-67.2197l239.32 700h61.5303zM196.389 299.43h210.359l-105.18 313.07z" />
    <glyph glyph-name="Abreve" unicode="&#x102;" horiz-adv-x="604" 
d="M397.49 903.73h35.1787c0 -73.6201 -58 -128.21 -130.3 -128.21s-130.31 54.5898 -130.31 128.21h35.1904c1.98047 -46.9102 40.2705 -89.4902 95.1201 -89.4902c54.1299 0 93.1299 42.5801 95.1201 89.4902zM572.339 0h-68.6113l-80.3096 240.56h-243.69
l-81.0195 -240.56h-67.2197l239.32 700h61.5303zM196.388 299.43h210.359l-105.18 313.07z" />
    <glyph glyph-name="Acaron" unicode="&#x1cd;" horiz-adv-x="604" 
d="M336.64 773.64h-64.1201l-131.31 137.18h59.5801l103.29 -106.33l99.9902 106.33h59.9297zM572.329 -0h-68.6113l-80.3096 240.56h-243.68l-81.0303 -240.56h-67.2197l239.33 700h61.5303zM196.388 299.43h210.359l-105.18 313.07z" />
    <glyph glyph-name="Acircumflex" unicode="&#xc2;" horiz-adv-x="604" 
d="M464.53 770.77h-59.9199l-100 106.33l-103.28 -106.33h-59.5898l131.31 137.18h64.1201zM572.341 -0h-68.6113l-80.3096 240.56h-243.69l-81.0195 -240.56h-67.2197l239.32 700h61.5303zM196.39 299.43h210.359l-105.18 313.07z" />
    <glyph glyph-name="Adieresis" unicode="&#xc4;" horiz-adv-x="604" 
d="M216.06 865.74c17.9297 0 32.2998 -14.3799 32.2998 -33.1602c0 -18.21 -14.3701 -33.1602 -32.5898 -33.1602c-18.4902 0 -33.4404 14.9502 -33.4404 33.1602c0 18.7803 14.9502 33.1602 33.7305 33.1602zM392.97 865.74c17.9297 0 32.2998 -14.3799 32.2998 -33.1602
c0 -18.21 -14.3701 -33.1602 -32.5898 -33.1602c-18.4902 0 -33.4404 14.9502 -33.4404 33.1602c0 18.7803 14.9502 33.1602 33.7305 33.1602zM572.34 0h-68.6113l-80.3096 240.56h-243.69l-81.0195 -240.56h-67.2197l239.32 700h61.5303zM196.389 299.43h210.359
l-105.18 313.07z" />
    <glyph glyph-name="Agrave" unicode="&#xc0;" horiz-adv-x="604" 
d="M342.31 783.64h-45.3799l-73.8799 116.78h66.9102zM572.33 -0h-68.6113l-80.3096 240.56h-243.68l-81.0303 -240.56h-67.2197l239.33 700h61.5303zM196.389 299.43h210.359l-105.18 313.07z" />
    <glyph glyph-name="Amacron" unicode="&#x100;" horiz-adv-x="604" 
d="M419.62 812.19h-235.41v38.0098h235.41v-38.0098zM572.34 0h-68.6113l-80.3096 240.56h-243.69l-81.0195 -240.56h-67.2197l239.32 700h61.5303zM196.389 299.43h210.359l-105.18 313.07z" />
    <glyph glyph-name="Aogonek" unicode="&#x104;" horiz-adv-x="648" 
d="M572.3 0l-33.6514 -5.01074c-63.3799 -50.3398 -69.6299 -84.8496 -69.6299 -104.75c0 -38.7695 25.8701 -56.2393 57.1504 -56.2393c31.0596 0 56.5996 15 75.46 43l29.2598 -13c-24.96 -41 -66.9102 -65 -114.68 -65c-42.4902 0 -93.1201 23 -93.1201 87
c0 22 8.24023 65 80.6006 114.02l-80.2803 240.45h-243.68l-81.0303 -240.47h-67.2197l239.33 699.9h61.5303zM196.379 299.329h210.359l-105.18 313.07z" />
    <glyph glyph-name="Aring" unicode="&#xc5;" horiz-adv-x="604" 
d="M302.36 949.61c62.2998 0 115.919 -52.9609 115.919 -115.791c0 -62.1797 -53.2695 -115.779 -115.92 -115.779c-62.6699 0 -115.93 53.9199 -115.93 115.78c0 62.5098 53.6104 115.79 115.931 115.79zM302.359 911.93c-44.1797 0 -78.6895 -34.2803 -78.6895 -78.1104
c0 -44.0098 34.5898 -78.8193 78.6895 -78.8193c43.3799 0 77.9697 34.8096 77.9697 78.8193c0 43.8301 -34.5098 78.1104 -77.9697 78.1104zM572.34 -0h-68.6113l-80.3096 240.56h-243.69l-81.0195 -240.56h-67.2197l239.32 700h61.5303zM196.389 299.43h210.359
l-105.18 313.07z" />
    <glyph glyph-name="Atilde" unicode="&#xc3;" horiz-adv-x="604" 
d="M163.01 804.04l-24.5918 33.5195c25.0703 26.5 63.2705 53.9502 101.471 53.9502c51.4902 0 89.6006 -41.8301 134.61 -41.8301c25.9404 0 51.3008 19.2402 67.7812 36.4307l24.0596 -34.2305c-20.0596 -18.6201 -56.29 -43.2002 -90.9102 -43.2002
c-51.4902 0 -90.3105 40.4004 -136.971 40.4004c-27.8701 0 -54.6797 -21.4004 -75.4492 -45.04zM572.338 -0h-68.6113l-80.3096 240.57h-243.68l-81.0303 -240.57h-67.2197l239.33 700h61.5303zM196.396 299.44h210.359l-105.18 313.06z" />
    <glyph glyph-name="AE" unicode="&#xc6;" horiz-adv-x="771" 
d="M723.72 641.13l-363.452 0.000976562v-262.17h331.85v-58.8701h-326.52v-261.23h358.04v-58.8604h-417.35l-2.70996 240.57h-123.85l-81.0195 -240.57h-67.2197l239.32 700h452.91v-58.8701zM196.397 299.431h104.061l-3.90039 298.74z" />
    <glyph glyph-name="B" unicode="B" horiz-adv-x="607" 
d="M89.3896 700.02l262.449 0.00195312c115.9 0 180.25 -81.96 180.25 -178.2c0 -85.6904 -32.0303 -143.21 -92.0605 -169.4c71.4697 -24.1504 110 -89.3105 110 -163.431c0 -122.33 -65.5996 -188.99 -181.869 -188.99h-278.77v700.02zM154.619 379.871
l182.899 0.000976562c83.8203 0 129.4 46.3896 129.4 135.09c0 69.1797 -44.7598 126.14 -127.77 126.14h-184.53v-261.23zM154.568 319.942l0.00878906 -261.229h200.8c83.8203 0 129.391 46.3799 129.391 135.09c0 69.1699 -44.7598 126.14 -127.77 126.14h-202.43z" />
    <glyph glyph-name="C" unicode="C" horiz-adv-x="562" 
d="M72.2305 224.42v257.081c0 157.1 98.7402 235.14 239.971 235.14c98.8701 0 168.28 -41.5596 203.16 -109.43l-48.71 -24.3799c-28.25 48.1396 -81.8203 74.9395 -150.021 74.9395c-105.08 0 -179.23 -57.1299 -179.23 -176.28v-257.07
c0 -119.14 74.1504 -176.279 179.23 -176.279c68.2002 0 121.771 26.8096 150.021 74.9395l48.71 -24.3701c-34.8799 -67.8701 -104.29 -109.71 -203.16 -109.71c-141.23 0 -239.971 78.3203 -239.971 235.42z" />
    <glyph glyph-name="Cacute" unicode="&#x106;" horiz-adv-x="562" 
d="M299.51 783.92h-45.3799l52.3496 116.78h66.9102zM72.2295 224.42v257.081c0 157.1 98.7402 235.14 239.971 235.14c98.8604 0 168.271 -41.5596 203.16 -109.43l-48.71 -24.3799c-28.2598 48.1396 -81.8301 74.9395 -150.021 74.9395
c-105.09 0 -179.229 -57.1299 -179.229 -176.28v-257.07c0 -119.14 74.1396 -176.279 179.229 -176.279c68.1904 0 121.761 26.8096 150.021 74.9395l48.71 -24.3701c-34.8896 -67.8701 -104.3 -109.71 -203.16 -109.71c-141.23 0 -239.971 78.3203 -239.971 235.42z" />
    <glyph glyph-name="Ccaron" unicode="&#x10c;" horiz-adv-x="562" 
d="M313.54 773.64h-64.1201l-131.31 137.18h59.5801l103.29 -106.33l99.9902 106.33h59.9297zM72.2295 224.42v257.081c0 157.1 98.7402 235.14 239.971 235.14c98.8701 0 168.28 -41.5596 203.16 -109.43l-48.71 -24.3799
c-28.25 48.1396 -81.8203 74.9395 -150.021 74.9395c-105.08 0 -179.23 -57.1299 -179.23 -176.28v-257.07c0 -119.14 74.1504 -176.279 179.23 -176.279c68.2002 0 121.771 26.8096 150.021 74.9395l48.71 -24.3701c-34.8799 -67.8701 -104.29 -109.71 -203.16 -109.71
c-141.23 0 -239.971 78.3203 -239.971 235.42z" />
    <glyph glyph-name="Ccedilla" unicode="&#xc7;" horiz-adv-x="562" 
d="M72.2305 224.42l0.0078125 257.08c0 157.1 98.7402 235.14 239.971 235.14c98.8604 0 168.271 -41.5596 203.16 -109.43l-48.71 -24.3799c-28.2598 48.1396 -81.8301 74.9395 -150.021 74.9395c-105.09 0 -179.229 -57.1299 -179.229 -176.28v-257.07
c0 -119.14 74.1396 -176.279 179.229 -176.279c68.1904 0 121.761 26.8096 150.021 74.9395l48.71 -24.3701c-33.1201 -61.8799 -95.0498 -100.72 -182.189 -106.72c-8.21973 -1.16992 -16.4893 -1.65039 -24.8291 -1.65039c-5.88965 0 -11.8096 0.240234 -17.75 0.660156
l-29.5996 -41c12.6504 4.34961 27.2002 7.18945 41.8506 7.18945c47.0498 0 92.0801 -22.6299 92.0801 -79.1895c0 -73 -67.3896 -94 -127.97 -94c-37.3799 0 -72.96 12 -103 23l14.5596 33c28.5596 -17 61.0293 -22 84.6289 -23c43.6602 0 85.8301 18 85.8301 59
c0 32 -24.3203 49 -58.0703 49c-17.2305 0 -40.3701 -4 -74.3506 -20l-13.4697 16l53.1602 73c-110.75 18.4004 -184.02 95.0205 -184.02 230.421z" />
    <glyph glyph-name="Cdotaccent" unicode="&#x10a;" horiz-adv-x="562" 
d="M301.21 865.67c17.9297 0 32.2998 -14.3701 32.2998 -33.1504c0 -18.2197 -14.3701 -33.1602 -32.5898 -33.1602c-18.4902 0 -33.4404 14.9404 -33.4404 33.1602c0 18.7803 14.9502 33.1504 33.7305 33.1504zM72.2295 224.42v257.081
c0 157.1 98.7402 235.14 239.971 235.14c98.8701 0 168.28 -41.5596 203.16 -109.43l-48.71 -24.3799c-28.25 48.1396 -81.8203 74.9395 -150.021 74.9395c-105.08 0 -179.23 -57.1299 -179.23 -176.28v-257.07c0 -119.14 74.1504 -176.279 179.23 -176.279
c68.2002 0 121.771 26.8096 150.021 74.9395l48.71 -24.3701c-34.8799 -67.8701 -104.29 -109.71 -203.16 -109.71c-141.23 0 -239.971 78.3203 -239.971 235.42z" />
    <glyph glyph-name="D" unicode="D" horiz-adv-x="637" 
d="M89.3896 700l233.01 -0.000976562c160.91 0 242.061 -100.74 242.061 -234.2v-257.02c0 -160.93 -106.32 -208.779 -223.23 -208.779h-251.84v700zM154.56 641.139v-582.27h186.67c90.4297 0 158.06 32.8799 158.06 149.91v257.02
c0 104.53 -58.3301 175.34 -176.89 175.34h-167.84z" />
    <glyph glyph-name="Eth" unicode="&#xd0;" horiz-adv-x="651" 
d="M103.5 700l232.999 -0.000976562c160.91 0 242.061 -100.75 242.061 -234.2v-257.02c0 -160.92 -106.31 -208.78 -223.229 -208.78h-251.83v320.07h-93.5v58.8604h93.5v321.07zM168.669 641.139l-0.00976562 -262.209h165.92v-58.8604h-165.92v-261.2h186.67
c90.4404 0 158.061 32.8799 158.061 149.91v257.02c0 104.53 -58.3203 175.34 -176.891 175.34h-167.83z" />
    <glyph glyph-name="Dcaron" unicode="&#x10e;" horiz-adv-x="637" 
d="M352.6 773.64h-64.1211l-131.31 137.18h59.5801l103.29 -106.32l99.9902 106.32h59.9199zM89.3887 700l233.01 -0.000976562c160.91 0 242.061 -100.74 242.061 -234.2v-257.02c0 -160.93 -106.32 -208.779 -223.23 -208.779h-251.84v700zM154.559 641.139v-582.27
h186.67c90.4297 0 158.06 32.8799 158.06 149.91v257.02c0 104.53 -58.3301 175.34 -176.89 175.34h-167.84z" />
    <glyph glyph-name="Dcroat" unicode="&#x110;" horiz-adv-x="646" 
d="M102.15 700l232.999 -0.00976562c160.91 0 242.061 -100.75 242.061 -234.2v-257.02c0 -160.92 -106.31 -208.78 -223.229 -208.78h-251.83v330.64h-90.7305v38.0098h90.7305v331.36zM167.319 641.13l-0.00976562 -272.49h168.75v-38.0098h-168.75v-271.77h186.67
c90.4404 0 158.061 32.8799 158.061 149.91v257.02c0 104.53 -58.3203 175.34 -176.891 175.34h-167.83z" />
    <glyph glyph-name="E" unicode="E" horiz-adv-x="571" 
d="M519.07 641.13l-364.5 0.000976562v-262.17h337.2v-58.8701h-337.2v-261.23h370.15v-58.8604h-435.32v700h429.67v-58.8701z" />
    <glyph glyph-name="Eacute" unicode="&#xc9;" horiz-adv-x="571" 
d="M321.78 783.92h-45.3896l52.3496 116.78h66.9102zM519.07 641.13l-364.5 0.000976562v-262.17h337.2v-58.8701h-337.2v-261.23h370.15v-58.8604h-435.32v700h429.67v-58.8701z" />
    <glyph glyph-name="Ecaron" unicode="&#x11a;" horiz-adv-x="571" 
d="M314.1 773.64h-64.1201l-131.31 137.18h59.5898l103.28 -106.33l100 106.33h59.9199zM519.06 641.13l-364.5 -0.00878906v-262.17h337.2v-58.8604h-337.2v-261.23h370.15v-58.8701h-435.32v700h429.67v-58.8604z" />
    <glyph glyph-name="Ecircumflex" unicode="&#xca;" horiz-adv-x="571" 
d="M441.99 770.77h-59.9189l-99.9902 106.33l-103.29 -106.33h-59.5801l131.31 137.18h64.1201zM519.071 641.13l-364.5 -0.00878906v-262.17h337.2v-58.8604h-337.2v-261.23h370.15v-58.8701h-435.32v700h429.67v-58.8604z" />
    <glyph glyph-name="Edieresis" unicode="&#xcb;" horiz-adv-x="571" 
d="M193.52 865.74c17.9297 0 32.3096 -14.3799 32.3096 -33.1602c0 -18.21 -14.3799 -33.1602 -32.5898 -33.1602c-18.5 0 -33.4404 14.9502 -33.4404 33.1602c0 18.7803 14.9404 33.1602 33.7207 33.1602zM370.43 865.74c17.9297 0 32.3096 -14.3799 32.3096 -33.1602
c0 -18.21 -14.3799 -33.1602 -32.5898 -33.1602c-18.5 0 -33.4404 14.9502 -33.4404 33.1602c0 18.7803 14.9404 33.1602 33.7207 33.1602zM519.069 641.13l-364.5 0.000976562v-262.17h337.2v-58.8701h-337.2v-261.23h370.15v-58.8604h-435.32v700h429.67v-58.8701z" />
    <glyph glyph-name="Edotaccent" unicode="&#x116;" horiz-adv-x="571" 
d="M290.23 865.46c17.9297 0 32.2998 -14.3799 32.2998 -33.1602c0 -18.21 -14.3701 -33.1602 -32.5898 -33.1602c-18.4902 0 -33.4404 14.9502 -33.4404 33.1602c0 18.7803 14.9502 33.1602 33.7305 33.1602zM519.07 641.13l-364.5 0.000976562v-262.17h337.2v-58.8701
h-337.2v-261.23h370.15v-58.8604h-435.32v700h429.67v-58.8701z" />
    <glyph glyph-name="Egrave" unicode="&#xc8;" horiz-adv-x="571" 
d="M348.07 783.64h-45.3799l-73.8799 116.78h66.9102zM519.07 641.13l-364.5 0.000976562v-262.17h337.2v-58.8701h-337.2v-261.23h370.15v-58.8604h-435.32v700h429.67v-58.8701z" />
    <glyph glyph-name="Emacron" unicode="&#x112;" horiz-adv-x="571" 
d="M424.54 812.19h-235.41v38.0098h235.41v-38.0098zM518.85 641.131l-364.5 0.000976562v-262.17h337.2v-58.8701h-337.2v-261.23h370.15v-58.8604h-435.32v700h429.67v-58.8701z" />
    <glyph glyph-name="Eogonek" unicode="&#x118;" horiz-adv-x="603" 
d="M518.89 641.47l-364.13 -0.00195312v-261.86h336.84v-58.8398h-336.84v-260.92h369.76v-58.8496h-89.4004c-10.5 -12.0898 -81.3799 -60.7197 -81.3799 -112.489c0 -38.96 25.7998 -56.5195 57.0801 -57.5098c31.0303 0 56.5303 16 75.3701 44l29.25 -14
c-25.0303 -40 -66.96 -64 -114.58 -64c-42.4502 0 -93.04 22 -93.04 86c0 53 64.1602 104 79.3105 117.75h-297.51v699.32h429.27v-58.5996z" />
    <glyph glyph-name="F" unicode="F" horiz-adv-x="558" 
d="M511.71 641.13h-357.15v-262.17h324.2v-58.8701h-324.2v-320.09h-65.1699v700h422.32v-58.8701z" />
    <glyph glyph-name="G" unicode="G" horiz-adv-x="633" 
d="M72.2305 212.24l0.00195312 269.249c0 157.11 97.8096 235.141 241.119 235.141c100.51 0 170.01 -41.4102 204.95 -109.09l-52.1504 -24.8604c-30.21 48.9697 -78.3096 75.0898 -151.609 75.0898c-108.49 0 -177.141 -54.4404 -177.141 -176.28v-269.26
c0 -123.25 89.8896 -164.04 175.01 -164.04c85.9199 0 171.42 40.6299 171.42 164.04v103.66h-131.44v56.3203h196.62v-372.22h-50.71l-1.9502 86.6299c-37.6104 -70.1797 -116.12 -97.6299 -190.19 -97.6299c-110.6 0 -233.93 60.7998 -233.93 223.25z" />
    <glyph glyph-name="Gbreve" unicode="&#x11e;" horiz-adv-x="633" 
d="M412.3 903.73h35.1787c0 -73.6201 -58 -128.21 -130.3 -128.21s-130.31 54.5898 -130.31 128.21h35.1904c1.98047 -46.9102 40.2705 -89.4902 95.1201 -89.4902c54.1299 0 93.1299 42.5801 95.1201 89.4902zM72.2285 212.24l0.00195312 269.249
c0 157.11 97.8096 235.141 241.119 235.141c100.51 0 170.01 -41.4102 204.95 -109.09l-52.1504 -24.8604c-30.21 48.9697 -78.3096 75.0898 -151.609 75.0898c-108.49 0 -177.141 -54.4404 -177.141 -176.28v-269.26c0 -123.25 89.8896 -164.04 175.01 -164.04
c85.9199 0 171.42 40.6299 171.42 164.04v103.66h-131.44v56.3203h196.62v-372.22h-50.71l-1.9502 86.6299c-37.6104 -70.1797 -116.12 -97.6299 -190.19 -97.6299c-110.6 0 -233.93 60.7998 -233.93 223.25z" />
    <glyph glyph-name="Gcommaaccent" unicode="&#x122;" horiz-adv-x="633" 
d="M72.2305 212.24l0.00195312 269.249c0 157.11 97.8096 235.141 241.119 235.141c100.51 0 170.01 -41.4102 204.95 -109.09l-52.1504 -24.8604c-30.21 48.9697 -78.3096 75.0898 -151.609 75.0898c-108.49 0 -177.141 -54.4404 -177.141 -176.28v-269.26
c0 -123.25 89.8896 -164.04 175.01 -164.04c85.9199 0 171.42 40.6299 171.42 164.04v103.66h-131.44v56.3203h196.62v-372.22h-50.71l-1.9502 86.6299c-37.6104 -70.1797 -116.12 -97.6299 -190.19 -97.6299c-110.6 0 -233.93 60.7998 -233.93 223.25zM275.022 -198.011
l16.6113 47c-7.21973 6 -12.1699 14 -12.1699 23c0 15 12.5898 27 27.4795 27s27.4795 -12 27.4795 -27c0 -4 -1.12012 -8 -3.08008 -12l-26.9502 -58h-29.3701z" />
    <glyph glyph-name="Gdotaccent" unicode="&#x120;" horiz-adv-x="633" 
d="M305.86 867.35c17.9297 0 32.3096 -14.3701 32.3096 -33.1504c0 -18.2197 -14.3799 -33.1602 -32.5898 -33.1602c-18.5 0 -33.4404 14.9404 -33.4404 33.1602c0 18.7803 14.9404 33.1504 33.7207 33.1504zM72.2305 212.239l0.00195312 269.249
c0 157.11 97.8096 235.141 241.119 235.141c100.51 0 170.01 -41.4102 204.95 -109.09l-52.1504 -24.8604c-30.21 48.9697 -78.3096 75.0898 -151.609 75.0898c-108.49 0 -177.141 -54.4404 -177.141 -176.28v-269.26c0 -123.25 89.8896 -164.04 175.01 -164.04
c85.9199 0 171.42 40.6299 171.42 164.04v103.66h-131.44v56.3203h196.62v-372.22h-50.71l-1.9502 86.6299c-37.6104 -70.1797 -116.12 -97.6299 -190.19 -97.6299c-110.6 0 -233.93 60.7998 -233.93 223.25z" />
    <glyph glyph-name="H" unicode="H" horiz-adv-x="657" 
d="M567.87 0h-65.1699v320.09h-348.13v-320.09h-65.1699v700h65.1699v-321.04h348.13v321.04h65.1699v-700z" />
    <glyph glyph-name="Hbar" unicode="&#x126;" horiz-adv-x="680" 
d="M579.42 545.26h59.1797v-38.2197h-59.1797v-507.05h-65.1699v320.1h-348.13v-320.1h-65.1699v507.05h-59.1396v38.2197h59.1396v154.74h65.1699v-154.74h348.13v154.74h65.1699v-154.74zM166.119 507.04v-128.08h348.13v128.08h-348.13z" />
    <glyph glyph-name="I" unicode="I" horiz-adv-x="244" 
d="M154.56 0h-65.1699v700h65.1699v-700z" />
    <glyph glyph-name="IJ" unicode="&#x132;" horiz-adv-x="579" 
d="M154.56 0h-65.1699v700h65.1699v-700zM529.27 699.67l-0.00976562 -493.09c0 -142.78 -89.1904 -215.66 -218.891 -215.66c-9.12988 0 -18.46 0.360352 -27.9697 1.08008v58.6201c104.96 -6.37012 181.7 39.71 181.7 155.95v493.1h65.1699z" />
    <glyph glyph-name="Iacute" unicode="&#xcd;" horiz-adv-x="244" 
d="M123.88 783.92h-45.3896l52.3496 116.78h66.9102zM154.561 -0h-65.1699v700h65.1699v-700z" />
    <glyph glyph-name="Icaron" unicode="&#x1cf;" horiz-adv-x="244" 
d="M156.64 773.64h-64.1309l-131.52 137.18h60.1104l102.98 -106.33l99.9902 106.33h59.9297zM154.559 -0h-65.1699v700h65.1699v-700z" />
    <glyph glyph-name="Icircumflex" unicode="&#xce;" horiz-adv-x="244" 
d="M284.52 770.77h-59.9092l-100 106.33l-102.98 -106.33h-59.6299l131.05 137.18h64.1201zM154.57 -0h-65.1699v700h65.1699v-700z" />
    <glyph glyph-name="Idieresis" unicode="&#xcf;" horiz-adv-x="244" 
d="M36.0498 865.74c17.9297 0 32.3096 -14.3799 32.3096 -33.1602c0 -18.21 -14.3799 -33.1602 -32.5898 -33.1602c-18.6299 0 -33.5703 14.9502 -33.5703 33.1602c0 18.7803 14.9404 33.1602 33.8506 33.1602zM212.96 865.74c17.9297 0 32.3096 -14.3799 32.3096 -33.1602
c0 -18.21 -14.3799 -33.1602 -32.5898 -33.1602c-18.5 0 -33.4404 14.9502 -33.4404 33.1602c0 18.7803 14.9404 33.1602 33.7207 33.1602zM154.56 0h-65.1699v700h65.1699v-700z" />
    <glyph glyph-name="Idotaccent" unicode="&#x130;" horiz-adv-x="244" 
d="M122.82 867.46c17.9297 0 32.2998 -14.3799 32.2998 -33.1602c0 -18.21 -14.3701 -33.1602 -32.5898 -33.1602c-18.4902 0 -33.4404 14.9502 -33.4404 33.1602c0 18.7803 14.9502 33.1602 33.7305 33.1602zM154.561 -0h-65.1699v700h65.1699v-700z" />
    <glyph glyph-name="Igrave" unicode="&#xcc;" horiz-adv-x="244" 
d="M174.21 783.64h-45.3896l-73.8701 116.78h66.9102zM154.561 -0h-65.1699v700h65.1699v-700z" />
    <glyph glyph-name="Imacron" unicode="&#x12a;" horiz-adv-x="244" 
d="M239.61 817.01h-235.41v38.0098h235.41v-38.0098zM154.561 -0h-65.1699v700h65.1699v-700z" />
    <glyph glyph-name="Iogonek" unicode="&#x12e;" horiz-adv-x="244" 
d="M154.56 700l0.000976562 -700.001c-69.8203 -54.46 -77.1299 -90.9697 -77.1299 -110.489c0 -38.96 25.8203 -56.5195 57.1406 -57.5098c31.0596 0 56.5996 16 75.46 44l29.2598 -14c-24.9404 -40 -66.8809 -64 -114.681 -64c-42.4805 0 -93.1201 23 -93.1201 86
c0 22 9.96973 66 75.4395 112l-17.54 4v700h65.1699z" />
    <glyph glyph-name="J" unicode="J" horiz-adv-x="335" 
d="M285.52 699.68l-0.00976562 -493.101c0 -142.78 -89.1904 -215.66 -218.891 -215.66c-9.12988 0 -18.46 0.360352 -27.9697 1.09082v58.6201c104.96 -6.37012 181.7 39.7002 181.7 155.95v493.1h65.1699z" />
    <glyph glyph-name="K" unicode="K" horiz-adv-x="598" 
d="M278.25 407.61l288.501 -407.619h-79.6299l-250.74 356.47l-81.8203 -97.9805v-258.48h-65.1699v700h65.1699v-342.49l282.67 342.49h82.3496z" />
    <glyph glyph-name="Kcommaaccent" unicode="&#x136;" horiz-adv-x="598" 
d="M278.25 407.61l288.501 -407.609h-79.6201l-250.74 356.46l-81.8203 -97.9805v-258.48h-65.1699v700h65.1699v-342.49l282.66 342.49h82.3496zM263.531 -197.999l16.6113 47c-7.21973 6 -12.1699 14 -12.1699 23c0 15 12.5898 27 27.4795 27s27.4795 -12 27.4795 -27
c0 -4 -1.12012 -8 -3.08008 -12l-26.9502 -58h-29.3701z" />
    <glyph glyph-name="L" unicode="L" horiz-adv-x="481" 
d="M154.56 58.8604h293.73v-58.8604h-358.9v700h65.1699v-641.14z" />
    <glyph glyph-name="Lacute" unicode="&#x139;" horiz-adv-x="481" 
d="M155.54 783.92h-45.3896l52.3496 116.78h66.9102zM154.561 58.8604h293.73v-58.8604h-358.9v700h65.1699v-641.14z" />
    <glyph glyph-name="Lcaron" unicode="&#x13d;" horiz-adv-x="481" 
d="M305.77 644.74l20.999 61.1494c-9.34961 6.67969 -15.6494 17.75 -15.6494 29.96c0 20.4902 17.2197 37.7002 37.7002 37.7002s37.7002 -17.21 37.7002 -37.7002c0 -6.17969 -1.57031 -12.0596 -4.33008 -17.2598l-34.79 -73.8496h-41.6299zM154.559 58.8594h293.73
v-58.8604h-358.9v700h65.1699v-641.14z" />
    <glyph glyph-name="Lcommaaccent" unicode="&#x13b;" horiz-adv-x="481" 
d="M154.56 58.8604h293.73v-58.8604h-358.9v700h65.1699v-641.14zM227.16 -198l16.6211 47c-7.21973 6 -12.1699 14 -12.1699 23c0 15 12.5898 27 27.4795 27s27.4795 -12 27.4795 -27c0 -4 -1.12012 -8 -3.08984 -12l-26.9404 -58h-29.3799z" />
    <glyph glyph-name="Ldot" unicode="&#x13f;" horiz-adv-x="481" 
d="M154.56 58.8604h293.73v-58.8604h-358.9v700h65.1699v-641.14zM312.95 420.19c20.4805 0 37.7002 -17.2197 37.7002 -37.7002s-17.2197 -37.6904 -37.7002 -37.6904s-37.7607 17.21 -37.7607 37.6904s17.2803 37.7002 37.7607 37.7002z" />
    <glyph glyph-name="Lslash" unicode="&#x141;" horiz-adv-x="526" 
d="M199.24 402.24l136.34 61.3301l24.5596 -52.2002l-160.9 -72.5898v-279.91h293.72v-58.8701h-358.89v309.92l-102.27 -45.8604l-21.7998 52.9404l124.07 55.5801v327.42h65.1699v-297.76z" />
    <glyph glyph-name="M" unicode="M" horiz-adv-x="746" 
d="M659.82 0h-64.2285v546.86l-197.66 -520.47h-49.4902l-196.23 520.47v-546.86h-64.2305v700h65.4199l220.5 -576.64l220.49 576.64h65.4297v-700z" />
    <glyph glyph-name="N" unicode="N" horiz-adv-x="629" 
d="M544.43 0h-67.7197l-327.15 568.98v-568.98h-65.1699v700h64.9004l329.97 -575.5v575.5h65.1699v-700z" />
    <glyph glyph-name="Nacute" unicode="&#x143;" horiz-adv-x="629" 
d="M320.55 782.22h-45.3896l52.3496 116.78h66.9102zM544.43 -0h-67.7197l-327.15 568.98v-568.98h-65.1699v700h64.9004l329.97 -575.5v575.5h65.1699v-700z" />
    <glyph glyph-name="Ncaron" unicode="&#x147;" horiz-adv-x="629" 
d="M347.3 773.64h-64.1211l-131.31 137.18h59.5801l103.29 -106.33l99.9902 106.33h59.9199zM544.429 -0h-67.7197l-327.15 568.98v-568.98h-65.1699v700h64.9004l329.97 -575.5v575.5h65.1699v-700z" />
    <glyph glyph-name="Ncommaaccent" unicode="&#x145;" horiz-adv-x="629" 
d="M544.43 0h-67.7197l-327.15 568.98v-568.98h-65.1699v700h64.9004l329.97 -575.5v575.5h65.1699v-700zM269.2 -198l16.6211 47c-7.21973 6 -12.1699 14 -12.1699 23c0 15 12.5898 27 27.4795 27s27.4795 -12 27.4795 -27c0 -4 -1.12012 -8 -3.08984 -12l-26.9502 -58
h-29.3701z" />
    <glyph glyph-name="Eng" unicode="&#x14a;" horiz-adv-x="629" 
d="M544.43 700l-0.0117188 -768c0 -62 -35.7197 -105 -87.6797 -125c-15.4199 -7 -33.8896 -13 -56.4492 -15l-2.15039 52c19.9102 2 35.1904 7 47.0801 15c26.5303 18 34.6904 47 35.9404 71v62l-331.6 576.98v-568.98h-65.1699v700h64.9004l329.97 -575.5v575.5h65.1699z
" />
    <glyph glyph-name="Ntilde" unicode="&#xd1;" horiz-adv-x="629" 
d="M173.66 804.04l-24.5918 33.5195c25.0703 26.5 63.2705 53.9502 101.471 53.9502c51.4902 0 89.6006 -41.8301 134.61 -41.8301c25.9404 0 51.3008 19.2402 67.7812 36.4307l24.0596 -34.2305c-20.0596 -18.6201 -56.29 -43.2002 -90.9102 -43.2002
c-51.4902 0 -90.3105 40.4004 -136.971 40.4004c-27.8701 0 -54.6797 -21.4004 -75.4492 -45.04zM544.429 -0h-67.7197l-327.15 568.98v-568.98h-65.1699v700h64.9004l329.97 -575.5v575.5h65.1699v-700z" />
    <glyph glyph-name="O" unicode="O" horiz-adv-x="623" 
d="M72.2305 210.96l0.000976562 269.261c0 157.1 97.7998 235.14 241.12 235.14c153.04 0 237.35 -93.0498 237.35 -236.08v-268.32c0 -166.68 -127.11 -222.96 -238.29 -222.96c-110.11 0 -240.181 56.1396 -240.181 222.96zM485.531 210.961l0.000976562 268.319
c0 111.51 -59.4902 177.22 -172.181 177.22c-108.32 0 -175.95 -55.3398 -175.95 -176.27v-269.26c0 -123.26 89.8896 -164.04 175.01 -164.04c85.9199 0 173.12 40.6201 173.12 164.03z" />
    <glyph glyph-name="Oacute" unicode="&#xd3;" horiz-adv-x="623" 
d="M315.03 782.22h-45.3799l52.3496 116.78h66.9102zM72.2305 210.96l0.000976562 269.249c0 157.11 97.7998 235.15 241.12 235.15c153.04 0 237.35 -93.0596 237.35 -236.09v-268.31c0 -166.68 -127.11 -222.97 -238.29 -222.97
c-110.11 0 -240.181 56.1396 -240.181 222.97zM485.531 210.959l0.000976562 268.32c0 111.5 -59.4902 177.22 -172.181 177.22c-108.32 0 -175.95 -55.3398 -175.95 -176.28v-269.26c0 -123.25 89.8896 -164.04 175.01 -164.04c85.9199 0 173.12 40.6299 173.12 164.04z
" />
    <glyph glyph-name="Ocaron" unicode="&#x1d1;" horiz-adv-x="623" 
d="M345.74 773.64h-64.1201l-131.31 137.18h59.5898l103.28 -106.32l100 106.32h59.9199zM72.2305 210.96l0.000976562 269.261c0 157.1 97.7998 235.14 241.12 235.14c153.04 0 237.35 -93.0498 237.35 -236.08v-268.32c0 -166.68 -127.11 -222.96 -238.29 -222.96
c-110.11 0 -240.181 56.1396 -240.181 222.96zM485.531 210.961l0.000976562 268.319c0 111.51 -59.4902 177.22 -172.181 177.22c-108.32 0 -175.95 -55.3398 -175.95 -176.27v-269.26c0 -123.26 89.8896 -164.04 175.01 -164.04c85.9199 0 173.12 40.6201 173.12 164.03z
" />
    <glyph glyph-name="Ocircumflex" unicode="&#xd4;" horiz-adv-x="623" 
d="M473.63 770.78h-59.9297l-99.9902 106.32l-103.29 -106.32h-59.5801l131.31 137.18h64.1201zM72.2305 210.96l-0.00976562 269.261c0 157.1 97.8096 235.14 241.119 235.14c153.04 0 237.36 -93.0498 237.36 -236.08v-268.32c0 -166.68 -127.12 -222.96 -238.3 -222.96
c-110.11 0 -240.17 56.1396 -240.17 222.96zM485.521 210.961l0.0107422 268.319c0 111.51 -59.4902 177.22 -172.19 177.22c-108.32 0 -175.95 -55.3398 -175.95 -176.27v-269.26c0 -123.26 89.8896 -164.04 175.01 -164.04c85.9199 0 173.12 40.6201 173.12 164.03z" />
    <glyph glyph-name="Odieresis" unicode="&#xd6;" horiz-adv-x="623" 
d="M225.16 865.74c17.9297 0 32.2998 -14.3799 32.2998 -33.1602c0 -18.21 -14.3701 -33.1602 -32.5898 -33.1602c-18.4902 0 -33.4404 14.9502 -33.4404 33.1602c0 18.7803 14.9502 33.1602 33.7305 33.1602zM402.07 865.74c17.9297 0 32.2998 -14.3799 32.2998 -33.1602
c0 -18.21 -14.3701 -33.1602 -32.5898 -33.1602c-18.4902 0 -33.4404 14.9502 -33.4404 33.1602c0 18.7803 14.9502 33.1602 33.7305 33.1602zM72.2305 210.96l0.000976562 269.261c0 157.1 97.7998 235.14 241.12 235.14c153.04 0 237.35 -93.0498 237.35 -236.08v-268.32
c0 -166.68 -127.11 -222.96 -238.29 -222.96c-110.11 0 -240.181 56.1396 -240.181 222.96zM485.531 210.961l0.000976562 268.319c0 111.51 -59.4902 177.22 -172.181 177.22c-108.32 0 -175.95 -55.3398 -175.95 -176.27v-269.26
c0 -123.26 89.8896 -164.04 175.01 -164.04c85.9199 0 173.12 40.6201 173.12 164.03z" />
    <glyph glyph-name="Ograve" unicode="&#xd2;" horiz-adv-x="623" 
d="M362.78 783.64h-45.3896l-73.8701 116.78h66.9102zM72.2305 210.96l0.000976562 269.249c0 157.11 97.7998 235.15 241.12 235.15c153.04 0 237.35 -93.0596 237.35 -236.09v-268.31c0 -166.68 -127.11 -222.97 -238.29 -222.97
c-110.11 0 -240.181 56.1396 -240.181 222.97zM485.531 210.959l0.000976562 268.32c0 111.5 -59.4902 177.22 -172.181 177.22c-108.32 0 -175.95 -55.3398 -175.95 -176.28v-269.26c0 -123.25 89.8896 -164.04 175.01 -164.04c85.9199 0 173.12 40.6299 173.12 164.04z
" />
    <glyph glyph-name="Ohungarumlaut" unicode="&#x150;" horiz-adv-x="623" 
d="M265.43 783.36h-43.1895l49.7803 117.34h63.3896zM387.28 783.36h-43.1895l49.7803 117.34h63.3896zM72.2305 210.96l0.000976562 269.261c0 157.1 97.7998 235.14 241.12 235.14c153.04 0 237.35 -93.0498 237.35 -236.08v-268.32
c0 -166.68 -127.11 -222.96 -238.29 -222.96c-110.11 0 -240.181 56.1396 -240.181 222.96zM485.531 210.961l0.000976562 268.319c0 111.51 -59.4902 177.22 -172.181 177.22c-108.32 0 -175.95 -55.3398 -175.95 -176.27v-269.26
c0 -123.26 89.8896 -164.04 175.01 -164.04c85.9199 0 173.12 40.6201 173.12 164.03z" />
    <glyph glyph-name="Omacron" unicode="&#x14c;" horiz-adv-x="623" 
d="M429.17 812.19h-235.41v38.0098h235.41v-38.0098zM72.2295 210.96l0.000976562 269.249c0 157.11 97.7998 235.15 241.12 235.15c153.04 0 237.35 -93.0596 237.35 -236.09v-268.31c0 -166.68 -127.11 -222.97 -238.29 -222.97
c-110.11 0 -240.181 56.1396 -240.181 222.97zM485.53 210.959l0.000976562 268.32c0 111.5 -59.4902 177.22 -172.181 177.22c-108.32 0 -175.95 -55.3398 -175.95 -176.28v-269.26c0 -123.25 89.8896 -164.04 175.01 -164.04c85.9199 0 173.12 40.6299 173.12 164.04z" />
    <glyph glyph-name="Oslash" unicode="&#xd8;" horiz-adv-x="623" 
d="M481.89 750l-25.1191 -72.3301c61.3701 -39.9502 93.9199 -109.53 93.9199 -198.4v-268.32c0 -166.68 -127.11 -222.96 -238.29 -222.96c-29.7002 0 -60.8398 4.08008 -90.5 13.3203l-17.8203 -51.3203h-63.0498l26.3203 75.7998
c-54.7803 33.6699 -95.1299 92.25 -95.1299 185.17v269.25c0 157.11 97.8096 235.15 241.119 235.15c32.9502 0 62.71 -4.30957 89.1299 -12.5098l16.3701 47.1504h63.0498zM137.391 480.21l0.00976562 -269.26c0 -58.7402 20.4199 -98.75 51.0098 -124.54l194.39 559.82
c-20.2598 6.75977 -43.4395 10.2598 -69.459 10.2598c-108.32 0 -175.95 -55.3398 -175.95 -176.28zM485.53 210.95l-0.00195312 268.311c0 59.7002 -17.0498 106.28 -50.1895 136.67l-193.89 -558.37c22.6201 -7.41016 46.9805 -10.6406 70.9609 -10.6406
c85.9199 0 173.12 40.6201 173.12 164.03z" />
    <glyph glyph-name="Otilde" unicode="&#xd5;" horiz-adv-x="623" 
d="M172.11 804.04l-24.5996 33.5195c25.0703 26.5 63.2803 53.9502 101.48 53.9502c51.4805 0 89.5908 -41.8301 134.61 -41.8301c25.9297 0 51.2998 19.2402 67.7695 36.4307l24.0596 -34.2305c-20.0498 -18.6201 -56.29 -43.2002 -90.9102 -43.2002
c-51.4805 0 -90.3008 40.4004 -136.971 40.4004c-27.8701 0 -54.6699 -21.4004 -75.4395 -45.04zM72.2305 210.96l0.000976562 269.261c0 157.1 97.7998 235.14 241.12 235.14c153.04 0 237.35 -93.0498 237.35 -236.08v-268.32c0 -166.68 -127.11 -222.96 -238.29 -222.96
c-110.11 0 -240.181 56.1396 -240.181 222.96zM485.531 210.961l0.000976562 268.319c0 111.51 -59.4902 177.22 -172.181 177.22c-108.32 0 -175.95 -55.3398 -175.95 -176.27v-269.26c0 -123.26 89.8896 -164.04 175.01 -164.04c85.9199 0 173.12 40.6201 173.12 164.03z
" />
    <glyph glyph-name="OE" unicode="&#x152;" horiz-adv-x="950" 
d="M47.1602 212.24v269.251c0 157.11 97.7998 235.141 241.12 235.141c88.2803 0 150.66 -35.2002 183.41 -94.4805v77.8398h433.97v-58.8604h-368.8v-262.17h337.2v-58.8701h-337.2v-261.23h368.72v-58.8604h-433.89v79.04c-38.46 -65.5703 -114.42 -90.04 -184.35 -90.04
c-110.11 0 -240.181 56.4102 -240.181 223.24zM460.46 204.361l0.000976562 276.19c0 111.5 -59.4902 177.22 -172.19 177.22c-108.32 0 -175.95 -55.3398 -175.95 -176.28v-269.25c0 -123.26 89.8896 -164.04 175.01 -164.04c83.7803 0 173.13 44.9199 173.13 156.16z" />
    <glyph glyph-name="P" unicode="P" horiz-adv-x="606" 
d="M89.3896 700l258.511 -0.00976562c127.63 0 197.189 -89.4502 197.189 -191.7c0 -129.38 -71.7998 -202.37 -199.08 -202.34h-191.45v-305.95h-65.1699v700zM154.561 641.13l0.000976562 -276.17h190.81c88.6201 0 136.8 49.04 136.8 142.82
c0 73.1299 -47.3203 133.35 -135.08 133.35h-192.53z" />
    <glyph glyph-name="Thorn" unicode="&#xde;" horiz-adv-x="606" 
d="M154.57 553.82h193.33c127.63 0 197.189 -89.4502 197.189 -191.7c0 -129.38 -71.7998 -202.37 -199.069 -202.34h-191.45v-159.78h-65.1699v700h65.1699v-146.18zM154.57 494.96l0.0107422 -276.169h190.8c88.6201 0 136.8 49.04 136.8 142.81
c0 73.1396 -47.3203 133.359 -135.08 133.359h-192.53z" />
    <glyph glyph-name="Q" unicode="Q" horiz-adv-x="623" 
d="M550.7 479.28l0.000976562 -268.319c0 -67.0703 -20.5801 -116.261 -52.4199 -151.11l52.4199 -56.5801l-34.75 -30.2695l-52.6104 56.8701c-44.1904 -29.7197 -99.2803 -41.8701 -150.94 -41.8701c-110.11 0 -240.17 56.1396 -240.17 222.96v269.26
c0 157.1 97.7998 235.14 241.12 235.14c153.04 0 237.35 -93.0498 237.35 -236.08zM357.062 212.291l97.8096 -105.57c19 25.0498 30.6699 59.1094 30.6699 104.249v268.31c0 111.51 -59.4902 177.22 -172.19 177.22c-108.32 0 -175.95 -55.3398 -175.95 -176.27v-269.26
c0 -123.26 89.8896 -164.04 175.01 -164.04c38.6904 0 77.6309 8.23047 108.751 28.5508l-98.8496 106.87z" />
    <glyph glyph-name="R" unicode="R" horiz-adv-x="615" 
d="M89.3896 700h258.511c127.63 0 197.189 -88.6299 197.189 -190.03c0 -114.21 -56.7803 -180.9 -160.03 -192.5h-32.7803l201.71 -317.47h-76.7197l-193.27 309.48h-129.44v-309.48h-65.1699v700zM154.57 641.14v-272.64h190.81c88.6104 0 136.79 48.5195 136.79 141.069
c0 72.1699 -47.3203 131.61 -135.08 131.57h-192.52z" />
    <glyph glyph-name="Racute" unicode="&#x154;" horiz-adv-x="615" 
d="M307.66 782.22h-45.3896l52.3496 116.78h66.9102zM89.3906 700h258.511c127.63 0 197.189 -88.6299 197.189 -190.03c0 -114.21 -56.7803 -180.9 -160.03 -192.5h-32.7803l201.71 -317.47h-76.7197l-193.27 309.48h-129.44v-309.48h-65.1699v700zM154.571 641.14v-272.64
h190.81c88.6104 0 136.79 48.5195 136.79 141.069c0 72.1699 -47.3203 131.61 -135.08 131.57h-192.52z" />
    <glyph glyph-name="Rcaron" unicode="&#x158;" horiz-adv-x="615" 
d="M341.57 773.64h-64.1201l-131.31 137.18h59.5801l103.29 -106.33l99.9902 106.33h59.9297zM89.3906 700h258.511c127.63 0 197.189 -88.6299 197.189 -190.03c0 -114.21 -56.7803 -180.9 -160.03 -192.5h-32.7803l201.71 -317.47h-76.7197l-193.27 309.48h-129.44
v-309.48h-65.1699v700zM154.571 641.14v-272.64h190.81c88.6104 0 136.79 48.5195 136.79 141.069c0 72.1699 -47.3203 131.61 -135.08 131.57h-192.52z" />
    <glyph glyph-name="Rcommaaccent" unicode="&#x156;" horiz-adv-x="615" 
d="M89.3896 700l258.511 0.000976562c127.63 0 197.189 -88.6299 197.189 -190.03c0 -113.65 -56.3203 -180.051 -158.78 -191.181l-34.0303 -1.32031l201.71 -317.47h-76.7197l-193.27 309.48h-129.44v-309.48h-65.1699v700zM154.57 641.141v-272.64h190.81
c88.6104 0 136.79 48.5195 136.79 141.069c0 72.1699 -47.3203 131.61 -135.08 131.57h-192.52zM267.86 -197.989l16.6113 47c-7.21973 6 -12.1699 14 -12.1699 23c0 15 12.5898 27 27.4795 27s27.4795 -12 27.4795 -27c0 -4 -1.12012 -8 -3.08008 -12l-26.9502 -58
h-29.3701z" />
    <glyph glyph-name="S" unicode="S" horiz-adv-x="579" 
d="M45.6299 188.57l62.4092 -0.0185547c2.15039 -70.71 58.0508 -140.03 181.471 -140.03c126.06 0 179.909 58.6299 179.829 142.49c-0.0898438 85.7695 -90.2295 113.319 -188.72 144.489c-119.45 37.5498 -218.4 76.0801 -218.4 187.71
c0 121.03 97.0996 187.36 228.689 187.36c130.22 0 229.18 -65.2002 230.62 -187.351h-62.54c-1.42969 87.3701 -76.6494 128.82 -168.069 128.82c-92.54 0 -165.3 -44.8096 -165.2 -124.39c0.150391 -70.6104 71.6406 -98.9902 176.7 -130.09
c133.78 -38.3096 230.261 -89.4697 230.261 -206.46c0 -111.94 -67.3896 -202.101 -240.96 -202.101c-157.09 0 -243.939 93.6396 -246.09 199.569z" />
    <glyph glyph-name="Sacute" unicode="&#x15a;" horiz-adv-x="579" 
d="M289.72 782.22h-45.3799l52.3496 116.78h66.9102zM45.6299 188.56l62.4092 -0.00976562c2.15039 -70.71 58.0508 -140.03 181.471 -140.03c126.06 0 179.909 58.6201 179.829 142.49c-0.0898438 85.7598 -90.2295 113.319 -188.72 144.489
c-119.45 37.54 -218.4 76.0801 -218.4 187.71c0 121.03 97.0996 187.351 228.689 187.351c130.22 0 229.18 -65.1904 230.62 -187.351h-62.54c-1.42969 87.3701 -76.6494 128.82 -168.069 128.82c-92.54 0 -165.3 -44.7998 -165.2 -124.39
c0.150391 -70.6104 71.6406 -98.9805 176.7 -130.08c133.78 -38.3096 230.261 -89.4795 230.261 -206.46c0 -111.95 -67.3896 -202.11 -240.96 -202.11c-157.09 0 -243.939 93.6504 -246.09 199.57z" />
    <glyph glyph-name="Scaron" unicode="&#x160;" horiz-adv-x="579" 
d="M323.64 773.64h-64.1201l-131.31 137.18h59.5801l103.29 -106.33l99.9902 106.33h59.9297zM45.6299 188.56l62.4092 -0.00976562c2.15039 -70.71 58.0508 -140.03 181.471 -140.03c126.06 0 179.909 58.6201 179.829 142.49
c-0.0898438 85.7598 -90.2295 113.319 -188.72 144.489c-119.45 37.54 -218.4 76.0801 -218.4 187.71c0 121.03 97.0996 187.351 228.689 187.351c130.22 0 229.18 -65.1904 230.62 -187.351h-62.54c-1.42969 87.3701 -76.6494 128.82 -168.069 128.82
c-92.54 0 -165.3 -44.7998 -165.2 -124.39c0.150391 -70.6104 71.6406 -98.9805 176.7 -130.08c133.78 -38.3096 230.261 -89.4795 230.261 -206.46c0 -111.95 -67.3896 -202.11 -240.96 -202.11c-157.09 0 -243.939 93.6504 -246.09 199.57z" />
    <glyph glyph-name="Scedilla" unicode="&#x15e;" horiz-adv-x="579" 
d="M45.6299 188.57h62.4219c2.15039 -70.71 58.0508 -140.03 181.471 -140.03c126.06 0 179.909 58.6201 179.829 142.49c-0.0898438 85.7598 -90.2295 113.319 -188.72 144.489c-119.45 37.54 -218.4 76.0801 -218.4 187.71c0 121.03 97.0996 187.351 228.689 187.351
c130.22 0 229.18 -65.1904 230.62 -187.351h-62.54c-1.42969 87.3701 -76.6494 128.82 -168.069 128.82c-92.5303 0 -165.3 -44.7998 -165.2 -124.39c0.150391 -70.6104 71.6504 -98.9902 176.7 -130.09c133.78 -38.3096 230.261 -89.4697 230.261 -206.46
c0 -110.59 -65.7305 -200.1 -234.32 -202.1l-27.8301 -38c13.9902 5 30.5 8 46.8799 7c45.25 0 87.04 -24 87.04 -80c0 -73 -67.3896 -93 -127.979 -93c-37.3701 0 -72.96 12 -103 23l14.5596 33c29.9297 -17.8096 64.1299 -23.04 87.9102 -23.04
c42.46 0 82.5498 19.0596 82.5498 59.0293c0 31 -24.3203 49 -58.0703 49c-17.2305 0 -40.3604 -4 -74.3408 -20l-13.4805 15l49.9502 69c-139.42 10.2803 -214.86 100.36 -216.931 198.57z" />
    <glyph glyph-name="Scommaaccent" unicode="&#x218;" horiz-adv-x="590" 
d="M45.6299 188.57l62.4004 -0.00878906c2.15039 -70.71 58.0605 -140.03 181.48 -140.03c126.05 0 179.91 58.6201 179.83 142.49c-0.0996094 85.7598 -90.2393 113.319 -188.729 144.489c-119.44 37.54 -218.4 76.0801 -218.4 187.71
c0 121.03 97.1104 187.351 228.7 187.351c130.22 0 229.18 -65.1904 230.609 -187.351h-62.5303c-1.42969 87.3701 -76.6602 128.82 -168.08 128.82c-92.5303 0 -165.3 -44.7998 -165.2 -124.39c0.150391 -70.79 72.0605 -99.1201 177.36 -130.3
c133.59 -38.25 229.609 -89.4902 229.609 -206.25c0 -111.94 -67.3896 -202.101 -240.96 -202.101c-157.09 0 -243.939 93.6396 -246.09 199.569zM259.55 -198.009l16.6113 47c-7.21973 6 -12.1699 14 -12.1699 23c0 15 12.5898 27 27.4795 27s27.4795 -12 27.4795 -27
c0 -4 -1.12012 -8 -3.08008 -12l-26.9502 -58h-29.3701z" />
    <glyph glyph-name="T" unicode="T" horiz-adv-x="530" 
d="M482.76 641.13h-192.061v-641.13h-65.1699v641.13h-185.46v58.8701h442.69v-58.8701z" />
    <glyph glyph-name="Tbar" unicode="&#x166;" horiz-adv-x="530" 
d="M482.77 641.13h-192.061v-262.13h100.4v-38.0098h-100.4v-340.99h-65.1699v340.99h-93.7998v38.0098h93.7998v262.13h-185.47v58.8701h442.7v-58.8701z" />
    <glyph glyph-name="Tcaron" unicode="&#x164;" horiz-adv-x="530" 
d="M299.27 773.64h-64.1201l-131.31 137.18h59.5898l103.28 -106.33l100 106.33h59.9199zM482.76 641.13h-192.061v-641.14h-65.1699v641.14h-185.46v58.8604h442.69v-58.8604z" />
    <glyph glyph-name="Tcedilla" unicode="&#x162;" horiz-adv-x="530" 
d="M482.76 641.13l-192.058 -0.000976562v-641.14l-18.0596 -4l-31.0098 -43c12.8301 4.48047 27.6797 8.16016 42.6094 8.16016c46.8496 0 91.3193 -23.0898 91.3193 -80.1494c0 -73 -67.3896 -94 -127.97 -94c-37.3799 0 -72.96 12 -103 23l14.5596 33
c28.5596 -16 61.0293 -22 84.6289 -23c43.6602 0 85.8301 18 85.8301 59c0 32 -24.3203 49 -58.0703 49c-17.2305 0 -40.3701 -4 -74.3506 -19l-13.4697 15l53.6299 73l-11.8203 3v641.13h-185.46v58.8701h442.69v-58.8701z" />
    <glyph glyph-name="uni021A" unicode="&#x21a;" horiz-adv-x="523" 
d="M482.76 641.13h-192.061v-641.13h-65.1699v641.13h-185.46v58.8701h442.69v-58.8701zM226.169 -198l16.6113 47c-7.21973 6 -12.1699 14 -12.1699 23c0 15 12.5898 27 27.4795 27s27.4795 -12 27.4795 -27c0 -4 -1.12012 -8 -3.08008 -12l-26.9502 -58h-29.3701z" />
    <glyph glyph-name="U" unicode="U" horiz-adv-x="627" 
d="M553.54 700.65l-0.00976562 -488.391c0 -166.71 -127.13 -223.26 -238.29 -223.26c-110.09 0 -240.17 56.4102 -240.17 223.25v488.4h65.1699v-488.4c0 -123.25 89.8896 -164.04 175.01 -164.04c85.9199 0 173.12 40.6299 173.12 164.04v488.4h65.1699z" />
    <glyph glyph-name="Uacute" unicode="&#xda;" horiz-adv-x="627" 
d="M312.98 782.22h-45.3799l52.3496 116.78h66.9102zM553.541 700.64v-488.39c0 -166.7 -127.14 -223.25 -238.29 -223.25c-110.09 0 -240.18 56.4004 -240.18 223.25v488.39h65.1699v-488.39c0 -123.26 89.8896 -164.04 175.01 -164.04
c85.9199 0 173.12 40.6299 173.12 164.04v488.39h65.1699z" />
    <glyph glyph-name="Ucaron" unicode="&#x1d3;" horiz-adv-x="627" 
d="M346.7 773.64h-64.1211l-131.31 137.18h59.5801l103.29 -106.33l99.9902 106.33h59.9199zM553.539 700.64v-488.39c0 -166.7 -127.14 -223.25 -238.29 -223.25c-110.09 0 -240.18 56.4004 -240.18 223.25v488.39h65.1699v-488.39
c0 -123.26 89.8896 -164.04 175.01 -164.04c85.9199 0 173.12 40.6299 173.12 164.04v488.39h65.1699z" />
    <glyph glyph-name="Ucircumflex" unicode="&#xdb;" horiz-adv-x="627" 
d="M474.58 770.77h-59.9199l-100 106.33l-103.28 -106.33h-59.5898l131.31 137.18h64.1201zM553.54 700.64l-0.00976562 -488.39c0 -166.7 -127.13 -223.25 -238.29 -223.25c-110.09 0 -240.17 56.4004 -240.17 223.25v488.39h65.1699v-488.39
c0 -123.26 89.8896 -164.04 175.01 -164.04c85.9199 0 173.12 40.6299 173.12 164.04v488.39h65.1699z" />
    <glyph glyph-name="Udieresis" unicode="&#xdc;" horiz-adv-x="627" 
d="M226.11 865.74c17.9297 0 32.3096 -14.3799 32.3096 -33.1602c0 -18.21 -14.3799 -33.1602 -32.5898 -33.1602c-18.5 0 -33.4404 14.9502 -33.4404 33.1602c0 18.7803 14.9404 33.1602 33.7207 33.1602zM403.021 865.74c17.9297 0 32.3096 -14.3799 32.3096 -33.1602
c0 -18.21 -14.3799 -33.1602 -32.5898 -33.1602c-18.5 0 -33.4404 14.9502 -33.4404 33.1602c0 18.7803 14.9404 33.1602 33.7207 33.1602zM553.54 700.65v-488.391c0 -166.71 -127.14 -223.26 -238.29 -223.26c-110.09 0 -240.18 56.4102 -240.18 223.25v488.4h65.1699
v-488.4c0 -123.25 89.8896 -164.04 175.01 -164.04c85.9199 0 173.12 40.6299 173.12 164.04v488.4h65.1699z" />
    <glyph glyph-name="Udieresisacute" unicode="&#x1d7;" horiz-adv-x="652" 
d="M351.44 885.24h-45.3799l52.3496 116.77h66.9102zM241.291 845.95c17.9297 0 32.2998 -14.3701 32.2998 -33.1504c0 -18.2197 -14.3701 -33.1602 -32.5898 -33.1602c-18.4902 0 -33.4404 14.9404 -33.4404 33.1602c0 18.7803 14.9502 33.1504 33.7305 33.1504z
M418.201 845.95c17.9297 0 32.2998 -14.3701 32.2998 -33.1504c0 -18.2197 -14.3701 -33.1602 -32.5898 -33.1602c-18.4902 0 -33.4404 14.9404 -33.4404 33.1602c0 18.7803 14.9502 33.1504 33.7305 33.1504zM553.541 700.65l-0.00976562 -488.39
c0 -166.7 -127.13 -223.25 -238.29 -223.25c-110.09 0 -240.17 56.4004 -240.17 223.25v488.39h65.1699v-488.39c0 -123.26 89.8896 -164.04 175.01 -164.04c85.9199 0 173.12 40.6299 173.12 164.04v488.39h65.1699z" />
    <glyph glyph-name="Udieresiscaron" unicode="&#x1d9;" horiz-adv-x="627" 
d="M346.7 895.18h-64.1211l-131.31 137.19h59.5801l103.29 -106.33l99.9902 106.33h59.9199zM226.109 854.989c17.9297 0 32.3096 -14.3701 32.3096 -33.1504c0 -18.2197 -14.3799 -33.1602 -32.5898 -33.1602c-18.5 0 -33.4404 14.9404 -33.4404 33.1602
c0 18.7803 14.9404 33.1504 33.7207 33.1504zM403.02 854.989c17.9297 0 32.3096 -14.3701 32.3096 -33.1504c0 -18.2197 -14.3799 -33.1602 -32.5898 -33.1602c-18.5 0 -33.4404 14.9404 -33.4404 33.1602c0 18.7803 14.9404 33.1504 33.7207 33.1504zM553.539 700.649
v-488.391c0 -166.71 -127.14 -223.26 -238.29 -223.26c-110.09 0 -240.18 56.4102 -240.18 223.25v488.4h65.1699v-488.4c0 -123.25 89.8896 -164.04 175.01 -164.04c85.9199 0 173.12 40.6299 173.12 164.04v488.4h65.1699z" />
    <glyph glyph-name="Udieresisgrave" unicode="&#x1db;" horiz-adv-x="652" 
d="M368.68 885.3h-45.3799l-73.8301 116.78h66.8604zM241.29 845.95c17.9297 0 32.2998 -14.3701 32.2998 -33.1504c0 -18.2197 -14.3701 -33.1602 -32.5898 -33.1602c-18.4902 0 -33.4404 14.9404 -33.4404 33.1602c0 18.7803 14.9502 33.1504 33.7305 33.1504z
M418.2 845.95c17.9297 0 32.2998 -14.3701 32.2998 -33.1504c0 -18.2197 -14.3701 -33.1602 -32.5898 -33.1602c-18.4902 0 -33.4404 14.9404 -33.4404 33.1602c0 18.7803 14.9502 33.1504 33.7305 33.1504zM553.54 700.65l-0.00976562 -488.39
c0 -166.7 -127.13 -223.25 -238.29 -223.25c-110.09 0 -240.17 56.4004 -240.17 223.25v488.39h65.1699v-488.39c0 -123.26 89.8896 -164.04 175.01 -164.04c85.9199 0 173.12 40.6299 173.12 164.04v488.39h65.1699z" />
    <glyph glyph-name="Udieresismacron" unicode="&#x1d5;" horiz-adv-x="652" 
d="M446.55 902.42h-235.41v38.0098h235.41v-38.0098zM241.29 845.95c17.9297 0 32.3096 -14.3799 32.3096 -33.1602c0 -18.21 -14.3799 -33.1602 -32.5898 -33.1602c-18.5 0 -33.4404 14.9502 -33.4404 33.1602c0 18.7803 14.9404 33.1602 33.7207 33.1602zM418.2 845.95
c17.9297 0 32.3096 -14.3799 32.3096 -33.1602c0 -18.21 -14.3799 -33.1602 -32.5898 -33.1602c-18.5 0 -33.4404 14.9502 -33.4404 33.1602c0 18.7803 14.9404 33.1602 33.7207 33.1602zM553.54 700.65v-488.391c0 -166.71 -127.14 -223.26 -238.29 -223.26
c-110.09 0 -240.18 56.4102 -240.18 223.25v488.4h65.1699v-488.4c0 -123.25 89.8896 -164.04 175.01 -164.04c85.9199 0 173.12 40.6299 173.12 164.04v488.4h65.1699z" />
    <glyph glyph-name="Ugrave" unicode="&#xd9;" horiz-adv-x="627" 
d="M361.34 783.64h-45.3799l-73.8799 116.78h66.9102zM553.54 700.649l-0.00976562 -488.391c0 -166.71 -127.13 -223.26 -238.29 -223.26c-110.09 0 -240.17 56.4102 -240.17 223.25v488.4h65.1699v-488.4c0 -123.25 89.8896 -164.04 175.01 -164.04
c85.9199 0 173.12 40.6299 173.12 164.04v488.4h65.1699z" />
    <glyph glyph-name="Uhungarumlaut" unicode="&#x170;" horiz-adv-x="652" 
d="M281.19 783.36h-43.1895l49.7803 117.34h63.3896zM403.041 783.36h-43.1895l49.7803 117.34h63.3896zM553.542 700.65v-488.391c0 -166.71 -127.14 -223.26 -238.29 -223.26c-110.09 0 -240.18 56.4102 -240.18 223.25v488.4h65.1699v-488.4
c0 -123.25 89.8896 -164.04 175.01 -164.04c85.9199 0 173.12 40.6299 173.12 164.04v488.4h65.1699z" />
    <glyph glyph-name="Umacron" unicode="&#x16a;" horiz-adv-x="652" 
d="M444.21 812.19h-235.41v38.0098h235.41v-38.0098zM553.54 700.65l-0.00976562 -488.391c0 -166.71 -127.13 -223.26 -238.29 -223.26c-110.09 0 -240.17 56.4102 -240.17 223.25v488.4h65.1699v-488.4c0 -123.25 89.8896 -164.04 175.01 -164.04
c85.9199 0 173.12 40.6299 173.12 164.04v488.4h65.1699z" />
    <glyph glyph-name="Uogonek" unicode="&#x172;" horiz-adv-x="652" 
d="M567.87 700.65l0.000976562 -488.399c0 -138 -89.3398 -196.26 -175.59 -212.25c-68.3203 -54.2002 -75.9707 -89.5703 -75.9707 -110.49c0 -38.9805 25.8301 -57.5107 57.1504 -57.5107c31.0596 0 56.5996 16 75.46 44l29.2598 -14
c-24.9902 -40 -66.9502 -64 -114.681 -64c-42.4902 0 -93.1201 22 -93.1201 86c0 21 7.65039 58 64.0605 105c-29.1396 0 -51.4697 3 -75.0293 8c-88.4805 20.7803 -170.011 83.4199 -170.011 215.25v488.4h65.1699v-488.4c0 -123.25 89.8896 -164.04 175.01 -164.04
c85.9199 0 173.12 40.6299 173.12 164.04v488.4h65.1699z" />
    <glyph glyph-name="Uring" unicode="&#x16e;" horiz-adv-x="627" 
d="M312.41 949.61c62.2998 0 115.93 -52.9609 115.93 -115.791c0 -62.1797 -53.2695 -115.779 -115.93 -115.779c-62.6699 0 -115.92 53.9199 -115.92 115.78c0 62.5098 53.5996 115.79 115.92 115.79zM312.41 911.93c-44.1699 0 -78.6797 -34.2803 -78.6797 -78.1104
c0 -44.0098 34.5801 -78.8193 78.6797 -78.8193c43.3896 0 77.9697 34.8096 77.9697 78.8193c0 43.8301 -34.5098 78.1104 -77.9697 78.1104zM553.54 700.649v-488.391c0 -166.71 -127.14 -223.26 -238.29 -223.26c-110.09 0 -240.18 56.4102 -240.18 223.25v488.4h65.1699
v-488.4c0 -123.25 89.8896 -164.04 175.01 -164.04c85.9199 0 173.12 40.6299 173.12 164.04v488.4h65.1699z" />
    <glyph glyph-name="V" unicode="V" horiz-adv-x="578" 
d="M324.46 0h-91.3506l-215.95 700h67l193.91 -627.97l193.91 627.97h67.0303z" />
    <glyph glyph-name="W" unicode="W" horiz-adv-x="811" 
d="M609.95 0h-82.1318l-121.27 549.9l-121.27 -549.9h-82.1396l-171.65 700h68.2598l144.51 -614.54l130.45 614.54h63.6699l130.45 -615.25l142.36 615.25h68.9805z" />
    <glyph glyph-name="Wacute" unicode="&#x1e82;" horiz-adv-x="811" 
d="M431.25 781.72h-45.3896l52.3496 116.77h66.9102zM609.95 -0h-82.1318l-121.27 549.9l-121.27 -549.9h-82.1396l-171.65 700h68.2598l144.51 -614.54l130.45 614.54h63.6699l130.45 -615.25l142.36 615.25h68.9805z" />
    <glyph glyph-name="Wcircumflex" unicode="&#x174;" horiz-adv-x="811" 
d="M568.03 770.77h-59.9189l-99.9902 106.33l-103.29 -106.33h-59.5801l131.31 137.18h64.1201zM609.961 -0h-82.1416l-121.27 549.9l-121.27 -549.9h-82.1396l-171.65 700h68.2695l144.51 -614.54l130.45 614.54h63.6602l130.45 -615.25l142.37 615.25h68.9805z" />
    <glyph glyph-name="Wdieresis" unicode="&#x1e84;" horiz-adv-x="811" 
d="M319.56 865.74c17.9297 0 32.3096 -14.3799 32.3096 -33.1602c0 -18.21 -14.3799 -33.1602 -32.5898 -33.1602c-18.5 0 -33.4404 14.9502 -33.4404 33.1602c0 18.7803 14.9404 33.1602 33.7207 33.1602zM496.47 865.74c17.9297 0 32.3096 -14.3799 32.3096 -33.1602
c0 -18.21 -14.3799 -33.1602 -32.5898 -33.1602c-18.5 0 -33.4404 14.9502 -33.4404 33.1602c0 18.7803 14.9404 33.1602 33.7207 33.1602zM609.96 0h-82.1416l-121.27 549.9l-121.27 -549.9h-82.1396l-171.65 700h68.2695l144.51 -614.54l130.45 614.54h63.6602
l130.45 -615.25l142.37 615.25h68.9805z" />
    <glyph glyph-name="Wgrave" unicode="&#x1e80;" horiz-adv-x="811" 
d="M434.52 783.35h-45.3799l-73.8301 116.78h66.8604zM609.949 -0h-82.1318l-121.27 549.9l-121.27 -549.9h-82.1396l-171.65 700h68.2598l144.51 -614.54l130.45 614.54h63.6699l130.45 -615.25l142.36 615.25h68.9805z" />
    <glyph glyph-name="X" unicode="X" horiz-adv-x="615" 
d="M352.16 363.16l231.24 -363.16h-77.0303l-199.27 310.82l-197.5 -310.82h-78.1104l232.24 363.19l-214.33 336.81h75.1797l182.43 -292.19l182.44 292.19h77.0596z" />
    <glyph glyph-name="Y" unicode="Y" horiz-adv-x="580" 
d="M322.03 337.28v-337.28h-65.1699v335.45l-225.37 364.55h75.0498l182.44 -300.47l182.43 300.47h77.1504z" />
    <glyph glyph-name="Yacute" unicode="&#xdd;" horiz-adv-x="580" 
d="M290.28 782.22h-45.3799l52.3496 116.78h66.9102zM322.03 337.279v-337.28h-65.1699v335.45l-225.37 364.55h75.0498l182.44 -300.47l182.43 300.47h77.1504z" />
    <glyph glyph-name="Ycircumflex" unicode="&#x176;" horiz-adv-x="580" 
d="M452.08 770.77h-59.9189l-99.9902 106.33l-103.29 -106.33h-59.5801l131.31 137.18h64.1201zM322.041 337.279v-337.28h-65.1699v335.45l-225.38 364.55h75.0596l182.43 -300.47l182.44 300.47h77.1504z" />
    <glyph glyph-name="Ydieresis" unicode="&#x178;" horiz-adv-x="580" 
d="M203.61 865.74c17.9297 0 32.3096 -14.3799 32.3096 -33.1602c0 -18.21 -14.3799 -33.1602 -32.5898 -33.1602c-18.5 0 -33.4404 14.9502 -33.4404 33.1602c0 18.7803 14.9404 33.1602 33.7207 33.1602zM380.521 865.74c17.9297 0 32.3096 -14.3799 32.3096 -33.1602
c0 -18.21 -14.3799 -33.1602 -32.5898 -33.1602c-18.5 0 -33.4404 14.9502 -33.4404 33.1602c0 18.7803 14.9404 33.1602 33.7207 33.1602zM322.04 337.29v-337.29h-65.1699v335.46l-225.38 364.54h75.0596l182.43 -300.47l182.44 300.47h77.1504z" />
    <glyph glyph-name="Ygrave" unicode="&#x1ef2;" horiz-adv-x="580" 
d="M336.35 783.64h-45.3799l-73.8799 116.78h66.9102zM322.029 337.279v-337.28h-65.1699v335.45l-225.37 364.55h75.0498l182.44 -300.47l182.43 300.47h77.1504z" />
    <glyph glyph-name="Z" unicode="Z" horiz-adv-x="586" 
d="M533.59 656.11l-399.51 -597.25h405.16v-58.8604h-492.75v43.8896l399.51 597.24h-376.65v58.8701h464.24v-43.8896z" />
    <glyph glyph-name="Zacute" unicode="&#x179;" horiz-adv-x="586" 
d="M311.87 782.22h-45.3799l52.3496 116.78h66.9102zM533.58 656.109l-399.501 -597.25h405.15v-58.8604h-492.75v43.8896l399.51 597.24h-376.64v58.8701h464.23v-43.8896z" />
    <glyph glyph-name="Zcaron" unicode="&#x17d;" horiz-adv-x="586" 
d="M329.02 773.64h-64.1201l-131.31 137.18h59.5898l103.28 -106.33l100 106.33h59.9199zM533.579 656.109l-399.501 -597.25h405.15v-58.8604h-492.75v43.8896l399.51 597.24h-376.64v58.8701h464.23v-43.8896z" />
    <glyph glyph-name="Zdotaccent" unicode="&#x17b;" horiz-adv-x="586" 
d="M304.16 867.23c17.9297 0 32.2998 -14.3799 32.2998 -33.1602c0 -18.21 -14.3701 -33.1602 -32.5898 -33.1602c-18.4902 0 -33.4404 14.9502 -33.4404 33.1602c0 18.7803 14.9502 33.1602 33.7305 33.1602zM533.59 656.11l-399.51 -597.25h405.16v-58.8604h-492.75
v43.8896l399.51 597.24h-376.65v58.8701h464.24v-43.8896z" />
    <glyph glyph-name="a" unicode="a" horiz-adv-x="505" 
d="M108.95 427.17l-32.8818 34.4307c32.8604 27.0898 81.8906 47.5996 154.311 47.5996c189.41 0 210.21 -106.25 210.21 -209.91v-301.3h-50.6904l-1.2998 25.8496c-41.4502 -23.25 -93.1299 -34.8496 -142.49 -34.8496c-107.97 3 -201.05 44.2598 -201.05 173.84
c0 135.66 103.89 169.18 214.37 169.18c36.1104 0 77.7705 -4.29004 118.251 -9.61035c-1.4502 68.25 -21.0098 134.03 -153.31 134.03c-48.5596 0 -86.5596 -11.0801 -115.42 -29.2598zM377.668 69.7002l-0.00292969 206.77
c-36.2998 4.74023 -74.1797 8.68066 -109.699 8.68066c-89.1797 0 -164.149 -24.46 -164.149 -122.32c0 -93.1299 67.8701 -122.33 151.521 -122.33c43.4102 0 88.3906 11.0498 122.331 29.2002z" />
    <glyph glyph-name="a.ss01" horiz-adv-x="509" 
d="M439.84 0l-50.6904 -0.000976562l-1.2998 26c-41.4502 -23.2598 -93.1299 -34 -142.49 -34c-98.1904 0 -193.12 42.9404 -193.12 168.561v176.99c0 130.18 91.1299 171.8 185.96 171.8c51.4297 0 107.54 -14.04 149.65 -32.9199l1.2998 24.5703h50.6904v-501z
M376.93 70.6895l-0.0107422 362.051c-30.75 13.9199 -80.2695 25.8701 -128.119 25.8701c-75.6602 0 -133.65 -31.0596 -133.65 -124.699v-174.29c0.290039 -81.7305 60.4902 -116.961 138.36 -116.961c43.9902 0 88.6299 10.4297 123.42 28.0293z" />
    <glyph glyph-name="aacute" unicode="&#xe1;" horiz-adv-x="505" 
d="M262.45 583.22h-45.3896l52.3496 116.78h66.9102zM108.95 427.17l-32.8818 34.4307c32.8604 27.0898 81.8906 47.5996 154.311 47.5996c189.41 0 210.21 -106.25 210.21 -209.91v-301.3h-50.6904l-1.2998 25.8496c-41.4502 -23.25 -93.1299 -34.8496 -142.49 -34.8496
c-107.97 3 -201.05 44.2598 -201.05 173.84c0 135.66 103.89 169.18 214.37 169.18c36.1104 0 77.7705 -4.29004 118.251 -9.61035c-1.4502 68.25 -21.0098 134.03 -153.31 134.03c-48.5596 0 -86.5596 -11.0801 -115.42 -29.2598zM377.668 69.7002l-0.00292969 206.77
c-36.2998 4.74023 -74.1797 8.68066 -109.699 8.68066c-89.1797 0 -164.149 -24.46 -164.149 -122.32c0 -93.1299 67.8701 -122.33 151.521 -122.33c43.4102 0 88.3906 11.0498 122.331 29.2002z" />
    <glyph glyph-name="abreve" unicode="&#x103;" horiz-adv-x="505" 
d="M352.88 704.73h35.1895c0 -73.6201 -58.0098 -128.21 -130.31 -128.21s-130.3 54.5898 -130.3 128.21h35.1797c1.99023 -46.9102 40.2803 -89.4902 95.1201 -89.4902c54.1299 0 93.1396 42.5801 95.1201 89.4902zM108.959 427.171l-32.8789 34.4307
c32.8604 27.0898 81.8799 47.5996 154.31 47.5996c189.4 0 210.2 -106.25 210.2 -209.91v-301.3h-50.6904l-1.2998 25.8496c-41.4502 -23.25 -93.1299 -34.8496 -142.49 -34.8496c-107.96 3 -201.04 44.2598 -201.04 173.84c0 135.66 103.89 169.18 214.359 169.18
c36.1201 0 77.7705 -4.29004 118.251 -9.61035c-1.4502 68.25 -21 134.03 -153.3 134.03c-48.5703 0 -86.5605 -11.0801 -115.421 -29.2598zM377.67 69.7012l-0.000976562 206.77c-36.2998 4.74023 -74.1797 8.68066 -109.689 8.68066
c-89.1797 0 -164.16 -24.46 -164.16 -122.32c0 -93.1299 67.8701 -122.33 151.53 -122.33c43.4004 0 88.3906 11.0498 122.32 29.2002z" />
    <glyph glyph-name="acaron" unicode="&#x1ce;" horiz-adv-x="505" 
d="M292.04 574.64h-64.1201l-131.31 137.18h59.5801l103.29 -106.33l99.9902 106.33h59.9297zM108.96 427.17l-32.8789 34.4307c32.8604 27.0898 81.8799 47.5996 154.31 47.5996c189.4 0 210.2 -106.25 210.2 -209.91v-301.3h-50.6904l-1.2998 25.8496
c-41.4502 -23.25 -93.1299 -34.8496 -142.49 -34.8496c-107.96 3 -201.04 44.2598 -201.04 173.84c0 135.66 103.89 169.18 214.359 169.18c36.1201 0 77.7705 -4.29004 118.251 -9.61035c-1.4502 68.25 -21 134.03 -153.3 134.03
c-48.5703 0 -86.5605 -11.0801 -115.421 -29.2598zM377.671 69.7002l-0.000976562 206.77c-36.2998 4.74023 -74.1797 8.68066 -109.689 8.68066c-89.1797 0 -164.16 -24.46 -164.16 -122.32c0 -93.1299 67.8701 -122.33 151.53 -122.33
c43.4004 0 88.3906 11.0498 122.32 29.2002z" />
    <glyph glyph-name="acircumflex" unicode="&#xe2;" horiz-adv-x="505" 
d="M419.92 571.77h-59.9199l-100 106.33l-103.28 -106.33h-59.5898l131.31 137.18h64.1201zM108.95 427.17l-32.8818 34.4307c32.8604 27.0898 81.8906 47.5996 154.311 47.5996c189.41 0 210.21 -106.25 210.21 -209.91v-301.3h-50.6904l-1.2998 25.8496
c-41.4502 -23.25 -93.1299 -34.8496 -142.49 -34.8496c-107.97 3 -201.05 44.2598 -201.05 173.84c0 135.66 103.89 169.18 214.37 169.18c36.1104 0 77.7705 -4.29004 118.251 -9.61035c-1.4502 68.25 -21.0098 134.03 -153.31 134.03
c-48.5596 0 -86.5596 -11.0801 -115.42 -29.2598zM377.668 69.7002l-0.00292969 206.77c-36.2998 4.74023 -74.1797 8.68066 -109.699 8.68066c-89.1797 0 -164.149 -24.46 -164.149 -122.32c0 -93.1299 67.8701 -122.33 151.521 -122.33
c43.4102 0 88.3906 11.0498 122.331 29.2002z" />
    <glyph glyph-name="adieresis" unicode="&#xe4;" horiz-adv-x="505" 
d="M171.45 666.73c17.9297 0 32.3096 -14.3701 32.3096 -33.1504c0 -18.2197 -14.3799 -33.1602 -32.5898 -33.1602c-18.5 0 -33.4404 14.9404 -33.4404 33.1602c0 18.7803 14.9404 33.1504 33.7207 33.1504zM348.36 666.73c17.9297 0 32.3096 -14.3701 32.3096 -33.1504
c0 -18.2197 -14.3799 -33.1602 -32.5898 -33.1602c-18.5 0 -33.4404 14.9404 -33.4404 33.1602c0 18.7803 14.9404 33.1504 33.7207 33.1504zM108.96 427.171l-32.8789 34.4209c32.8604 27.0898 81.8799 47.5996 154.31 47.5996c189.4 0 210.2 -106.25 210.2 -209.9v-301.3
h-50.6904l-1.2998 25.8496c-41.4502 -23.2598 -93.1299 -34.8496 -142.49 -34.8496c-107.96 3 -201.04 44.25 -201.04 173.84c0 135.66 103.89 169.18 214.359 169.18c36.1201 0 77.7705 -4.29004 118.251 -9.62012c-1.4502 68.25 -21 134.04 -153.3 134.04
c-48.5703 0 -86.5605 -11.0801 -115.421 -29.2598zM377.671 69.7021l-0.000976562 206.77c-36.2998 4.73047 -74.1797 8.68066 -109.689 8.68066c-89.1797 0 -164.16 -24.4697 -164.16 -122.33c0 -93.1201 67.8701 -122.32 151.53 -122.32
c43.4004 0 88.3906 11.0498 122.32 29.2002z" />
    <glyph glyph-name="agrave" unicode="&#xe0;" horiz-adv-x="505" 
d="M310.93 583.22h-45.3799l-73.8799 116.78h66.9102zM108.95 427.17l-32.8818 34.4307c32.8604 27.0898 81.8906 47.5996 154.311 47.5996c189.41 0 210.21 -106.25 210.21 -209.91v-301.3h-50.6904l-1.2998 25.8496c-41.4502 -23.25 -93.1299 -34.8496 -142.49 -34.8496
c-107.97 3 -201.05 44.2598 -201.05 173.84c0 135.66 103.89 169.18 214.37 169.18c36.1104 0 77.7705 -4.29004 118.251 -9.61035c-1.4502 68.25 -21.0098 134.03 -153.31 134.03c-48.5596 0 -86.5596 -11.0801 -115.42 -29.2598zM377.668 69.7002l-0.00292969 206.77
c-36.2998 4.74023 -74.1797 8.68066 -109.699 8.68066c-89.1797 0 -164.149 -24.46 -164.149 -122.32c0 -93.1299 67.8701 -122.33 151.521 -122.33c43.4102 0 88.3906 11.0498 122.331 29.2002z" />
    <glyph glyph-name="amacron" unicode="&#x101;" horiz-adv-x="505" 
d="M375.01 609.5h-235.41v38.0098h235.41v-38.0098zM108.96 427.17l-32.8789 34.4209c32.8604 27.0898 81.8799 47.5996 154.31 47.5996c189.4 0 210.2 -106.25 210.2 -209.9v-301.3h-50.6904l-1.2998 25.8496c-41.4502 -23.2598 -93.1299 -34.8496 -142.49 -34.8496
c-107.96 3 -201.04 44.25 -201.04 173.84c0 135.66 103.89 169.18 214.359 169.18c36.1201 0 77.7705 -4.29004 118.251 -9.62012c-1.4502 68.25 -21 134.04 -153.3 134.04c-48.5703 0 -86.5605 -11.0801 -115.421 -29.2598zM377.671 69.7012l-0.000976562 206.77
c-36.2998 4.73047 -74.1797 8.68066 -109.689 8.68066c-89.1797 0 -164.16 -24.4697 -164.16 -122.33c0 -93.1201 67.8701 -122.32 151.53 -122.32c43.4004 0 88.3906 11.0498 122.32 29.2002z" />
    <glyph glyph-name="aogonek" unicode="&#x105;" horiz-adv-x="505" 
d="M108.92 427.18l-32.8828 34.4219c32.8604 27.0898 81.8906 47.5996 154.32 47.5996c189.4 0 210.2 -106.25 210.2 -209.91v-301.3l-15.2197 -4c-59.6797 -49.3203 -66.6895 -85.9707 -66.6895 -105.48c0 -40.0303 27.2695 -56.5605 59.8896 -56.5605
c29.8203 0 54.4102 15.8701 72.71 43.0498l29.2598 -13c-24.96 -41 -66.9102 -65 -114.68 -65c-42.4902 0 -93.1201 23 -93.1201 86c0 22 7.17969 66 77.1602 115l-1.2998 25.8496c-41.4502 -23.2598 -93.1299 -34.8496 -142.49 -34.8496
c-107.97 3 -201.05 44.2598 -201.05 173.84c0 135.66 103.89 169.18 214.37 169.18c36.1104 0 77.7607 -4.29004 118.241 -9.62012c-1.4502 68.25 -21 134.04 -153.3 134.04c-48.5596 0 -86.5596 -11.0801 -115.42 -29.2598zM377.637 69.7012l-0.0126953 206.77
c-36.2998 4.74023 -74.1797 8.68066 -109.689 8.68066c-89.1797 0 -164.149 -24.46 -164.149 -122.32c0 -93.1299 67.8701 -122.33 151.521 -122.33c43.4102 0 88.3906 11.0498 122.331 29.2002z" />
    <glyph glyph-name="aring" unicode="&#xe5;" horiz-adv-x="505" 
d="M257.75 772.09c62.2998 0 115.931 -52.9492 115.931 -115.779c0 -62.2998 -53.2402 -115.79 -115.931 -115.79c-62.6699 0 -115.92 53.9199 -115.92 115.79c0 62.5098 53.5996 115.779 115.92 115.779zM257.751 734.421c-44.1699 0 -78.6807 -34.2803 -78.6807 -78.1104
c0 -44.0098 34.5801 -78.8301 78.6797 -78.8301c43.4805 0 77.9707 34.7305 77.9707 78.8301c0 43.8301 -34.5098 78.1104 -77.9697 78.1104zM108.96 427.171l-32.8789 34.4209c32.8604 27.0898 81.8799 47.5996 154.31 47.5996c189.4 0 210.2 -106.25 210.2 -209.9v-301.3
h-50.6904l-1.2998 25.8496c-41.4502 -23.2598 -93.1299 -34.8496 -142.49 -34.8496c-107.96 3 -201.04 44.25 -201.04 173.84c0 135.66 103.89 169.18 214.359 169.18c36.1201 0 77.7705 -4.29004 118.251 -9.62012c-1.4502 68.25 -21 134.04 -153.3 134.04
c-48.5703 0 -86.5605 -11.0801 -115.421 -29.2598zM377.671 69.7021l-0.000976562 206.77c-36.2998 4.73047 -74.1797 8.68066 -109.689 8.68066c-89.1797 0 -164.16 -24.4697 -164.16 -122.33c0 -93.1201 67.8701 -122.32 151.53 -122.32
c43.4004 0 88.3906 11.0498 122.32 29.2002z" />
    <glyph glyph-name="atilde" unicode="&#xe3;" horiz-adv-x="505" 
d="M118.4 605.04l-24.5889 33.5195c25.0703 26.5 63.2705 53.9502 101.471 53.9502c51.4902 0 89.6006 -41.8301 134.62 -41.8301c25.9297 0 51.2998 19.2402 67.7695 36.4307l24.0596 -34.2305c-20.0498 -18.6201 -56.29 -43.2002 -90.9102 -43.2002
c-51.4805 0 -90.3008 40.4004 -136.971 40.4004c-27.8701 0 -54.6699 -21.4004 -75.4502 -45.04zM108.962 427.18l-32.8789 34.4209c32.8604 27.0898 81.8799 47.5996 154.31 47.5996c189.4 0 210.2 -106.25 210.2 -209.9v-301.3h-50.6904l-1.2998 25.8496
c-41.4502 -23.2598 -93.1299 -34.8496 -142.49 -34.8496c-107.96 3 -201.04 44.25 -201.04 173.84c0 135.66 103.89 169.18 214.359 169.18c36.1201 0 77.7705 -4.29004 118.251 -9.62012c-1.4502 68.25 -21 134.04 -153.3 134.04
c-48.5703 0 -86.5605 -11.0801 -115.421 -29.2598zM377.673 69.7109l-0.000976562 206.77c-36.2998 4.73047 -74.1797 8.68066 -109.689 8.68066c-89.1797 0 -164.16 -24.4697 -164.16 -122.33c0 -93.1201 67.8701 -122.32 151.53 -122.32
c43.4004 0 88.3906 11.0498 122.32 29.2002z" />
    <glyph glyph-name="ae" unicode="&#xe6;" horiz-adv-x="821" 
d="M108.95 427.17l-32.8896 34.4424c32.8604 27.0898 81.8799 47.5996 154.149 47.5996c115.49 0 165.101 -40.1201 187.511 -92.3896c27.6602 60.5898 90.2803 93.0996 172.141 93.0996c121.29 0 183.41 -69.71 183.41 -179.1v-101.41h-316.4v-84.3604
c0 -72.4902 52.9297 -107.21 121.42 -107.21c43.6299 0 93.6699 14.75 137.62 42.1396l33.8896 -32.3301c-43.7197 -35.6699 -101.13 -57.6504 -177 -58.6504c-58.7803 0 -105.391 17.4404 -132.221 53.1709v-44.1699h-50.6904l-1.2998 25.8496
c-40.0195 -22.54 -89.5498 -34.8604 -142.49 -34.8604c-107.96 0 -201.04 44.2598 -201.04 173.84c0 135.66 103.89 169.18 214.359 169.18c36.1201 0 77.7705 -4.29004 118.251 -9.61035l-0.00976562 5.26953c-2.53027 66.1396 -24.1699 128.76 -153.29 128.76
c-48.5596 0 -86.5596 -11.0801 -115.42 -29.2598zM713.751 273.093v59.8594c0 96.0303 -64.1299 125.561 -125.2 125.561c-66.0596 0 -130.17 -32.75 -130.17 -127.71v-57.71h255.37zM377.651 69.7119l-0.000976562 206.77
c-36.2998 4.74023 -74.1797 8.68066 -109.689 8.68066c-89.1797 0 -164.16 -24.46 -164.16 -122.32c0 -93.1299 67.8701 -122.33 151.53 -122.33c43.4004 0 88.3906 11.0498 122.32 29.2002z" />
    <glyph glyph-name="b" unicode="b" horiz-adv-x="509" 
d="M132.31 700l0.0107422 -218.93c38.1104 15.8604 90.0303 28.3203 138.021 28.3203c93.0098 0 186.66 -40.0801 186.66 -171.83v-177c0 -127.07 -97.6904 -168.561 -193.131 -168.561c-49.3604 0 -101.04 10.7402 -142.49 34l-1.2998 -26h-50.6904v700h62.9199z
M394.09 159.63l-0.0107422 174.279c0 93.6396 -57.9902 124.699 -133.65 124.699c-47.8496 0 -97.3691 -11.9502 -128.119 -25.8701v-362.04c34.79 -17.5996 79.4297 -28.0293 123.42 -28.0293c77.8701 0 138.07 35.2305 138.36 116.961z" />
    <glyph glyph-name="c" unicode="c" horiz-adv-x="446" 
d="M52.2305 194.02v112.439c0 133.88 79.5996 203.46 195.239 203.46c63.6299 0 112.68 -23.7695 150.189 -62.0293l-46.7002 -25.3398c-31.54 22.9805 -66.9502 34.54 -103.48 34.54c-76.0898 0 -132.32 -47.0801 -132.32 -150.63v-112.44
c0 -103.55 56.2305 -150.63 132.32 -150.63c36.5303 0 71.9404 11.5596 103.48 34.54l46.7002 -25.3398c-37.5098 -38.2598 -86.5596 -61.5898 -150.189 -61.5898c-115.64 0 -195.239 69.1396 -195.239 203.02z" />
    <glyph glyph-name="cacute" unicode="&#x107;" horiz-adv-x="446" 
d="M223.79 583.22h-45.3799l52.3496 116.78h66.9102zM52.2305 194.02v112.432c0 133.89 79.5996 203.46 195.239 203.46c63.6299 0 112.68 -23.7598 150.189 -62.0293l-46.7002 -25.3301c-31.54 22.9697 -66.9502 34.5293 -103.48 34.5293
c-76.0898 0 -132.32 -47.0703 -132.32 -150.62v-112.44c0 -103.55 56.2305 -150.63 132.32 -150.63c36.5303 0 71.9404 11.5596 103.48 34.5293l46.7002 -25.3301c-37.5098 -38.2695 -86.5596 -61.5996 -150.189 -61.5996c-115.64 0 -195.239 69.1396 -195.239 203.029z" />
    <glyph glyph-name="ccaron" unicode="&#x10d;" horiz-adv-x="446" 
d="M257.71 574.64h-64.1309l-131.31 137.18h59.5898l103.28 -106.32l100 106.32h59.9199zM52.2295 194.02v112.439c0 133.88 79.5898 203.46 195.24 203.46c63.6299 0 112.68 -23.7695 150.189 -62.0293l-46.7002 -25.3398c-31.54 22.9805 -66.9502 34.54 -103.49 34.54
c-76.0898 0 -132.32 -47.0801 -132.32 -150.63v-112.44c0 -103.55 56.2305 -150.63 132.32 -150.63c36.54 0 71.9502 11.5596 103.49 34.54l46.7002 -25.3398c-37.5098 -38.2598 -86.5596 -61.5898 -150.189 -61.5898c-115.65 0 -195.24 69.1396 -195.24 203.02z" />
    <glyph glyph-name="ccedilla" unicode="&#xe7;" horiz-adv-x="446" 
d="M52.2305 194.02l0.00488281 112.422c0 133.89 79.5996 203.46 195.239 203.46c63.6299 0 112.68 -23.7598 150.189 -62.0293l-46.7002 -25.3301c-31.54 22.9697 -66.9502 34.5293 -103.48 34.5293c-76.0898 0 -132.32 -47.0703 -132.32 -150.62v-112.44
c0 -103.55 56.2305 -150.63 132.32 -150.63c36.5303 0 71.9404 11.5596 103.48 34.5293l46.7002 -25.3301c-35.6602 -30.1396 -76.6104 -50.0098 -121.61 -56.5898c-12.6504 -3 -26.5508 -5 -41.8311 -5l-29.6201 -40c11.7803 4.75 25.1104 7.62012 38.6299 7.62012
c3.57031 0 7.15039 -0.200195 10.7207 -0.620117c44.0195 -1 84.5693 -25 84.5693 -79c0 -73 -67.3799 -94 -127.97 -94c-37.3701 0 -72.96 12 -103 23l14.5596 33c28.5703 -16 61.04 -22 84.6396 -23c43.6504 0 85.8203 18 85.8203 59c0 32 -24.3203 49 -58.0703 49
c-17.2305 0 -40.3604 -4 -74.3408 -19l-13.4805 15l53.2598 73c-89.3896 16.9199 -147.71 84.4297 -147.71 199.029z" />
    <glyph glyph-name="cdotaccent" unicode="&#x10b;" horiz-adv-x="446" 
d="M224.14 666.74c17.9297 0 32.2998 -14.3799 32.2998 -33.1602c0 -18.21 -14.3701 -33.1602 -32.5898 -33.1602c-18.4902 0 -33.4404 14.9502 -33.4404 33.1602c0 18.7803 14.9502 33.1602 33.7305 33.1602zM52.2295 194.021v112.439
c0 133.88 79.5898 203.46 195.24 203.46c63.6299 0 112.68 -23.7695 150.189 -62.0293l-46.7002 -25.3398c-31.54 22.9805 -66.9502 34.54 -103.49 34.54c-76.0898 0 -132.32 -47.0801 -132.32 -150.63v-112.44c0 -103.55 56.2305 -150.63 132.32 -150.63
c36.54 0 71.9502 11.5596 103.49 34.54l46.7002 -25.3398c-37.5098 -38.2598 -86.5596 -61.5898 -150.189 -61.5898c-115.65 0 -195.24 69.1396 -195.24 203.02z" />
    <glyph glyph-name="d" unicode="d" horiz-adv-x="509" 
d="M439.84 0l-50.6895 -0.0107422l-1.2998 26c-41.4502 -23.25 -93.1299 -34 -142.49 -34c-98.1904 0 -193.131 42.9502 -193.131 168.561v177c0 131.75 93.6602 171.83 186.67 171.83c47.9805 0 99.9004 -12.46 138.021 -28.3203v218.94h62.9199v-700zM376.92 70.6895
l-0.00195312 362.051c-30.7598 13.9102 -80.2695 25.8701 -128.119 25.8701c-75.6602 0 -133.65 -31.0596 -133.65 -124.71v-174.29c0.280273 -81.7305 60.4902 -116.95 138.36 -116.95c43.9805 0 88.6309 10.4297 123.411 28.0293z" />
    <glyph glyph-name="eth" unicode="&#xf0;" horiz-adv-x="575" 
d="M484.29 687.88l-52.1514 -51.2109c50.1602 -49.4004 71.1904 -118.051 71.1904 -179.771v-247.52c0 -122.91 -98.2998 -221.38 -222.729 -221.38c-124.42 0 -223.439 98.46 -223.439 221.38c0 118.6 96.9404 212.67 220.61 212.67
c55.5898 0 125.83 -22.8203 165.71 -96.4404v134.86c0 40.4004 -13.6201 91.3301 -50.1299 128.29l-56.6201 -56.46l-25.6699 25.9004l53.5703 53.4297c-26.7197 19.8203 -62.9297 32.9707 -111.479 32.9707c-62.0898 0 -110 -22.1396 -138.62 -46.6494l-38.29 44.46
c32.5098 27.6904 92.8193 61.0508 175.489 61.0508c63.7197 0 113.72 -17.2803 151.29 -44.3105l55.5996 54.6299zM280.599 367.289c-92.3701 0 -160.519 -70.1006 -160.519 -159.681c0 -89.5898 68.5303 -160.41 160.53 -160.41s159.81 71.2002 159.81 160.41
c-2.23047 94.9004 -70.3408 159.681 -159.821 159.681z" />
    <glyph glyph-name="dcaron" unicode="&#x10f;" horiz-adv-x="593" 
d="M512.02 644.74l20.9893 61.1494c-9.33984 6.67969 -15.6494 17.75 -15.6494 29.96c0 20.4902 17.2197 37.7002 37.7002 37.7002c20.4902 0 37.7002 -17.21 37.7002 -37.7002c0 -6.17969 -1.57031 -12.0596 -4.32031 -17.2598l-34.7998 -73.8496h-41.6201zM439.818 -0
l-50.6904 -0.0107422l-1.2998 26c-41.4502 -23.25 -93.1299 -34 -142.49 -34c-98.1904 0 -193.12 42.9502 -193.12 168.561v177c0 131.75 93.6504 171.83 186.66 171.83c47.9902 0 99.9102 -12.46 138.021 -28.3203v218.94h62.9199v-700zM376.908 70.6895
l-0.0107422 362.051c-30.75 13.9102 -80.2695 25.8701 -128.119 25.8701c-75.6602 0 -133.65 -31.0596 -133.65 -124.71v-174.29c0.290039 -81.7305 60.4902 -116.95 138.36 -116.95c43.9902 0 88.6299 10.4297 123.42 28.0293z" />
    <glyph glyph-name="dcroat" unicode="&#x111;" horiz-adv-x="527" 
d="M439.84 623.32l58.8398 -0.0117188v-37.9805h-58.8496v-585.34h-50.6904l-1.2998 26c-41.4502 -23.2598 -93.1299 -34 -142.49 -34c-98.1904 0 -193.12 42.9404 -193.12 168.561v176.99c0 131.75 93.6504 171.83 186.67 171.83
c47.9805 0 99.9004 -12.46 138.021 -28.3096v104.28h-133.67v37.9805h133.67v76.6797h62.9199v-76.6797zM376.91 70.6787l-0.00195312 362.051c-30.7598 13.9102 -80.2695 25.8701 -128.119 25.8701c-75.6602 0 -133.65 -31.0596 -133.65 -124.699v-174.29
c0.280273 -81.7305 60.4902 -116.961 138.36 -116.961c43.9805 0 88.6309 10.4297 123.411 28.0293z" />
    <glyph glyph-name="e" unicode="e" horiz-adv-x="477" 
d="M52.2305 152.1v176.56c0 115.41 74.9805 181.26 194.4 181.26c121.29 0 183.41 -69.7197 183.41 -179.1v-101.41h-316.4v-82.9297c0 -75.3096 47.7695 -107.21 121.8 -107.21c52.6201 0 98.6201 14.3701 136.54 40.1104l34.5801 -31.7402
c-43.7197 -35.6699 -101.13 -58.6504 -175.57 -58.6504c-116.18 0 -178.76 63.46 -178.76 163.11zM370.521 273.089v59.8594c0 96.0303 -64.1201 125.561 -125.2 125.561c-66.0596 0 -130.17 -32.75 -130.17 -127.71v-57.71h255.37z" />
    <glyph glyph-name="e.ss01" horiz-adv-x="477" 
d="M52.2305 152.1l0.00976562 176.561c0 115.41 74.9697 181.26 194.37 181.26c115.29 0 184 -66.3496 184 -163.58c0 -110.93 -83.4902 -150.12 -176.05 -150.12c-48 0 -98.4297 10.54 -140.92 27.0801v-76.8203c0 -75.3096 47.7695 -107.21 121.8 -107.21
c52.6201 0 98.6201 14.3701 136.54 40.1104l34.5801 -31.7402c-43.7197 -35.6699 -101.13 -58.6504 -175.57 -58.6504c-116.18 0 -178.76 63.46 -178.76 163.11zM114.58 336.07l0.000976562 -65.04c29.5596 -14.6396 83.5098 -29.8398 134.52 -29.8398
c64.6797 0 124.199 24.4297 124.199 105.1c0 70.9404 -46.5596 111.83 -126.229 111.83c-80.54 0 -132.49 -41.8896 -132.49 -122.05z" />
    <glyph glyph-name="eacute" unicode="&#xe9;" horiz-adv-x="477" 
d="M241.17 583.22h-45.3799l52.3496 116.78h66.9102zM52.2305 152.1v176.56c0 115.41 74.9805 181.26 194.4 181.26c121.29 0 183.41 -69.7197 183.41 -179.1v-101.41h-316.4v-82.9297c0 -75.3096 47.7695 -107.21 121.8 -107.21c52.6201 0 98.6201 14.3701 136.54 40.1104
l34.5801 -31.7402c-43.7197 -35.6699 -101.13 -58.6504 -175.57 -58.6504c-116.18 0 -178.76 63.46 -178.76 163.11zM370.521 273.089v59.8594c0 96.0303 -64.1201 125.561 -125.2 125.561c-66.0596 0 -130.17 -32.75 -130.17 -127.71v-57.71h255.37z" />
    <glyph glyph-name="ecaron" unicode="&#x11b;" horiz-adv-x="477" 
d="M275.09 574.64h-64.1309l-131.31 137.18h59.5898l103.28 -106.32l100 106.32h59.9199zM52.2285 152.109l0.00195312 176.56c0 115.4 74.9697 181.25 194.399 181.25c121.28 0 183.4 -69.71 183.4 -179.1v-101.41h-316.4v-82.9297
c0 -75.3096 47.7803 -107.21 121.8 -107.21c52.6299 0 98.6299 14.3799 136.54 40.1201l34.5898 -31.7402c-43.7197 -35.6699 -101.13 -58.6504 -175.57 -58.6504c-116.19 0 -178.761 63.4502 -178.761 163.11zM370.521 273.089v59.8701
c0 96.0303 -64.1299 125.55 -125.2 125.55c-66.0596 0 -130.17 -32.75 -130.17 -127.7v-57.7197h255.37z" />
    <glyph glyph-name="ecircumflex" unicode="&#xea;" horiz-adv-x="477" 
d="M402.97 571.78h-59.9189l-99.9902 106.32l-103.29 -106.32h-59.5801l131.31 137.18h64.1201zM52.2305 152.11v176.56c0 115.4 74.9805 181.25 194.4 181.25c121.29 0 183.41 -69.71 183.41 -179.1v-101.41h-316.4v-82.9297c0 -75.3096 47.7695 -107.21 121.8 -107.21
c52.6201 0 98.6201 14.3799 136.54 40.1201l34.5801 -31.7402c-43.7197 -35.6699 -101.13 -58.6504 -175.57 -58.6504c-116.18 0 -178.76 63.4502 -178.76 163.11zM370.521 273.09v59.8701c0 96.0303 -64.1201 125.55 -125.2 125.55
c-66.0596 0 -130.17 -32.75 -130.17 -127.7v-57.7197h255.37z" />
    <glyph glyph-name="edieresis" unicode="&#xeb;" horiz-adv-x="477" 
d="M154.5 666.74c17.9297 0 32.3096 -14.3799 32.3096 -33.1602c0 -18.21 -14.3799 -33.1602 -32.5898 -33.1602c-18.5 0 -33.4404 14.9502 -33.4404 33.1602c0 18.7803 14.9404 33.1602 33.7207 33.1602zM331.41 666.74c17.9297 0 32.3096 -14.3799 32.3096 -33.1602
c0 -18.21 -14.3799 -33.1602 -32.5898 -33.1602c-18.5 0 -33.4404 14.9502 -33.4404 33.1602c0 18.7803 14.9404 33.1602 33.7207 33.1602zM52.2305 152.11v176.56c0 115.4 74.9805 181.25 194.4 181.25c121.29 0 183.41 -69.71 183.41 -179.1v-101.41h-316.4v-82.9297
c0 -75.3096 47.7695 -107.21 121.8 -107.21c52.6201 0 98.6201 14.3799 136.54 40.1201l34.5801 -31.7402c-43.7197 -35.6699 -101.13 -58.6504 -175.57 -58.6504c-116.18 0 -178.76 63.4502 -178.76 163.11zM370.521 273.09v59.8701
c0 96.0303 -64.1201 125.55 -125.2 125.55c-66.0596 0 -130.17 -32.75 -130.17 -127.7v-57.7197h255.37z" />
    <glyph glyph-name="edotaccent" unicode="&#x117;" horiz-adv-x="477" 
d="M241.52 666.74c17.9297 0 32.3096 -14.3799 32.3096 -33.1602c0 -18.21 -14.3799 -33.1602 -32.5898 -33.1602c-18.5 0 -33.4404 14.9502 -33.4404 33.1602c0 18.7803 14.9404 33.1602 33.7207 33.1602zM52.2295 152.11v176.56c0 115.4 74.9805 181.25 194.4 181.25
c121.29 0 183.41 -69.71 183.41 -179.1v-101.41h-316.4v-82.9297c0 -75.3096 47.7695 -107.21 121.8 -107.21c52.6201 0 98.6201 14.3799 136.54 40.1201l34.5801 -31.7402c-43.7197 -35.6699 -101.13 -58.6504 -175.57 -58.6504c-116.18 0 -178.76 63.4502 -178.76 163.11z
M370.52 273.09v59.8701c0 96.0303 -64.1201 125.55 -125.2 125.55c-66.0596 0 -130.17 -32.75 -130.17 -127.7v-57.7197h255.37z" />
    <glyph glyph-name="egrave" unicode="&#xe8;" horiz-adv-x="477" 
d="M298.31 583.22h-45.3799l-73.8301 116.78h66.8604zM52.2295 152.1v176.56c0 115.41 74.9805 181.26 194.4 181.26c121.29 0 183.41 -69.7197 183.41 -179.1v-101.41h-316.4v-82.9297c0 -75.3096 47.7695 -107.21 121.8 -107.21c52.6201 0 98.6201 14.3701 136.54 40.1104
l34.5801 -31.7402c-43.7197 -35.6699 -101.13 -58.6504 -175.57 -58.6504c-116.18 0 -178.76 63.46 -178.76 163.11zM370.52 273.089v59.8594c0 96.0303 -64.1201 125.561 -125.2 125.561c-66.0596 0 -130.17 -32.75 -130.17 -127.71v-57.71h255.37z" />
    <glyph glyph-name="emacron" unicode="&#x113;" horiz-adv-x="477" 
d="M358.06 618.01h-235.41v38.0098h235.41v-38.0098zM52.2295 152.1v176.56c0 115.41 74.9805 181.26 194.4 181.26c121.29 0 183.41 -69.7197 183.41 -179.1v-101.41h-316.4v-82.9297c0 -75.3096 47.7695 -107.21 121.8 -107.21c52.6201 0 98.6201 14.3701 136.54 40.1104
l34.5801 -31.7402c-43.7197 -35.6699 -101.13 -58.6504 -175.57 -58.6504c-116.18 0 -178.76 63.46 -178.76 163.11zM370.52 273.089v59.8594c0 96.0303 -64.1201 125.561 -125.2 125.561c-66.0596 0 -130.17 -32.75 -130.17 -127.71v-57.71h255.37z" />
    <glyph glyph-name="eogonek" unicode="&#x119;" horiz-adv-x="477" 
d="M52.2305 152.1l-0.00195312 176.278c0 115.4 74.9805 181.25 194.4 181.25c121.29 0 183.41 -69.71 183.41 -179.1v-101.41h-316.4v-82.9297c0 -75.3096 47.7695 -107.21 121.8 -107.21c52.6201 0 98.6201 14.3799 136.54 40.1201l34.5801 -31.7402
c-23.5 -18.9004 -50.7695 -34.1201 -82.2295 -44.3701c-62.8604 -50.3496 -69.71 -84.8594 -69.71 -104.52c0 -39.9199 25.8203 -57.4795 57.1406 -57.4795c31.0596 0 56.5996 15 75.46 43l29.25 -13c-24.9502 -41 -66.9004 -65 -114.67 -65
c-42.4902 0 -93.1201 23 -93.1201 87c0 20 7.23047 54 56.3906 98c-9.2002 -0.5 -18.3301 -0.75 -27.3799 -0.75c-116.83 0 -185.46 58.29 -185.46 161.86zM370.519 272.798v59.8701c0 96.0303 -64.1201 125.55 -125.2 125.55c-66.0596 0 -130.17 -32.75 -130.17 -127.7
v-57.7197h255.37z" />
    <glyph glyph-name="f" unicode="f" horiz-adv-x="299" 
d="M72.9805 0v544.689c0 124.82 82.9502 166.08 161.47 166.08c14.79 0 28.8398 -1.37012 42.8701 -3.87988v-52.2695c-16.4805 2.59961 -31.3008 3.96973 -42.3008 2.92969c-53.2998 -2.20996 -99.0693 -35.3496 -99.1191 -119.92v-36.6299h132.27v-50.3604h-132.27
v-450.64h-62.9199z" />
    <glyph glyph-name="g" unicode="g" horiz-adv-x="509" 
d="M52.2305 169.01l-0.000976562 170.898c0 127.08 97.6904 169 193.131 169c49.3604 0 101.04 -11.1797 142.49 -34.4395l1.2998 26h50.6904v-536.47c0 -112 -72.6904 -162 -170.011 -162c-64.3896 0 -124.52 19 -176.399 52l25.8096 37
c40.5 -24.2197 85.0195 -39.0498 135.149 -39.0498c74.04 0 121.25 27.29 122.53 107.04v68.75c-36.75 -17.4502 -90.2197 -27.75 -139.71 -27.75c-99.0596 0.290039 -184.979 42.9102 -184.979 169.021zM376.92 74.1777l0.00195312 355.59
c-34.7803 17.6104 -79.4307 28.04 -123.411 28.04c-77.8701 0 -138.08 -35.2305 -138.36 -116.961v-167.84c0 -93.6396 57.9902 -124.699 133.65 -124.699c47.8496 0 97.3594 11.96 128.119 25.8701z" />
    <glyph glyph-name="gbreve" unicode="&#x11f;" horiz-adv-x="509" 
d="M350.01 704.73h35.1895c0 -73.6201 -58.0098 -128.21 -130.31 -128.21s-130.3 54.5898 -130.3 128.21h35.1797c1.99023 -46.9102 40.2803 -89.4902 95.1201 -89.4902c54.1299 0 93.1396 42.5801 95.1201 89.4902zM52.2295 169.011l-0.000976562 170.909
c0 127.07 97.6904 168.99 193.131 168.99c49.3604 0 101.04 -11.1797 142.49 -34.4297l1.2998 26h50.6904v-536.48c0 -112 -72.6904 -162 -170.011 -162c-64.3896 0 -124.52 19 -176.399 52l25.8096 37c40.5 -24.21 85.0195 -39.0498 135.149 -39.0498
c74.04 0 121.25 27.29 122.53 107.05v68.7402c-36.75 -17.4404 -90.2197 -27.7402 -139.71 -27.7402c-99.0596 0.280273 -184.979 42.9004 -184.979 169.011zM376.919 74.1895l0.00195312 355.591c-34.7803 17.5996 -79.4307 28.0293 -123.411 28.0293
c-77.8701 0 -138.08 -35.2197 -138.36 -116.95v-167.84c0 -93.6504 57.9902 -124.7 133.65 -124.7c47.8496 0 97.3594 11.9502 128.119 25.8701z" />
    <glyph glyph-name="gcommaaccent" unicode="&#x123;" horiz-adv-x="509" 
d="M295.86 699.89l-16.6201 -47.0508c7.21973 -5.26953 12.1699 -13.3896 12.1699 -22.5098c0 -14.7998 -12.5801 -27.4795 -27.4805 -27.4795c-14.8896 0 -27.4795 12.6699 -27.4795 27.4795c0 4.26953 1.12012 8.25977 3.08984 12.2402l26.9404 57.3203h29.3799z
M52.2402 169.009l-0.0107422 170.909c0 127.07 97.6904 168.99 193.131 168.99c49.3604 0 101.04 -11.1797 142.49 -34.4297l1.2998 26h50.6904v-536.48c0 -112 -72.6797 -162 -170.01 -162c-64.3896 0 -124.52 19 -176.39 52l25.8096 37
c40.5 -24.21 85.0098 -39.0498 135.14 -39.0498c74.04 0 121.26 27.29 122.529 107.05v68.7402c-36.75 -17.4404 -90.2197 -27.7402 -139.71 -27.7402c-99.0596 0.280273 -184.97 42.9004 -184.97 169.011zM376.92 74.1875l0.0107422 355.591
c-34.79 17.5996 -79.4297 28.0293 -123.42 28.0293c-77.8701 0 -138.07 -35.2197 -138.36 -116.95v-167.84c0 -93.6504 57.9902 -124.7 133.65 -124.7c47.8496 0 97.3691 11.9502 128.119 25.8701z" />
    <glyph glyph-name="gdotaccent" unicode="&#x121;" horiz-adv-x="509" 
d="M255.6 666.73c17.9297 0 32.3096 -14.3701 32.3096 -33.1504c0 -18.2197 -14.3799 -33.1602 -32.5898 -33.1602c-18.5 0 -33.4404 14.9404 -33.4404 33.1602c0 18.7803 14.9404 33.1504 33.7207 33.1504zM52.2295 169.011l-0.000976562 170.898
c0 127.08 97.6904 169 193.131 169c49.3604 0 101.04 -11.1797 142.49 -34.4395l1.2998 26h50.6904v-536.47c0 -112 -72.6904 -162 -170.011 -162c-64.3896 0 -124.52 19 -176.399 52l25.8096 37c40.5 -24.2197 85.0195 -39.0498 135.149 -39.0498
c74.04 0 121.25 27.29 122.53 107.04v68.75c-36.75 -17.4502 -90.2197 -27.75 -139.71 -27.75c-99.0596 0.290039 -184.979 42.9102 -184.979 169.021zM376.919 74.1787l0.00195312 355.59c-34.7803 17.6104 -79.4307 28.04 -123.411 28.04
c-77.8701 0 -138.08 -35.2305 -138.36 -116.961v-167.84c0 -93.6396 57.9902 -124.699 133.65 -124.699c47.8496 0 97.3594 11.96 128.119 25.8701z" />
    <glyph glyph-name="h" unicode="h" horiz-adv-x="526" 
d="M137.31 700l-0.0117188 -220.38c40.2402 20.1396 88.5703 29.75 134.391 29.75c95.5303 0 190.311 -41.2197 190.311 -169.67v-339.71h-62.9199v336.78c0 87.9102 -57.9902 122.55 -135.08 122.55c-44.9902 0 -90.9199 -11.2402 -126.689 -28.7305v-430.59h-62.9199v700
h62.9199z" />
    <glyph glyph-name="hbar" unicode="&#x127;" horiz-adv-x="542" 
d="M153.33 617.7h190.519v-37.25h-190.52v-100.67c40.2402 20.1396 88.5605 29.75 134.37 29.75c95.54 0 190.32 -41.2197 190.32 -169.67v-339.71h-62.9199v336.78c0 87.9102 -58 122.55 -135.09 122.55c-44.9805 0 -90.9102 -11.2402 -126.68 -28.7402v-430.59h-62.9199
v580.3h-74.6797v37.25h74.6797v82.4502h62.9199v-82.4502z" />
    <glyph glyph-name="i" unicode="i" horiz-adv-x="214" 
d="M110.09 709.57c20.79 0 34.7598 -13.9697 34.7598 -34.7598c0 -19.4004 -12.5098 -35.6904 -34.7598 -35.6904c-20.7803 0 -35.6904 14.9102 -35.6904 35.6904c0 22.25 16.29 34.7598 35.6904 34.7598zM141.08 0.0302734h-62.9199v500.94h62.9199v-500.94z" />
    <glyph glyph-name="dotlessi" unicode="&#x131;" horiz-adv-x="154" 
d="M109.56 0.0302734h-62.9199v500.94h62.9199v-500.94z" />
    <glyph glyph-name="iacute" unicode="&#xed;" horiz-adv-x="156" 
d="M75.6797 583.22h-45.3896l52.3496 116.78h66.9102zM109.56 0.0195312h-62.9199v500.94h62.9199v-500.94z" />
    <glyph glyph-name="icaron" unicode="&#x1d0;" horiz-adv-x="154" 
d="M113.21 574.64h-64.1211l-131.09 137.18h60l102.65 -106.33l99.9902 106.33h59.9199zM109.559 0.0195312h-62.9199v500.94h62.9199v-500.94z" />
    <glyph glyph-name="icircumflex" unicode="&#xee;" horiz-adv-x="154" 
d="M241.09 571.77h-59.9199l-99.9902 106.33l-103.18 -106.33h-60l131.62 137.18h64.1201zM109.56 0.0195312h-62.9199v500.94h62.9199v-500.94z" />
    <glyph glyph-name="idieresis" unicode="&#xef;" horiz-adv-x="154" 
d="M-8 666.74c18.1904 0 32.5703 -14.3799 32.5703 -33.1602c0 -18.21 -14.3799 -33.1602 -32.5703 -33.1602c-19 0 -34 14.9502 -34 33.1602c0 18.7803 15 33.1602 34 33.1602zM169.53 666.74c17.9297 0 32.3096 -14.3799 32.3096 -33.1602
c0 -18.21 -14.3799 -33.1602 -32.5898 -33.1602c-18.5 0 -33.4404 14.9502 -33.4404 33.1602c0 18.7803 14.9404 33.1602 33.7207 33.1602zM109.561 0.0302734h-62.9199v500.94h62.9199v-500.94z" />
    <glyph glyph-name="igrave" unicode="&#xec;" horiz-adv-x="154" 
d="M129.94 583.22h-45.3896l-73.7803 116.78h66.8203zM109.561 0.0195312h-62.9199v500.94h62.9199v-500.94z" />
    <glyph glyph-name="ij" unicode="&#x133;" horiz-adv-x="425" 
d="M320.98 709.6c20.79 0 34.7598 -13.9697 34.7598 -34.7598c0 -19.4004 -12.5098 -35.7002 -34.7598 -35.7002c-20.7803 0 -35.6904 14.9199 -35.6904 35.7002c0 22.25 16.29 34.7598 35.6904 34.7598zM110.091 709.569c20.79 0 34.7598 -13.9697 34.7598 -34.7598
c0 -19.4004 -12.5098 -35.6904 -34.7598 -35.6904c-20.7803 0 -35.6904 14.9102 -35.6904 35.6904c0 22.25 16.29 34.7598 35.6904 34.7598zM351.971 500.999l0.00878906 -561c0 -65 -37.3096 -111 -96.4092 -130c-13.9902 -5 -29.71 -9 -47.7295 -10l-2.15039 52
c16.5703 2 29.8604 6 40.75 11c35.4502 18 42.6104 54 42.6104 86v552h62.9199zM141.09 0.0292969h-62.9199v500.94h62.9199v-500.94z" />
    <glyph glyph-name="imacron" unicode="&#x12b;" horiz-adv-x="154" 
d="M194.87 609.5h-235.87v38.0098h235.87v-38.0098zM109.56 0.0302734h-62.9199v500.94h62.9199v-500.94z" />
    <glyph glyph-name="iogonek" unicode="&#x12f;" horiz-adv-x="154" 
d="M78.9297 666.74c17.9297 0 32.2998 -14.3799 32.2998 -33.1602c0 -18.21 -14.3701 -33.1602 -32.5898 -33.1602c-18.4902 0 -33.4404 14.9502 -33.4404 33.1602c0 18.7803 14.9502 33.1602 33.7305 33.1602zM109.56 499.54v-499.54
c-70.21 -54.46 -77.3496 -90.9697 -77.3496 -110.479c0 -38.9902 25.9199 -57.5205 57.25 -57.5205c31.0596 0 56.5898 16 75.4502 44l29.2598 -14c-24.9404 -40 -66.8809 -64 -114.681 -64c-42.4902 0 -93.4902 22 -93.4902 86c0 21 10 66 75.9004 112l-15.2598 4.03027
v499.51h62.9199z" />
    <glyph glyph-name="j" unicode="j" horiz-adv-x="211" 
d="M106.78 709.6c20.79 0 34.7598 -13.9697 34.7598 -34.7598c0 -19.4004 -12.5098 -35.7002 -34.7598 -35.7002c-20.7803 0 -35.6904 14.9199 -35.6904 35.7002c0 22.25 16.29 34.7598 35.6904 34.7598zM137.771 501l0.000976562 -561c0 -65 -37.3096 -111 -96.4092 -130
c-13.9805 -5 -29.7109 -9 -47.3613 -10l-3 52c17.0596 2 30.3496 6 41.2393 11c35.4502 18 42.6104 54 42.6104 86v552h62.9199z" />
    <glyph glyph-name="k" unicode="k" horiz-adv-x="499" 
d="M137.31 277.21l236.011 231.261h78.2402l-198.54 -202.28l226.56 -306.19h-71.7305l-193.13 262.55l-77.4102 -71.6699v-190.88h-62.9199v700h62.9199v-422.79z" />
    <glyph glyph-name="kcommaaccent" unicode="&#x137;" horiz-adv-x="499" 
d="M137.31 277.21l236.011 231.261h78.2402l-198.54 -202.28l226.56 -306.19h-71.7305l-193.13 262.55l-77.4102 -71.6699v-190.88h-62.9199v700h62.9199v-422.79zM223.99 -197.999l16.6211 47c-7.21973 6 -12.1699 14 -12.1699 23c0 15 12.5898 27 27.4795 27
s27.4795 -12 27.4795 -27c0 -4 -1.12012 -8 -3.08984 -12l-26.9404 -58h-29.3799z" />
    <glyph glyph-name="l" unicode="l" horiz-adv-x="201" 
d="M137.31 0h-62.9199v700h62.9199v-700z" />
    <glyph glyph-name="lacute" unicode="&#x13a;" horiz-adv-x="201" 
d="M131.02 782.49h-45.3799l52.3496 116.78h66.9102zM137.31 0h-62.9199v700h62.9199v-700z" />
    <glyph glyph-name="lcaron" unicode="&#x13e;" horiz-adv-x="290" 
d="M209.5 644.74l20.9893 61.1494c-9.34961 6.67969 -15.6494 17.75 -15.6494 29.96c0 20.4902 17.21 37.7002 37.7002 37.7002c20.4805 0 37.7002 -17.21 37.7002 -37.7002c0 -6.17969 -1.57031 -12.0596 -4.33008 -17.2598l-34.79 -73.8496h-41.6201zM137.299 -0h-62.9199
v700h62.9199v-700z" />
    <glyph glyph-name="lcommaaccent" unicode="&#x13c;" horiz-adv-x="201" 
d="M137.31 0h-62.9199v700h62.9199v-700zM74.5 -198l16.6211 47c-7.21973 6 -12.1699 14 -12.1699 23c0 15 12.5898 27 27.4795 27s27.4795 -12 27.4795 -27c0 -4 -1.12012 -8 -3.08984 -12l-26.9502 -58h-29.3701z" />
    <glyph glyph-name="ldot" unicode="&#x140;" horiz-adv-x="312" 
d="M137.31 0h-62.9199v700h62.9199v-700zM249.949 369.27c20.4902 0 37.7002 -17.21 37.7002 -37.7002c0 -20.4805 -17.21 -37.6807 -37.7002 -37.6807c-20.4805 0 -37.7607 17.2002 -37.7607 37.6807c0 20.4902 17.2803 37.7002 37.7607 37.7002z" />
    <glyph glyph-name="lslash" unicode="&#x142;" horiz-adv-x="356" 
d="M192.66 402.5l135.761 61.0605l24.5596 -52.1904l-160.32 -72.3301v-339.04h-65.1699v310.18l-102.86 -46.1201l-21.79 52.9404l124.65 55.8496v327.15h65.1699v-297.5z" />
    <glyph glyph-name="m" unicode="m" horiz-adv-x="776" 
d="M119.72 501l1.2793 -25.2793c43.7402 22.6396 92.04 33.6592 136.83 33.6592c58.0801 0 109.78 -18.3701 136.75 -52.79c52.6201 31.4297 98.8398 52.79 156.39 52.79c88.7998 0 160.72 -57.5498 160.72 -169.67v-339.71h-62.4297v334.63
c0 85.0498 -42.25 123.27 -107.76 123.27c-36.0996 0 -55.1797 -4.87988 -126.41 -39.0596c8.71973 -17.6797 9.16992 -61.4795 9.16992 -88.4395v-330.4h-62.4297v357.55c0 72.8701 -46.54 100.34 -111.33 100.34c-43.5098 0 -88.6797 -11.9502 -118.68 -27.2998v-430.59
h-62.4297v501h50.3301z" />
    <glyph glyph-name="n" unicode="n" horiz-adv-x="521" 
d="M120.09 501l1.29785 -25.999c43.1104 23.3604 95.1699 34.3799 143.75 34.3799c98.6699 0 191.87 -44.4199 191.87 -169.68v-339.7h-62.9199v336.77c0 87.2002 -59.4297 121.84 -137.239 121.84c-44.2695 0 -89.4795 -10.5303 -124.529 -28.0205v-430.59h-62.9199v501
h50.6904z" />
    <glyph glyph-name="nacute" unicode="&#x144;" horiz-adv-x="521" 
d="M263.47 583.22h-45.3799l52.3496 116.78h66.9102zM120.09 501l1.29785 -25.999c43.1104 23.3604 95.1699 34.3799 143.75 34.3799c98.6699 0 191.87 -44.4199 191.87 -169.68v-339.7h-62.9199v336.77c0 87.2002 -59.4297 121.84 -137.239 121.84
c-44.2695 0 -89.4795 -10.5303 -124.529 -28.0205v-430.59h-62.9199v501h50.6904z" />
    <glyph glyph-name="ncaron" unicode="&#x148;" horiz-adv-x="521" 
d="M297.38 574.64h-64.1201l-131.31 137.18h59.5898l103.28 -106.33l100 106.33h59.9199zM120.08 501l1.30859 -25.999c43.0996 23.3604 95.1592 34.3799 143.739 34.3799c98.6699 0 191.87 -44.4199 191.87 -169.68v-339.7h-62.9199v336.77
c0 87.2002 -59.4199 121.84 -137.229 121.84c-44.2695 0 -89.4893 -10.5303 -124.539 -28.0205v-430.59h-62.9199v501h50.6904z" />
    <glyph glyph-name="ncommaaccent" unicode="&#x146;" horiz-adv-x="521" 
d="M120.09 501l1.29785 -25.999c43.1104 23.3604 95.1699 34.3799 143.75 34.3799c98.6699 0 191.87 -44.4199 191.87 -169.68v-339.7h-62.9199v336.77c0 87.2002 -59.4297 121.84 -137.239 121.84c-44.2695 0 -89.4795 -10.5303 -124.529 -28.0205v-430.59h-62.9199v501
h50.6904zM227.168 -197.999l16.6211 47c-7.21973 6 -12.1699 14 -12.1699 23c0 15 12.5898 27 27.4795 27s27.4795 -12 27.4795 -27c0 -4 -1.12012 -8 -3.08984 -12l-26.9404 -58h-29.3799z" />
    <glyph glyph-name="eng" unicode="&#x14b;" horiz-adv-x="523" 
d="M120.09 501l1.29883 -26.0107c43.1104 23.3701 95.1699 34.3799 143.75 34.3799c98.6699 0 191.87 -44.4199 191.87 -169.67v-407.71c0 -64 -36.7002 -109 -93 -128c-14.6104 -6 -31.4199 -11 -51.1396 -12l-2.15039 52c17.4297 2 31.2695 6 42.46 12
c34.0596 19 40.9092 54 40.9092 85v395.78c0 87.2002 -59.4297 121.83 -137.239 121.83c-44.2695 0 -89.4795 -10.5195 -124.529 -28.0098v-430.59h-62.9199v501h50.6904z" />
    <glyph glyph-name="ntilde" unicode="&#xf1;" horiz-adv-x="521" 
d="M123.75 605.04l-24.6016 33.5195c25.0703 26.5 63.2803 53.9502 101.48 53.9502c51.4805 0 89.6006 -41.8301 134.61 -41.8301c25.9404 0 51.3008 19.2402 67.7812 36.4307l24.0596 -34.2305c-20.0596 -18.6201 -56.29 -43.2002 -90.9102 -43.2002
c-51.4902 0 -90.3105 40.4004 -136.971 40.4004c-27.8701 0 -54.6797 -21.4004 -75.4492 -45.04zM120.078 501l1.30859 -26.001c43.0996 23.3701 95.1592 34.3799 143.739 34.3799c98.6699 0 191.87 -44.4199 191.87 -169.67v-339.71h-62.9199v336.78
c0 87.1904 -59.4199 121.83 -137.229 121.83c-44.2695 0 -89.4893 -10.5195 -124.539 -28.0195v-430.59h-62.9199v501h50.6904z" />
    <glyph glyph-name="o" unicode="o" horiz-adv-x="495" 
d="M52.2305 187.92v124.27c0 126.95 69.1602 199.16 197.22 199.16c124.91 0 193.3 -78.3096 193.3 -199.159v-124.28c0 -99 -52.3896 -196.92 -193.84 -196.92c-140.55 0 -196.68 97.2695 -196.68 196.93zM379.83 187.92l0.0107422 124.28
c0 91.0098 -46.9404 146.319 -130.931 146.319c-88.2695 0 -133.76 -49.9404 -133.76 -146.33v-124.27c0 -76.0498 39.3496 -144.45 133.75 -144.45c94.0498 0 130.93 68.2598 130.93 144.45z" />
    <glyph glyph-name="oacute" unicode="&#xf3;" horiz-adv-x="495" 
d="M253.5 583.22h-45.3799l52.3496 116.78h66.9102zM52.2305 187.92v124.27c0 126.95 69.1602 199.16 197.22 199.16c124.91 0 193.3 -78.3096 193.3 -199.159v-124.28c0 -99 -52.3896 -196.92 -193.84 -196.92c-140.55 0 -196.68 97.2695 -196.68 196.93zM379.83 187.92
l0.0107422 124.28c0 91.0098 -46.9404 146.319 -130.931 146.319c-88.2695 0 -133.76 -49.9404 -133.76 -146.33v-124.27c0 -76.0498 39.3496 -144.45 133.75 -144.45c94.0498 0 130.93 68.2598 130.93 144.45z" />
    <glyph glyph-name="ocaron" unicode="&#x1d2;" horiz-adv-x="495" 
d="M282.24 574.64h-64.1211l-131.31 137.18h59.5801l103.29 -106.32l99.9902 106.32h59.9199zM52.2295 187.92v124.269c0 126.95 69.1602 199.16 197.22 199.16c124.91 0 193.3 -78.3096 193.3 -199.159v-124.27c0 -99 -52.3896 -196.92 -193.84 -196.92
c-140.55 0 -196.68 97.2695 -196.68 196.92zM379.829 187.919l0.0107422 124.282c0 91.0195 -46.9404 146.329 -130.931 146.329c-88.2695 0 -133.76 -49.9502 -133.76 -146.33v-124.28c0 -76.04 39.3496 -144.45 133.75 -144.45c94.0498 0 130.93 68.2695 130.93 144.449z
" />
    <glyph glyph-name="ocircumflex" unicode="&#xf4;" horiz-adv-x="495" 
d="M410.13 571.78h-59.9297l-99.9902 106.32l-103.29 -106.32h-59.5801l131.31 137.18h64.1201zM52.2305 187.92v124.269c0 126.95 69.1602 199.16 197.22 199.16c124.91 0 193.3 -78.3096 193.3 -199.159v-124.27c0 -99 -52.3896 -196.92 -193.84 -196.92
c-140.55 0 -196.68 97.2695 -196.68 196.92zM379.83 187.919l0.0107422 124.282c0 91.0195 -46.9404 146.329 -130.931 146.329c-88.2695 0 -133.76 -49.9502 -133.76 -146.33v-124.28c0 -76.04 39.3496 -144.45 133.75 -144.45c94.0498 0 130.93 68.2695 130.93 144.449z
" />
    <glyph glyph-name="odieresis" unicode="&#xf6;" horiz-adv-x="495" 
d="M161.65 666.74c17.9297 0 32.3096 -14.3799 32.3096 -33.1602c0 -18.21 -14.3799 -33.1602 -32.5898 -33.1602c-18.5 0 -33.4404 14.9502 -33.4404 33.1602c0 18.7803 14.9404 33.1602 33.7207 33.1602zM338.561 666.74c17.9297 0 32.3096 -14.3799 32.3096 -33.1602
c0 -18.21 -14.3799 -33.1602 -32.5898 -33.1602c-18.5 0 -33.4404 14.9502 -33.4404 33.1602c0 18.7803 14.9404 33.1602 33.7207 33.1602zM52.2305 187.92v124.269c0 126.95 69.1602 199.16 197.22 199.16c124.91 0 193.3 -78.3096 193.3 -199.159v-124.27
c0 -99 -52.3896 -196.92 -193.84 -196.92c-140.55 0 -196.68 97.2695 -196.68 196.92zM379.83 187.919l0.0107422 124.282c0 91.0195 -46.9404 146.329 -130.931 146.329c-88.2695 0 -133.76 -49.9502 -133.76 -146.33v-124.28c0 -76.04 39.3496 -144.45 133.75 -144.45
c94.0498 0 130.93 68.2695 130.93 144.449z" />
    <glyph glyph-name="ograve" unicode="&#xf2;" horiz-adv-x="495" 
d="M305.46 583.22h-45.3799l-73.8301 116.78h66.8604zM52.2305 187.92v124.27c0 126.95 69.1602 199.16 197.22 199.16c124.91 0 193.3 -78.3096 193.3 -199.159v-124.28c0 -99 -52.3896 -196.92 -193.84 -196.92c-140.55 0 -196.68 97.2695 -196.68 196.93zM379.83 187.92
l0.0107422 124.28c0 91.0098 -46.9404 146.319 -130.931 146.319c-88.2695 0 -133.76 -49.9404 -133.76 -146.33v-124.27c0 -76.0498 39.3496 -144.45 133.75 -144.45c94.0498 0 130.93 68.2598 130.93 144.45z" />
    <glyph glyph-name="ohungarumlaut" unicode="&#x151;" horiz-adv-x="495" 
d="M198.75 582.65h-43.1895l49.7803 117.35h63.3896zM320.601 582.65h-43.1895l49.7803 117.35h63.3896zM52.2314 187.92v124.27c0 126.95 69.1602 199.16 197.22 199.16c124.91 0 193.3 -78.3096 193.3 -199.159v-124.28c0 -99 -52.3896 -196.92 -193.84 -196.92
c-140.55 0 -196.68 97.2695 -196.68 196.93zM379.831 187.92l0.0107422 124.28c0 91.0098 -46.9404 146.319 -130.931 146.319c-88.2695 0 -133.76 -49.9404 -133.76 -146.33v-124.27c0 -76.0498 39.3496 -144.45 133.75 -144.45c94.0498 0 130.93 68.2598 130.93 144.45z
" />
    <glyph glyph-name="omacron" unicode="&#x14d;" horiz-adv-x="495" 
d="M365.56 609.5h-235.41v38.0098h235.41v-38.0098zM52.2295 187.92v124.269c0 126.95 69.1602 199.16 197.22 199.16c124.91 0 193.3 -78.3096 193.3 -199.159v-124.27c0 -99 -52.3896 -196.92 -193.84 -196.92c-140.55 0 -196.68 97.2695 -196.68 196.92zM379.829 187.919
l0.0107422 124.282c0 91.0195 -46.9404 146.329 -130.931 146.329c-88.2695 0 -133.76 -49.9502 -133.76 -146.33v-124.28c0 -76.04 39.3496 -144.45 133.75 -144.45c94.0498 0 130.93 68.2695 130.93 144.449z" />
    <glyph glyph-name="oslash" unicode="&#xf8;" horiz-adv-x="495" 
d="M374.76 551l-21.9219 -63.1895c58.7305 -31.79 89.9209 -94 89.9209 -175.62v-124.27c0 -99 -52.4004 -196.92 -193.851 -196.92c-24.3301 0 -46.1396 2.91016 -65.5596 8.25l-17.0898 -49.25h-46.0303l22.7305 65.5098
c-63.6396 35.1201 -90.7197 103.19 -90.7197 172.41v124.27c0 126.95 69.1602 199.16 197.21 199.16c22.8799 0 43.8604 -2.62012 62.8701 -7.66016l16.4102 47.3096h46.0303zM115.158 312.19l-0.00976562 -124.27c0 -46.2402 14.5498 -89.6504 47.1797 -116.58
l132.11 380.81c-13.6699 4.2002 -28.8701 6.37012 -45.5303 6.37012c-88.2695 0 -133.75 -49.9404 -133.75 -146.33zM379.839 187.921l-0.00976562 124.26c0 53.4199 -16.1602 94.54 -46.5 119.4l-132.23 -381.17c14.0303 -4.49023 29.9307 -6.94043 47.8105 -6.94043
c94.04 0 130.93 68.2598 130.93 144.45z" />
    <glyph glyph-name="otilde" unicode="&#xf5;" horiz-adv-x="495" 
d="M108.6 605.04l-24.5889 33.5195c25.0703 26.5 63.2803 53.9502 101.48 53.9502c51.4805 0 89.5908 -41.8301 134.61 -41.8301c25.9297 0 51.2998 19.2402 67.7695 36.4307l24.0596 -34.2305c-20.0498 -18.6201 -56.29 -43.2002 -90.9102 -43.2002
c-51.4805 0 -90.3008 40.4004 -136.971 40.4004c-27.8701 0 -54.6699 -21.4004 -75.4502 -45.04zM52.2412 187.92v124.269c0 126.95 69.1602 199.16 197.21 199.16c124.91 0 193.311 -78.3096 193.311 -199.159v-124.27c0 -99 -52.4004 -196.92 -193.851 -196.92
c-140.54 0 -196.67 97.2695 -196.67 196.92zM379.841 187.919v124.282c0 91.0195 -46.9297 146.329 -130.93 146.329c-88.2695 0 -133.75 -49.9502 -133.75 -146.33v-124.28c0 -76.04 39.3398 -144.45 133.75 -144.45c94.04 0 130.93 68.2695 130.93 144.449z" />
    <glyph glyph-name="oe" unicode="&#x153;" horiz-adv-x="805" 
d="M52.2305 187.35l-0.0107422 124.281c0 126 68.1396 199.16 196.68 199.16c90.79 0 143.49 -42.54 160.681 -95.5498c15.7598 53.7197 71.9102 94.1201 164.061 94.1201c121.67 0 183.99 -69.54 183.99 -179.11v-101.41h-316.4v-84.3604
c0 -72.4805 52.9404 -107.2 121.421 -107.2c43.6396 0 93.6797 14.75 137.63 42.1396l33.8896 -32.3398c-43.7197 -35.6699 -101.13 -58.0801 -177 -58.0801c-86.5801 0 -139.61 35.3301 -150.36 89.0498c-17.1904 -43.6904 -64.5303 -88.0508 -157.9 -88.0508
c-140.55 0 -196.68 97.7002 -196.68 197.351zM379.819 182.341v129.291c0 91.0098 -46.9404 146.319 -130.931 146.319c-88.2695 0 -133.75 -49.9404 -133.75 -146.32v-124.27c0 -76.0498 39.3496 -144.45 133.75 -144.45c91.9004 0 130.931 68.2598 130.931 139.43z
M698.109 272.521v59.8701c0 96.0303 -64.1299 125.55 -125.2 125.55c-66.0596 0 -130.17 -32.75 -130.17 -127.7v-57.7197h255.37z" />
    <glyph glyph-name="p" unicode="p" horiz-adv-x="514" 
d="M125.09 500.28l1.29688 -26.0098c41.4502 23.2598 93.1299 34.4395 142.49 34.4395c98.1904 0 193.131 -43.3799 193.131 -168.99v-177c0 -130.76 -92.2695 -171.72 -186.409 -171.72c-48.0596 0 -100.1 12.2998 -138.279 28.2197v-221.22h-62.9199v702.28h50.6904z
M399.087 166.36l0.0107422 174.29c-0.290039 81.7305 -60.4902 116.961 -138.36 116.961c-43.9902 0 -88.6299 -10.4297 -123.42 -28.04v-362.04c30.75 -13.9102 80.2695 -25.8701 128.119 -25.8701c75.6602 0 133.65 31.0596 133.65 124.699z" />
    <glyph glyph-name="thorn" unicode="&#xfe;" horiz-adv-x="529" 
d="M140.89 699.45l0.00195312 -219.04c38.1797 16.0195 90.2197 28.46 138.279 28.46c94.1396 -0.280273 186.409 -41.1104 186.409 -171.87v-175.71c0 -128.95 -96.1299 -169.3 -189.99 -169.3c-45.9102 0 -94.3604 9.15039 -134.7 29.3701v-196.36h-62.9199v874.45
h62.9199zM402.661 164.12l0.000976562 169.13c0 93.6504 -57.9902 124.7 -133.65 124.7c-47.8496 0 -97.3691 -11.9502 -128.119 -25.8701v-361.78c35.0498 -17.4902 80.2598 -28.0098 124.529 -28.0098c77.8096 0 137.239 34.6299 137.239 121.83z" />
    <glyph glyph-name="q" unicode="q" horiz-adv-x="509" 
d="M52.2305 162.73l-0.00292969 177.1c0 127.07 97.6904 168.99 193.131 168.99c49.3604 0 101.04 -11.1797 142.49 -34.4297l1.2998 26h50.6904v-702.38h-62.9199v221.31c-38.1797 -16.0195 -90.2197 -28.3193 -138.279 -28.3193
c-94.1396 0 -186.409 40.96 -186.409 171.729zM376.918 67.6504l0.0107422 362.051c-34.79 17.5996 -79.4297 28.0293 -123.42 28.0293c-77.8701 0 -138.07 -35.2305 -138.36 -116.961v-174.29c0 -93.6396 57.9902 -124.699 133.65 -124.699
c47.8496 0 97.3691 11.96 128.119 25.8701z" />
    <glyph glyph-name="r" unicode="r" horiz-adv-x="352" 
d="M120.09 504.12l2.19922 -72.6895c30.4199 54.7402 81.0898 79.3799 152.8 79.3799c20.54 0 39.7402 -1.86035 57.3604 -6.95996l-3.58008 -52.8301c-23.3701 5.87012 -45.8203 8.87988 -66.3506 6.99023c-84.4297 -2.19043 -130.239 -52.4805 -130.239 -146.461v-311.55
h-62.8799v504.12h50.6904z" />
    <glyph glyph-name="racute" unicode="&#x155;" horiz-adv-x="352" 
d="M176.54 583.22h-45.3896l52.3496 116.78h66.9102zM120.091 504.12l2.19922 -72.6895c30.4199 54.7402 81.0898 79.3799 152.8 79.3799c20.54 0 39.7402 -1.86035 57.3604 -6.95996l-3.58008 -52.8301c-23.3701 5.87012 -45.8203 8.87988 -66.3506 6.99023
c-84.4297 -2.19043 -130.239 -52.4805 -130.239 -146.461v-311.55h-62.8799v504.12h50.6904z" />
    <glyph glyph-name="rcaron" unicode="&#x159;" horiz-adv-x="352" 
d="M210.45 574.64h-64.1211l-131.31 137.18h59.5801l103.29 -106.33l99.9902 106.33h59.9199zM120.079 504.12l2.20996 -72.6895c30.4199 54.7402 81.0898 79.3799 152.8 79.3799c20.54 0 39.7402 -1.86035 57.3604 -6.95996l-3.58008 -52.8301
c-23.3799 5.87012 -45.8203 8.87988 -66.3506 6.99023c-84.4404 -2.19043 -130.25 -52.4805 -130.25 -146.461v-311.55h-62.8799v504.12h50.6904z" />
    <glyph glyph-name="rcommaaccent" unicode="&#x157;" horiz-adv-x="352" 
d="M120.09 504.12l2.19922 -72.6895c30.4199 54.7402 81.0898 79.3799 152.8 79.3799c20.54 0 39.7402 -1.86035 57.3604 -6.95996l-3.58008 -52.8301c-23.3701 5.87012 -45.8203 8.87988 -66.3506 6.99023c-84.4297 -2.19043 -130.239 -52.4805 -130.239 -146.461v-311.55
h-62.8799v504.12h50.6904zM67.5391 -197.999l16.6211 47c-7.21973 6 -12.1699 14 -12.1699 23c0 15 12.5898 27 27.4795 27s27.4795 -12 27.4795 -27c0 -4 -1.12012 -8 -3.08984 -12l-26.9502 -58h-29.3701z" />
    <glyph glyph-name="s" unicode="s" horiz-adv-x="456" 
d="M40.0703 133.31l61.5293 -0.0117188c4.49023 -48.4297 41.8398 -93.7393 127.17 -93.7393c73.8496 0 120.29 40.2402 120.29 93.1299c0 63.8701 -63.2305 82.5 -133.41 102.53c-83 22.2402 -161.83 47.8701 -161.83 136.601c0 71.8799 48.5801 140.25 174.521 140.25
c124.75 0 174.03 -67.7803 174.03 -140.45h-60.8096c0.0400391 40.2998 -29.96 87.5898 -112.95 87.5898s-113.01 -47.29 -112.95 -87.5898c0.0800781 -49.2998 53.9502 -69.0596 122.61 -88.0293c95.04 -24.4502 174.2 -56.6699 174.2 -151
c0 -78.5303 -60.8701 -145.59 -179.67 -145.59c-127.65 0 -189.15 66.71 -192.73 146.31z" />
    <glyph glyph-name="sacute" unicode="&#x15b;" horiz-adv-x="456" 
d="M228.86 583.22h-45.3799l52.3496 116.78h66.9102zM40.0703 133.3l61.5293 -0.0117188c4.49023 -48.4297 41.8398 -93.7393 127.17 -93.7393c73.8496 0 120.29 40.25 120.29 93.1299c0 63.8799 -63.2305 82.5 -133.41 102.53c-83 22.2402 -161.83 47.8799 -161.83 136.61
c0 71.8701 48.5801 140.24 174.521 140.24c124.75 0 174.03 -67.7695 174.03 -140.439h-60.8096c0.0400391 40.2998 -29.96 87.5898 -112.95 87.5898s-113.01 -47.29 -112.95 -87.5898c0.0800781 -49.2998 53.9502 -69.0596 122.61 -88.04
c95.04 -24.4502 174.2 -56.6602 174.2 -151c0 -78.5303 -60.8701 -145.59 -179.67 -145.59c-127.65 0 -189.15 66.71 -192.73 146.31z" />
    <glyph glyph-name="scaron" unicode="&#x161;" horiz-adv-x="456" 
d="M262.78 574.64h-64.1201l-131.31 137.18h59.5801l103.29 -106.33l99.9902 106.33h59.9297zM40.0703 133.3l61.5293 -0.0117188c4.49023 -48.4297 41.8398 -93.7393 127.17 -93.7393c73.8496 0 120.29 40.25 120.29 93.1299c0 63.8799 -63.2305 82.5 -133.41 102.53
c-83 22.2402 -161.83 47.8799 -161.83 136.61c0 71.8701 48.5801 140.24 174.521 140.24c124.75 0 174.03 -67.7695 174.03 -140.439h-60.8096c0.0400391 40.2998 -29.96 87.5898 -112.95 87.5898s-113.01 -47.29 -112.95 -87.5898
c0.0800781 -49.2998 53.9502 -69.0596 122.61 -88.04c95.04 -24.4502 174.2 -56.6602 174.2 -151c0 -78.5303 -60.8701 -145.59 -179.67 -145.59c-127.65 0 -189.15 66.71 -192.73 146.31z" />
    <glyph glyph-name="scedilla" unicode="&#x15f;" horiz-adv-x="456" 
d="M40.0703 133.31l61.5508 -0.0126953c4.49023 -48.4297 41.8398 -93.7393 127.17 -93.7393c73.8496 0 120.29 40.2402 120.29 93.1299c0 63.8701 -63.2305 82.5 -133.41 102.53c-83 22.2402 -161.83 47.8701 -161.83 136.601c0 71.8799 48.5801 140.25 174.521 140.25
c124.75 0 174.03 -67.7803 174.03 -140.45h-60.8096c0.0400391 40.2998 -29.96 87.5898 -112.95 87.5898s-113.01 -47.29 -112.95 -87.5898c0.0800781 -49.2998 53.9502 -69.0596 122.61 -88.0293c95.04 -24.4502 174.19 -56.6699 174.19 -151
c0 -63.5596 -41.3301 -118.27 -117.17 -136.59c-16.5303 -6 -35.3398 -8 -57.79 -9l-27.8398 -38c12.8604 5.24023 27.6104 8.19043 42.4502 8.19043c46.7002 0 91.4697 -23.6299 91.4697 -80.1895c0 -73 -67.3896 -94 -127.97 -94c-37.3799 0 -72.96 12 -103 23l14.5596 33
c28.5596 -16 61.0293 -22 84.6289 -23c43.6602 0 85.8301 18 85.8301 59c0 32 -24.3203 49 -58.0703 49c-17.2305 0 -40.3701 -4 -74.3506 -19l-13.4697 15l50.0898 69c-107.18 9 -158.41 72.0098 -161.78 144.31z" />
    <glyph glyph-name="scommaaccent" unicode="&#x219;" horiz-adv-x="456" 
d="M40.0703 133.31l61.5186 -0.0107422c4.5 -48.4297 41.8496 -93.7393 127.18 -93.7393c73.8398 0 120.28 40.25 120.28 93.1396c0 63.5596 -62.5996 82.29 -132.47 102.23c-83.3096 22.3398 -162.76 47.8594 -162.76 136.89c0 71.8799 48.5801 140.25 174.521 140.25
c124.75 0 174.03 -67.7803 174.03 -140.45h-60.8096c0.0400391 40.2998 -29.96 87.5898 -112.95 87.5898s-113.01 -47.29 -112.95 -87.5898c0.0800781 -49.2998 53.9502 -69.0596 122.61 -88.0293c95.04 -24.4502 174.2 -56.6699 174.2 -151
c0 -78.5303 -60.8701 -145.59 -179.67 -145.59c-127.65 0 -189.15 66.71 -192.73 146.31zM196.749 -198.011l16.6113 47c-7.21973 6 -12.1699 14 -12.1699 23c0 15 12.5898 27 27.4795 27s27.4795 -12 27.4795 -27c0 -4 -1.12012 -8 -3.08008 -12l-26.9502 -58h-29.3701z
" />
    <glyph glyph-name="germandbls" unicode="&#xdf;" horiz-adv-x="570" 
d="M85.8096 0l0.00976562 525.052c0 109.95 71.8203 184.17 200.971 184.17c132.21 0 198.03 -71.3398 198.03 -172.96c0 -77.3301 -48.0801 -123.98 -91.0605 -140.461c58.0195 -17.9102 126.6 -80.5605 126.6 -181.74c0 -117.19 -87.8604 -214.061 -216.341 -214.061
h-101.64v59h101.64c88.1201 0 151.19 62.4902 151.19 154.83c0 88.8496 -69.3496 150.77 -147.43 152.76l-10.1299 0.0595703v57.5303l9.74023 0.0595703c56.7998 1.7002 112.28 45.7998 112.28 115.21c0 76.4102 -48.8398 110.771 -133.31 110.771
c-90.0303 0 -135.4 -52.5098 -135.4 -122.229v-527.99h-65.1504z" />
    <glyph glyph-name="t" unicode="t" horiz-adv-x="342" 
d="M135.89 501l132.27 0.000976562v-52.8301h-132.27v-249.72c0 -80.5098 32.4404 -130.729 94.6602 -148.88c19.5996 -5.69043 42.6895 -8.06055 69.6797 -6.89062v-52.6797c-26.6797 -1 -52.54 1 -76.6602 6c-85.6797 17.6396 -150.6 76.6592 -150.6 193.129v433.22
h62.9199v-121.35z" />
    <glyph glyph-name="tbar" unicode="&#x167;" horiz-adv-x="342" 
d="M135.9 501h132.259v-52.8301h-132.27v-99.6797h132.27v-45.4502h-132.27v-104.58c0 -78.4004 30.5195 -128.16 89.9199 -147.4c20.79 -6.67969 45.4902 -9.5498 74.4199 -8.37988v-52.6797c-28.96 -1 -56.7295 1 -82.2695 8
c-82.3496 18.6797 -144.979 77.1797 -144.979 191.14v433.07h62.9199v-121.21z" />
    <glyph glyph-name="tcaron" unicode="&#x165;" horiz-adv-x="342" 
d="M208.08 644.74l20.999 61.1494c-9.34961 6.67969 -15.6494 17.75 -15.6494 29.96c0 20.4902 17.2197 37.7002 37.7002 37.7002s37.7002 -17.21 37.7002 -37.7002c0 -6.17969 -1.57031 -12.0596 -4.33008 -17.2598l-34.79 -73.8496h-41.6299zM135.889 501
l132.27 0.000976562v-52.8301h-132.27v-249.72c0 -80.5098 32.4404 -130.729 94.6602 -148.88c19.5996 -5.69043 42.6895 -8.06055 69.6797 -6.89062v-52.6797c-26.6797 -1 -52.54 1 -76.6602 6c-85.6797 17.6396 -150.6 76.6592 -150.6 193.129v433.22h62.9199v-121.35z
" />
    <glyph glyph-name="tcedilla" unicode="&#x163;" horiz-adv-x="342" 
d="M135.9 501l132.28 -0.00976562v-52.8301h-132.27v-249.71c0 -80.5195 32.4404 -130.739 94.6602 -148.879c19.5996 -5.69043 42.6895 -8.06055 69.6797 -6.89062v-52.6904c-26.6797 -1 -52.54 1 -76.6602 6c-13.8096 3 -26.96 7.16992 -39.3096 12.5303
l-30.1396 -41.5303c12.8799 5.24023 27.6494 8.19043 42.499 8.19043c46.7305 0 91.4209 -23.6201 91.4209 -80.1904c0 -73 -67.3896 -94 -127.97 -94c-37.3799 0 -72.96 12 -103 24l14.5596 32c29.9199 -16.7598 64.1201 -22.04 88.0605 -22.04
c42.4102 0 82.4004 18.1201 82.4004 58.04c0 32 -24.3301 50 -58.0801 50c-17.2305 0 -40.3604 -4 -74.3408 -20l-13.4805 15l59.5596 81.9297c-50.7402 30.9697 -82.79 85.96 -82.79 169.21v433.22h62.9199v-121.35z" />
    <glyph glyph-name="uni021B" unicode="&#x21b;" horiz-adv-x="342" 
d="M135.89 501h132.27v-52.8301h-132.27v-249.71c0 -80.5195 32.4404 -130.739 94.6602 -148.879c19.5996 -5.69043 42.6895 -8.06055 69.6797 -6.89062v-52.6904c-26.6797 -1 -52.54 1 -76.6602 6c-85.6797 17.6504 -150.6 76.6602 -150.6 193.141v433.22h62.9199v-121.36z
M149.439 -198l16.6211 47c-7.21973 6 -12.1699 14 -12.1699 23c0 15 12.5898 27 27.4795 27s27.4795 -12 27.4795 -27c0 -4 -1.12012 -8 -3.08984 -12l-26.9404 -58h-29.3799z" />
    <glyph glyph-name="u" unicode="u" 
d="M452 0l-50.6895 0.000976562l-1.2998 26c-42.79 -23.2002 -94.3896 -34 -143.199 -34c-98.8701 0 -192.41 43.7998 -192.41 169.29v339.71h62.9199v-336.78c0 -87.1904 59.4199 -121.83 137.229 -121.83c44.2695 0 89.4795 10.5195 124.529 28.0195v430.59h62.9199v-501z
" />
    <glyph glyph-name="uacute" unicode="&#xfa;" 
d="M260.05 583.22h-45.3799l52.3496 116.78h66.9102zM452 -0l-50.6895 0.000976562l-1.2998 26c-42.79 -23.2002 -94.3896 -34 -143.199 -34c-98.8701 0 -192.41 43.7998 -192.41 169.29v339.71h62.9199v-336.78c0 -87.1904 59.4199 -121.83 137.229 -121.83
c44.2695 0 89.4795 10.5195 124.529 28.0195v430.59h62.9199v-501z" />
    <glyph glyph-name="ucaron" unicode="&#x1d4;" 
d="M293.97 574.64h-64.1211l-131.31 137.18h59.5801l103.29 -106.32l99.9902 106.32h59.9199zM451.999 -0l-50.6895 -0.000976562l-1.2998 26c-42.79 -23.1904 -94.3896 -34 -143.199 -34c-98.8701 0 -192.41 43.8096 -192.41 169.3v339.7h62.9199v-336.77
c0 -87.2002 59.4199 -121.84 137.229 -121.84c44.2695 0 89.4795 10.5303 124.529 28.0205v430.59h62.9199v-501z" />
    <glyph glyph-name="ucircumflex" unicode="&#xfb;" 
d="M421.85 571.78h-59.9199l-100 106.32l-103.28 -106.32h-59.5898l131.31 137.18h64.1201zM452 0l-50.6982 -0.000976562l-1.2998 26c-42.7803 -23.1904 -94.3906 -34 -143.19 -34c-98.8701 0 -192.42 43.8096 -192.42 169.3v339.7h62.9199v-336.77
c0 -87.2002 59.4297 -121.84 137.229 -121.84c44.2695 0 89.4893 10.5303 124.539 28.0205v430.59h62.9199v-501z" />
    <glyph glyph-name="udieresis" unicode="&#xfc;" 
d="M173.38 666.74c17.9297 0 32.3096 -14.3799 32.3096 -33.1602c0 -18.21 -14.3799 -33.1602 -32.5898 -33.1602c-18.5 0 -33.4404 14.9502 -33.4404 33.1602c0 18.7803 14.9404 33.1602 33.7207 33.1602zM350.29 666.74c17.9297 0 32.3096 -14.3799 32.3096 -33.1602
c0 -18.21 -14.3799 -33.1602 -32.5898 -33.1602c-18.5 0 -33.4404 14.9502 -33.4404 33.1602c0 18.7803 14.9404 33.1602 33.7207 33.1602zM452 0l-50.6895 0.000976562l-1.2998 26c-42.79 -23.2002 -94.3896 -34 -143.199 -34c-98.8701 0 -192.41 43.7998 -192.41 169.29
v339.71h62.9199v-336.78c0 -87.1904 59.4199 -121.83 137.229 -121.83c44.2695 0 89.4795 10.5195 124.529 28.0195v430.59h62.9199v-501z" />
    <glyph glyph-name="udieresisacute" unicode="&#x1d8;" 
d="M270.8 725.88h-45.3896l52.3496 116.77h66.9102zM173.38 666.729c17.9297 0 32.3096 -14.3701 32.3096 -33.1504c0 -18.2197 -14.3799 -33.1602 -32.5898 -33.1602c-18.5 0 -33.4404 14.9404 -33.4404 33.1602c0 18.7803 14.9404 33.1504 33.7207 33.1504z
M350.29 666.729c17.9297 0 32.3096 -14.3701 32.3096 -33.1504c0 -18.2197 -14.3799 -33.1602 -32.5898 -33.1602c-18.5 0 -33.4404 14.9404 -33.4404 33.1602c0 18.7803 14.9404 33.1504 33.7207 33.1504zM452 -0.0107422l-50.6895 -0.000976562l-1.2998 26
c-42.79 -23.1904 -94.3896 -34 -143.199 -34c-98.8701 0 -192.41 43.8096 -192.41 169.3v339.7h62.9199v-336.77c0 -87.2002 59.4199 -121.84 137.229 -121.84c44.2695 0 89.4795 10.5303 124.529 28.0205v430.59h62.9199v-501z" />
    <glyph glyph-name="udieresiscaron" unicode="&#x1da;" 
d="M293.97 710.5h-64.1211l-131.31 137.18h59.5801l103.29 -106.33l99.9902 106.33h59.9199zM173.379 666.74c17.9297 0 32.3096 -14.3799 32.3096 -33.1602c0 -18.21 -14.3799 -33.1602 -32.5898 -33.1602c-18.5 0 -33.4404 14.9502 -33.4404 33.1602
c0 18.7803 14.9404 33.1602 33.7207 33.1602zM350.289 666.74c17.9297 0 32.3096 -14.3799 32.3096 -33.1602c0 -18.21 -14.3799 -33.1602 -32.5898 -33.1602c-18.5 0 -33.4404 14.9502 -33.4404 33.1602c0 18.7803 14.9404 33.1602 33.7207 33.1602zM451.999 0
l-50.6895 0.000976562l-1.2998 26c-42.79 -23.2002 -94.3896 -34 -143.199 -34c-98.8701 0 -192.41 43.7998 -192.41 169.29v339.71h62.9199v-336.78c0 -87.1904 59.4199 -121.83 137.229 -121.83c44.2695 0 89.4795 10.5195 124.529 28.0195v430.59h62.9199v-501z" />
    <glyph glyph-name="udieresisgrave" unicode="&#x1dc;" 
d="M307.22 726.39h-45.3896l-73.8701 116.78h66.9102zM170.26 667.87c17.9297 0 32.2998 -14.3799 32.2998 -33.1602c0 -18.21 -14.3701 -33.1602 -32.5898 -33.1602c-18.4902 0 -33.4404 14.9502 -33.4404 33.1602c0 18.7803 14.9502 33.1602 33.7305 33.1602z
M347.17 667.87c17.9297 0 32.2998 -14.3799 32.2998 -33.1602c0 -18.21 -14.3701 -33.1602 -32.5898 -33.1602c-18.4902 0 -33.4404 14.9502 -33.4404 33.1602c0 18.7803 14.9502 33.1602 33.7305 33.1602zM452 -0.00976562l-50.6982 -0.000976562l-1.2998 26
c-42.7803 -23.1904 -94.3906 -34 -143.19 -34c-98.8701 0 -192.42 43.8096 -192.42 169.3v339.7h62.9199v-336.77c0 -87.2002 59.4297 -121.84 137.229 -121.84c44.2695 0 89.4893 10.5303 124.539 28.0205v430.59h62.9199v-501z" />
    <glyph glyph-name="udieresismacron" unicode="&#x1d6;" 
d="M376.94 725.83h-235.41v38h235.41v-38zM170.261 667.87c17.9297 0 32.3096 -14.3701 32.3096 -33.1504c0 -18.2197 -14.3799 -33.1602 -32.5898 -33.1602c-18.5 0 -33.4404 14.9404 -33.4404 33.1602c0 18.7803 14.9404 33.1504 33.7207 33.1504zM347.171 667.87
c17.9297 0 32.3096 -14.3701 32.3096 -33.1504c0 -18.2197 -14.3799 -33.1602 -32.5898 -33.1602c-18.5 0 -33.4404 14.9404 -33.4404 33.1602c0 18.7803 14.9404 33.1504 33.7207 33.1504zM452.001 0l-50.6895 0.000976562l-1.2998 26
c-42.79 -23.2002 -94.3896 -34 -143.199 -34c-98.8701 0 -192.41 43.7998 -192.41 169.29v339.71h62.9199v-336.78c0 -87.1904 59.4199 -121.83 137.229 -121.83c44.2695 0 89.4795 10.5195 124.529 28.0195v430.59h62.9199v-501z" />
    <glyph glyph-name="ugrave" unicode="&#xf9;" 
d="M317.19 583.22h-45.3799l-73.8301 116.78h66.8604zM452.001 -0l-50.6895 0.000976562l-1.2998 26c-42.79 -23.2002 -94.3896 -34 -143.199 -34c-98.8701 0 -192.41 43.7998 -192.41 169.29v339.71h62.9199v-336.78c0 -87.1904 59.4199 -121.83 137.229 -121.83
c44.2695 0 89.4795 10.5195 124.529 28.0195v430.59h62.9199v-501z" />
    <glyph glyph-name="uhungarumlaut" unicode="&#x171;" 
d="M210.21 582.65h-43.1895l49.7803 117.35h63.3896zM332.061 582.65h-43.1895l49.7803 117.35h63.3896zM452.001 0l-50.6895 0.000976562l-1.2998 26c-42.79 -23.2002 -94.3896 -34 -143.199 -34c-98.8701 0 -192.41 43.7998 -192.41 169.29v339.71h62.9199v-336.78
c0 -87.1904 59.4199 -121.83 137.229 -121.83c44.2695 0 89.4795 10.5195 124.529 28.0195v430.59h62.9199v-501z" />
    <glyph glyph-name="umacron" unicode="&#x16b;" 
d="M376.26 609.5h-235.41v38.0098h235.41v-38.0098zM452 0l-50.6895 0.000976562l-1.2998 26c-42.79 -23.2002 -94.3896 -34 -143.199 -34c-98.8701 0 -192.41 43.7998 -192.41 169.29v339.71h62.9199v-336.78c0 -87.1904 59.4199 -121.83 137.229 -121.83
c44.2695 0 89.4795 10.5195 124.529 28.0195v430.59h62.9199v-501z" />
    <glyph glyph-name="uogonek" unicode="&#x173;" 
d="M452 -2l-15.9883 -3.99805c-58.9697 -49.3203 -65.9502 -85.9707 -65.9502 -105.48c0 -40.04 27.2598 -56.5703 59.8799 -56.5703c29.8301 0 54.4102 15.8701 72.71 43.0498l29.2598 -13c-24.9502 -41 -66.9004 -65 -114.67 -65c-42.4902 0 -93.1201 23 -93.1201 86
c0 22 7.17969 66 77.1895 115l-1.2998 28c-42.79 -23.2002 -94.3896 -34 -143.199 -34c-98.8701 0 -192.41 43.7998 -192.41 169.29v339.71h62.9199v-336.78c0 -87.1904 59.4199 -121.83 137.229 -121.83c44.2695 0 89.4795 10.5195 124.529 28.0195v430.59h62.9199v-503z
" />
    <glyph glyph-name="uring" unicode="&#x16f;" 
d="M259.68 750.61c62.2998 0 115.93 -52.9609 115.93 -115.791c0 -62.1797 -53.2695 -115.779 -115.93 -115.779c-62.6699 0 -115.92 53.9199 -115.92 115.78c0 62.5098 53.5996 115.79 115.92 115.79zM259.68 712.93c-44.1797 0 -78.6895 -34.2803 -78.6895 -78.1104
c0 -44.0098 34.5898 -78.8193 78.6895 -78.8193c43.3799 0 77.9697 34.8096 77.9697 78.8193c0 43.8301 -34.5098 78.1104 -77.9697 78.1104zM452 -0l-50.6982 0.000976562l-1.2998 26c-42.7803 -23.2002 -94.3906 -34 -143.19 -34
c-98.8701 0 -192.42 43.7998 -192.42 169.29v339.71h62.9199v-336.78c0 -87.1904 59.4297 -121.83 137.229 -121.83c44.2695 0 89.4893 10.5195 124.539 28.0195v430.59h62.9199v-501z" />
    <glyph glyph-name="v" unicode="v" horiz-adv-x="459" 
d="M263.09 0.0302734h-67.1494l-176.61 500.94h63.8604l145.97 -423.66l146.68 423.66h63.7197z" />
    <glyph glyph-name="w" unicode="w" horiz-adv-x="702" 
d="M519.97 0.0302734h-62.9092l-106.48 375.01l-105.76 -375.01h-62.1904l-163.3 500.94h65.8799l127.26 -413.23l111.46 413.23h52.5898l112.18 -412.51l127.98 412.51h65.9199z" />
    <glyph glyph-name="wacute" unicode="&#x1e83;" horiz-adv-x="702" 
d="M368.72 583.22h-45.3799l52.3496 116.78h66.9102zM519.96 0.0195312h-62.9004l-106.48 375.01l-105.77 -375.01h-62.1797l-163.31 500.94h65.8799l127.26 -413.22l111.46 413.22h52.5898l112.18 -412.51l127.98 412.51h65.9297z" />
    <glyph glyph-name="wcircumflex" unicode="&#x175;" horiz-adv-x="702" 
d="M513.51 571.77h-59.9199l-100 106.33l-103.28 -106.33h-59.5898l131.31 137.18h64.1201zM519.97 0.0195312h-62.9092l-106.48 375.01l-105.76 -375.01h-62.1904l-163.3 500.94h65.8799l127.26 -413.22l111.46 413.22h52.5898l112.18 -412.51l127.98 412.51h65.9199z" />
    <glyph glyph-name="wdieresis" unicode="&#x1e85;" horiz-adv-x="702" 
d="M265.04 666.74c17.9297 0 32.2998 -14.3799 32.2998 -33.1602c0 -18.21 -14.3701 -33.1602 -32.5898 -33.1602c-18.4902 0 -33.4404 14.9502 -33.4404 33.1602c0 18.7803 14.9502 33.1602 33.7305 33.1602zM441.95 666.74c17.9297 0 32.2998 -14.3799 32.2998 -33.1602
c0 -18.21 -14.3701 -33.1602 -32.5898 -33.1602c-18.4902 0 -33.4404 14.9502 -33.4404 33.1602c0 18.7803 14.9502 33.1602 33.7305 33.1602zM519.97 0.0302734h-62.9092l-106.48 375.01l-105.76 -375.01h-62.1904l-163.3 500.94h65.8799l127.26 -413.23l111.46 413.23
h52.5898l112.18 -412.51l127.98 412.51h65.9199z" />
    <glyph glyph-name="wgrave" unicode="&#x1e81;" horiz-adv-x="702" 
d="M386.88 583.22h-45.3896l-73.8203 116.78h66.8604zM519.96 0.0195312h-62.9004l-106.48 375.01l-105.77 -375.01h-62.1797l-163.31 500.94h65.8799l127.26 -413.22l111.46 413.22h52.5898l112.18 -412.51l127.98 412.51h65.9297z" />
    <glyph glyph-name="x" unicode="x" horiz-adv-x="418" 
d="M251.1 249.99l145.731 -249.959h-67.3896l-118.17 204.46l-123.19 -204.46h-68.75l153.85 251.02l-147.57 249.92h69.5996l116.72 -207.73l116.6 207.73h68.46z" />
    <glyph glyph-name="y" unicode="y" horiz-adv-x="521" 
d="M452 501l-0.00976562 -537.002c0 -112 -72.6797 -162 -170.04 -162c-62.9697 0 -125.66 19 -176.36 52l25.8096 37c39.4297 -23.29 86.4102 -39.0498 135.5 -39.0498c72.8301 0 121.19 28.3096 122.181 107.04v68.75c-36.75 -17.4502 -90.2197 -27.75 -139.71 -27.75
c-99.0596 0.290039 -184.979 42.9102 -184.979 169.021v331.99h62.9199v-328.18c0 -93.6396 57.9902 -124.699 133.65 -124.699c47.8496 0 97.3691 11.96 128.119 25.8701v427.01h62.9199z" />
    <glyph glyph-name="yacute" unicode="&#xfd;" horiz-adv-x="521" 
d="M262.9 583.22h-45.3799l52.3496 116.78h66.9102zM452.001 501l-0.00976562 -537.002c0 -112 -72.6797 -162 -170.04 -162c-62.9697 0 -125.66 19 -176.36 52l25.8096 37c39.4297 -23.29 86.4102 -39.0498 135.5 -39.0498c72.8301 0 121.19 28.3096 122.181 107.04v68.75
c-36.75 -17.4502 -90.2197 -27.75 -139.71 -27.75c-99.0596 0.290039 -184.979 42.9102 -184.979 169.021v331.99h62.9199v-328.18c0 -93.6396 57.9902 -124.699 133.65 -124.699c47.8496 0 97.3691 11.96 128.119 25.8701v427.01h62.9199z" />
    <glyph glyph-name="ycircumflex" unicode="&#x177;" horiz-adv-x="521" 
d="M424.7 571.77h-59.9199l-100 106.33l-103.28 -106.33h-59.5898l131.31 137.18h64.1201zM452 501l-0.00878906 -537.002c0 -112 -72.6904 -162 -170.051 -162c-62.96 0 -125.66 19 -176.36 52l25.8096 37c39.4297 -23.29 86.4199 -39.0498 135.51 -39.0498
c72.8203 0 121.19 28.3096 122.171 107.04v68.75c-36.75 -17.4502 -90.2197 -27.75 -139.71 -27.75c-99.0596 0.290039 -184.97 42.9102 -184.97 169.021v331.99h62.9199v-328.18c0 -93.6396 57.9902 -124.699 133.65 -124.699c47.8496 0 97.3594 11.96 128.119 25.8701
v427.01h62.9199z" />
    <glyph glyph-name="ydieresis" unicode="&#xff;" horiz-adv-x="521" 
d="M176.23 666.73c17.9297 0 32.3096 -14.3701 32.3096 -33.1504c0 -18.2197 -14.3799 -33.1602 -32.5898 -33.1602c-18.5 0 -33.4404 14.9404 -33.4404 33.1602c0 18.7803 14.9404 33.1504 33.7207 33.1504zM353.141 666.73c17.9297 0 32.3096 -14.3701 32.3096 -33.1504
c0 -18.2197 -14.3799 -33.1602 -32.5898 -33.1602c-18.5 0 -33.4404 14.9404 -33.4404 33.1602c0 18.7803 14.9404 33.1504 33.7207 33.1504zM452.001 501l-0.00976562 -537.002c0 -112 -72.6797 -162 -170.04 -162c-62.9697 0 -125.66 19 -176.36 52l25.8096 37
c39.4297 -23.29 86.4102 -39.0498 135.5 -39.0498c72.8301 0 121.19 28.3096 122.181 107.04v68.75c-36.75 -17.4502 -90.2197 -27.75 -139.71 -27.75c-99.0596 0.290039 -184.979 42.9102 -184.979 169.021v331.99h62.9199v-328.18
c0 -93.6396 57.9902 -124.699 133.65 -124.699c47.8496 0 97.3691 11.96 128.119 25.8701v427.01h62.9199z" />
    <glyph glyph-name="ygrave" unicode="&#x1ef3;" horiz-adv-x="521" 
d="M320.04 583.22h-45.3799l-73.8301 116.78h66.8604zM452 501l-0.00976562 -537.002c0 -112 -72.6797 -162 -170.04 -162c-62.9697 0 -125.66 19 -176.36 52l25.8096 37c39.4297 -23.29 86.4102 -39.0498 135.5 -39.0498c72.8301 0 121.19 28.3096 122.181 107.04v68.75
c-36.75 -17.4502 -90.2197 -27.75 -139.71 -27.75c-99.0596 0.290039 -184.979 42.9102 -184.979 169.021v331.99h62.9199v-328.18c0 -93.6396 57.9902 -124.699 133.65 -124.699c47.8496 0 97.3691 11.96 128.119 25.8701v427.01h62.9199z" />
    <glyph glyph-name="z" unicode="z" horiz-adv-x="439" 
d="M389.68 459.85l-271.601 -407.02h277.79v-52.8096h-355.8v41.29l271.53 406.85h-252.36v52.8096h330.44v-41.1201z" />
    <glyph glyph-name="zacute" unicode="&#x17a;" horiz-adv-x="439" 
d="M230.05 583.22h-45.3896l52.3496 116.78h66.9102zM389.68 459.85l-271.601 -407.02h277.79v-52.8096h-355.8v41.29l271.53 406.85h-252.36v52.8096h330.44v-41.1201z" />
    <glyph glyph-name="zcaron" unicode="&#x17e;" horiz-adv-x="439" 
d="M258.14 574.64h-64.1201l-131.31 137.18h59.5898l103.28 -106.33l100 106.33h59.9199zM389.68 459.85l-271.601 -407.02h277.79v-52.8096h-355.8v41.29l271.53 406.85h-252.36v52.8096h330.44v-41.1201z" />
    <glyph glyph-name="zdotaccent" unicode="&#x17c;" horiz-adv-x="439" 
d="M217.59 671.08c17.9297 0 32.3096 -14.3701 32.3096 -33.1504c0 -18.2197 -14.3799 -33.1602 -32.5898 -33.1602c-18.5 0 -33.4404 14.9404 -33.4404 33.1602c0 18.7803 14.9404 33.1504 33.7207 33.1504zM389.68 459.85l-271.601 -407.02h277.79v-52.8096h-355.8v41.29
l271.53 406.85h-252.36v52.8096h330.44v-41.1201z" />
    <glyph glyph-name="T_h" horiz-adv-x="1024" 
d="M635.64 700l-0.00195312 -220.368c40.2402 20.1299 88.5703 29.75 134.38 29.75c95.5303 0 190.311 -41.2305 190.311 -169.681v-339.7h-62.9199v336.77c0 87.9199 -57.9902 122.55 -135.08 122.55c-44.9805 0 -90.9102 -11.2402 -126.68 -28.7305v-430.59h-62.9199
v641.13h-282.02v-641.13h-65.1699v641.13h-185.47v58.8701h595.57z" />
    <glyph glyph-name="c_h" horiz-adv-x="972" 
d="M52.2305 194.02l-0.015625 112.455c0 133.02 77.71 194.31 171.74 200.27c7.48047 0.669922 15.04 1 22.6504 1c25.0303 0 50.5898 -3.54004 75.3701 -10.04c-11.0898 19.29 -17.0303 41.0996 -17.0303 63.7793c0 32.46 12.1699 66.71 38.8604 97.9404
c30.8604 35.9697 76.4004 57.4199 126.11 57.4199c47.1104 0 86.2607 -20.0596 113.711 -46.5498v-190.65c40.2402 20.1299 88.5703 29.75 134.38 29.75c95.5303 0 190.311 -41.2305 190.311 -169.681v-339.7h-62.9199v336.77c0 87.9199 -57.9902 122.55 -135.08 122.55
c-44.9902 0 -90.9199 -11.2402 -126.689 -28.7305v-430.59h-62.9199v649.87c-16.3799 8.95996 -34.9395 13.3398 -53.4492 13.3398c-30.8799 0 -61.6396 -12.1904 -81.9795 -35.6504c-19.5596 -21.0596 -30.1299 -49.25 -30.1299 -78.5498
c0 -38.04 20.4199 -68.5 42.5098 -101.12l-46.7002 -25.3301c-31.54 22.9697 -66.9502 34.5293 -103.49 34.5293c-76.0898 0 -132.32 -47.0801 -132.32 -150.63v-112.44c0 -103.55 56.2305 -150.63 132.32 -150.63c36.54 0 71.9502 11.5596 103.49 34.5293l46.7002 -25.3398
c-37.5098 -38.2598 -86.5596 -61.5898 -150.189 -61.5898c-115.64 0 -195.239 69.1396 -195.239 203.02z" />
    <glyph glyph-name="c_t" horiz-adv-x="787" 
d="M50.8096 194.2l-0.00390625 112.388c0 130.77 74.6602 197.43 183.48 202.239c27.54 0.730469 56.6504 -3.01953 86.2803 -11c-11.4697 19.7402 -17.3398 41.79 -17.3398 64.3604c0 37.4697 16.1602 76.3799 49.6797 108.56c30.3096 29.4404 71.4092 46.21 115.6 46.21
c58.4199 0 91.6201 -26.8799 113.7 -46.6494v-169.35h132.28v-52.8301h-132.28v-249.72c0 -83.2197 34.9697 -133.95 100.88 -150.57c17.96 -4.55957 38.9502 -6.36914 63.4697 -5.19922v-52.6299c-23.6396 -1 -46.8896 0 -68.9492 4
c-90.2197 15.6904 -158.319 75.2607 -158.319 195.091v460.91c-16.54 8.78027 -34.6396 12.9707 -52.5693 12.9707c-28.5 0 -56.5801 -10.5898 -77.3496 -30.1602c-22.4199 -21.0996 -36.21 -50.9893 -36.21 -83.8389c0 -38.7803 22.4805 -68.1602 43.0801 -100.9
l-46.7002 -25.3398c-31.54 22.9805 -66.9502 34.54 -103.49 34.54c-76.0898 0 -132.32 -47.0801 -132.32 -150.63v-112.44c0 -103.55 56.2305 -150.63 132.32 -150.63c36.54 0 71.9502 11.5596 103.49 34.5293l46.7002 -25.3398
c-37.5098 -38.2598 -86.5596 -61.7695 -150.189 -61.7695c-115.64 0 -195.239 69.3096 -195.239 203.199z" />
    <glyph glyph-name="f_b" horiz-adv-x="801" 
d="M72.9805 0l-0.00976562 544.69c0 108.34 68.3096 166.47 164.899 166.47c110.69 0 186.75 -46.6797 186.75 -46.6797v-183.42c38.1201 15.8604 90.0303 28.3203 138.011 28.3203c93.0303 0 186.681 -40.0801 186.681 -171.83v-176.99
c0 -127.07 -97.6797 -168.561 -193.12 -168.561c-49.3604 0 -101.04 10.7402 -142.49 34l-1.2998 -26h-50.6904v632.7c-40.21 16.5898 -79.6201 25.25 -120.65 25.25c-36.3398 0 -105.07 -15.7305 -105.16 -119.271v-37.6797h132.27v-50.3604h-132.27v-450.64h-62.9199z
M686.391 159.61l-0.000976562 174.289c0 93.6504 -57.9902 124.7 -133.65 124.7c-47.8496 0 -97.3594 -11.9502 -128.109 -25.8701v-362.04c34.7803 -17.5996 79.4199 -28.0293 123.41 -28.0293c77.8604 0 138.07 35.2197 138.351 116.95z" />
    <glyph glyph-name="f_h" horiz-adv-x="814" 
d="M72.9805 0v544.689c0 108.34 68.3203 166.46 164.91 166.46c110.68 0 186.739 -46.6797 186.739 -46.6797v-184.85c40.2402 20.1396 88.5703 29.75 134.38 29.75c95.5303 0 190.311 -41.2197 190.311 -169.67v-339.71h-62.9199v336.78
c0 87.9102 -57.9902 122.55 -135.08 122.55c-44.9902 0 -90.9199 -11.2402 -126.68 -28.7402v-430.59h-62.9199v632.7c-40.21 16.5898 -79.6201 25.25 -120.65 25.25c-36.25 0 -105.06 -15.6299 -105.17 -119.12v-37.8203h132.27v-50.3604h-132.27v-450.64h-62.9199z" />
    <glyph glyph-name="f_i" horiz-adv-x="494" 
d="M72.9805 0l-0.000976562 544.7c0 108.34 68.3203 166.46 164.91 166.46c77.3896 0 138.17 -27.79 150.53 -32.2598v-47.6504s-61.8398 26.6904 -138.8 26.6904c-43.4805 0 -113.44 -14.25 -113.721 -119.96v-36.9805h288.73v-501h-62.9199v450.64h-225.81v-450.64
h-62.9199z" />
    <glyph glyph-name="f_j" horiz-adv-x="494" 
d="M72.9805 0l0.00976562 544.7c0 108.34 68.3096 166.46 164.899 166.46c77.3896 0 138.17 -27.79 150.53 -32.2598v-47.6504s-61.8398 26.6904 -138.8 26.6904c-42.0303 0 -113.04 -13.4004 -113.72 -117.95v-38.9902h288.74v-561c0 -65 -36.9297 -110 -94.29 -129
c-14.3896 -6 -30.79 -10 -49.8496 -11l-2.15039 52c17.7197 2 31.7197 6 43.0098 12c33.5996 19 40.3496 53 40.3496 85v501.64h-225.81v-450.64h-62.9199z" />
    <glyph glyph-name="f_k" horiz-adv-x="787" 
d="M74.3896 0l0.000976562 544.688c0 108.34 68.3203 166.46 164.91 166.46c110.68 0 186.75 -46.6797 186.75 -46.6797v-387.27l236 231.26h78.2402l-198.54 -202.27l226.56 -306.2h-71.7305l-193.13 262.55l-77.4102 -71.6602v-190.89h-62.9199v632.7
c-40.21 16.5898 -79.6201 25.25 -120.65 25.25c-35.9404 0 -104.99 -15.3096 -105.16 -118.609v-38.3301h132.27v-50.3604h-132.27v-450.64h-62.9199z" />
    <glyph glyph-name="f_l" horiz-adv-x="490" 
d="M72.9805 0l0.000976562 544.689c0 108.34 68.3203 166.46 164.91 166.46c110.68 0 186.739 -46.6797 186.739 -46.6797v-664.48h-62.9199v632.7c-40.21 16.5898 -79.6201 25.25 -120.65 25.25c-36.21 0 -105.05 -15.5996 -105.16 -119.06v-37.8799h132.27v-50.3604
h-132.27v-450.64h-62.9199z" />
    <glyph glyph-name="s_p" horiz-adv-x="971" 
d="M38.9297 133.31l61.5283 -0.0107422c4.5 -48.4297 41.8496 -93.7393 127.18 -93.7393c73.8398 0 120.28 40.25 120.28 93.1396c0 63.5498 -62.5801 82.2803 -132.43 102.221c-83.3203 22.3398 -162.811 47.8594 -162.811 136.899c0 69.3301 45.9199 139.42 167.27 139.42
c22.8604 0 43.4307 -2.67969 63.3506 -7.41992c-8.75 18.29 -13.5098 38.6699 -13.5098 59.9795c0 81.3398 69.04 148.16 154.23 148.16c89.1299 0 159.2 -74.0098 159.72 -158.71v-78.4902c41.4502 23.2598 92.71 33.9502 142.07 33.9502
c98.1904 0 193.131 -43.3701 193.131 -168.99v-176.99c0 -130.77 -92.2695 -171.729 -186.409 -171.729c-48.0596 0 -100.1 12.2998 -138.279 28.2197v-221.22h-62.9297v755.25c-0.580078 59.8604 -51.6104 105.87 -107.301 105.87
c-58.9404 0 -106.891 -47.9502 -106.891 -106.88c0 -29.4102 12.4502 -55.6006 32.0801 -73.6104c36.1904 -26.4502 52.0303 -65.7402 52.0303 -107.01h-60.8203c0.0400391 40.2998 -29.96 87.5898 -112.95 87.5898s-113 -47.29 -112.94 -87.5898
c0.0800781 -49.2998 53.9404 -69.0596 122.601 -88.0293c95.0498 -24.4502 174.2 -56.6699 174.2 -151c0 -78.5303 -60.8604 -145.59 -179.66 -145.59c-127.65 0 -189.16 66.71 -192.74 146.31zM856.018 166.369l-0.00878906 174.289
c-0.280273 81.7305 -60.4902 116.95 -138.36 116.95c-43.9805 0 -88.6309 -10.4297 -123.411 -28.0293v-362.04c30.7598 -13.9199 80.2695 -25.8701 128.13 -25.8701c75.6602 0 133.65 31.0498 133.65 124.7z" />
    <glyph glyph-name="s_t" horiz-adv-x="761" 
d="M41.5303 133.65l61.5215 -0.0117188c4.5 -48.4297 41.8496 -93.7393 127.18 -93.7393c73.8398 0 120.28 40.25 120.28 93.1299c0 63.8096 -63.0898 82.4492 -133.189 102.459c-83.0703 22.2598 -162.051 47.8701 -162.051 136.67
c0 69.2695 46.3398 138.689 168.99 138.689c22.3799 0 42.8994 -2.61035 66.7695 -7.16016c-8.92969 17.6904 -13.7695 37.6309 -13.7695 58.3711c0 34.9004 13.71 72.0605 44.71 104.521c30.7197 32.2002 73.7793 50.8906 120.369 50.8906
c57.8496 0 96.3896 -33.6201 113.64 -46.6504v-169.35h132.27v-52.8301h-132.27v-249.72c0 -85.6504 37.3203 -136.761 106.601 -151.881c16.3896 -3.67969 35.4395 -5.05957 57.7393 -3.88965v-53.1602c-21.4297 -1 -42.7295 0 -63.1797 3
c-93.5996 13.9902 -164.08 74.3506 -164.08 196.62v460.91c-16.5195 9.24023 -34.9795 13.9707 -53.4697 13.9707c-26.79 0 -53.6201 -9.94043 -74.6201 -30.5303c-23.5596 -20.6299 -37.9795 -51.0303 -37.9795 -84.46c0 -29.8096 11.1797 -56.0293 31.0293 -75.3691
c31.5098 -27.04 45.8096 -64.21 45.8096 -102.17h-60.8096c0.0400391 40.2998 -29.96 87.5898 -112.95 87.5898s-113.01 -47.29 -112.95 -87.5898c0.0800781 -49.2998 53.9502 -69.0596 122.61 -88.0293c95.04 -24.4502 174.2 -56.6699 174.2 -151
c0 -78.5303 -60.8701 -145.931 -179.67 -145.931c-127.65 0 -189.15 67.0498 -192.73 146.649z" />
    <glyph glyph-name="ordfeminine" unicode="&#xaa;" horiz-adv-x="336" 
d="M87.3301 600.45l-24.3994 28.4102c21.5098 19.25 55.6895 30.4902 97.2393 30.4902c117.23 0 131.12 -66.2402 131.12 -133.05v-177.32h-37.5l-0.75 13.1201c-25.1602 -11.9697 -54.8906 -18.0996 -83.5303 -18.0996c-67.1904 1.42969 -125.171 26.0898 -125.171 104.229
c0 80.5996 64.5801 101.109 133.08 101.109c20.7803 0 45.7002 -2.37012 70.6807 -5.83008c-3.0498 42.3604 -16.2998 75.7803 -88.9902 75.7803c-28.1699 0 -52.9697 -5.17969 -71.7793 -18.8398zM248.761 400.021l-0.000976562 111.01
c-19.3398 2.15039 -45.1699 5.89062 -65.9697 5.89062c-50.1797 0 -95.1992 -12.6299 -95.1992 -66.8301c0 -52.0498 39.5 -67.5596 87.9805 -67.5596c26.29 0 54.5596 8.17969 73.1895 17.4893z" />
    <glyph glyph-name="ordmasculine" unicode="&#xba;" horiz-adv-x="328" 
d="M44.3203 466.13l0.00976562 71.1104c0 73.3096 39.3496 122.76 120.229 122.76c80.1504 0 119.11 -52.5 119.11 -122.87v-71.0996c0 -61.8301 -32.9297 -122.05 -119.529 -122.05c-85.1602 0 -119.82 60.3799 -119.82 122.149zM238.72 464.5l0.00976562 74.1699
c0 47.4502 -26.6299 79.9697 -74.1797 79.9697c-48.9902 0 -74.5498 -30.21 -74.5498 -79.8701v-74.1797c0 -41 21.6104 -79.25 74.1699 -79.25c53.2803 0 74.5498 38.0898 74.5498 79.1602z" />
    <glyph glyph-name="uni0419" unicode="&#x419;" horiz-adv-x="629" 
d="M410.25 912.37h35.1787c0 -73.6201 -58 -128.21 -130.3 -128.21s-130.31 54.5898 -130.31 128.21h35.1904c1.98047 -46.9102 40.2705 -89.4902 95.1201 -89.4902c54.1299 0 93.1299 42.5801 95.1201 89.4902zM544.429 0h-65.1602v568.98l-327.16 -568.98h-67.7197v700
h65.1699v-575.5l329.97 575.5h64.9004v-700z" />
    <glyph glyph-name="uni0410" unicode="&#x410;" horiz-adv-x="604" 
d="M572.34 0h-68.6113l-80.3096 240.56h-243.69l-81.0195 -240.56h-67.2197l239.32 700h61.5303zM196.389 299.43h210.359l-105.18 313.07z" />
    <glyph glyph-name="uni0411" unicode="&#x411;" horiz-adv-x="607" 
d="M502.94 640.39h-348.24v-252.79h213.56c116.26 0 181.66 -65.29 181.66 -193.8s-65.4004 -193.8 -181.66 -193.8h-278.77v700.02h413.45v-59.6299zM154.66 328.89v-270.18h200.8c83.8203 0 129.391 46.3896 129.391 135.09c0 88.71 -45.5703 135.09 -129.391 135.09
h-200.8z" />
    <glyph glyph-name="uni0412" unicode="&#x412;" horiz-adv-x="607" 
d="M89.3896 700.02l262.449 0.00195312c115.9 0 180.25 -81.96 180.25 -178.2c0 -85.6904 -32.0303 -143.21 -92.0605 -169.4c71.4697 -24.1504 110 -89.3105 110 -163.431c0 -122.33 -65.5996 -188.99 -181.869 -188.99h-278.77v700.02zM154.619 641.102
l0.00976562 -261.229h182.89c83.8203 0 129.4 46.3896 129.4 135.09c0 69.1797 -44.7598 126.14 -127.77 126.14h-184.53zM154.569 319.942l0.00878906 -261.229h200.8c83.8203 0 129.391 46.3799 129.391 135.09c0 69.1699 -44.7598 126.14 -127.77 126.14h-202.43z" />
    <glyph glyph-name="uni0413" unicode="&#x413;" horiz-adv-x="517" 
d="M502.85 640.39h-348.25v-640.39h-65.21v700.02h413.46v-59.6299z" />
    <glyph glyph-name="uni0414" unicode="&#x414;" horiz-adv-x="705" 
d="M582.41 58.4004l83.0488 0.00976562v-211.41h-61.2695v153.54h-502.88v-153.54h-61.2695v211.41h61.7998c38.4199 27.7197 60.9502 73.5596 60.9502 137.13v504.99h419.62v-642.13zM227.959 641.641v-445.271c0 -59.8604 -16.5801 -105.71 -45.8799 -137.96h335.1v583.23
h-289.22z" />
    <glyph glyph-name="uni0415" unicode="&#x415;" horiz-adv-x="571" 
d="M519.07 641.13l-364.5 0.000976562v-262.17h337.2v-58.8701h-337.2v-261.23h370.15v-58.8604h-435.32v700h429.67v-58.8701z" />
    <glyph glyph-name="uni0416" unicode="&#x416;" horiz-adv-x="948" 
d="M577.99 367.22l338.54 -367.22h-79.5596l-330.35 363.29v-363.29h-65.21v363.29l-330.36 -363.29h-79.5596l338.54 367.22l-286.75 332.78h77.0996l281.03 -333.72v333.72h65.21v-333.72l281.02 333.72h77.0996z" />
    <glyph glyph-name="uni0417" unicode="&#x417;" horiz-adv-x="515" 
d="M118.1 574.62l-56.1484 23.3486c22.6904 55.4502 83.0508 112.16 170.951 112.16c104.1 0 185.449 -73.8496 185.449 -183.06c0 -74.8496 -47.29 -127.159 -97.3604 -149.6c65.6797 -24.1504 126.56 -89.79 126.56 -180.94c0 -126.51 -92.96 -208.54 -215.36 -208.54
c-91.3701 0 -156.851 48.4902 -189.291 98.9004l49.4297 32.4502c28.1104 -43.4502 79.96 -72.1504 139.85 -72.1504c87.1904 0 151.921 64.0098 151.921 150.479c0 84.3203 -73.7803 151.16 -157.16 151.16h-54.3398v53.0303h54.3398c68.2002 0 129.07 51.79 129.07 122.94
c0 72.5801 -51.9502 126.68 -123.101 126.68c-59.0195 0 -99.0498 -38.1797 -114.81 -76.8594z" />
    <glyph glyph-name="uni0418" unicode="&#x418;" horiz-adv-x="629" 
d="M544.43 0h-65.1602v568.98l-327.16 -568.98h-67.7197v700h65.1699v-575.5l329.97 575.5h64.9004v-700z" />
    <glyph glyph-name="uni041A" unicode="&#x41a;" horiz-adv-x="606" 
d="M225.99 367.22l338.53 -367.22h-79.5596l-330.35 363.29v-363.29h-65.21v700h65.21v-333.72l281.02 333.72h77.0996z" />
    <glyph glyph-name="uni041B" unicode="&#x41b;" horiz-adv-x="662" 
d="M579.56 0l-65.2197 0.000976562v641.1h-289.23v-465.32c0 -132.72 -84.1396 -185.779 -187.909 -185.779v57.0596c62.2695 0 122.739 32.3701 122.739 127.88v525.06h419.62v-700z" />
    <glyph glyph-name="uni041C" unicode="&#x41c;" horiz-adv-x="746" 
d="M659.82 0h-64.2285v546.86l-197.66 -520.47h-49.4902l-196.23 520.47v-546.86h-64.2305v700h65.4199l220.5 -576.64l220.49 576.64h65.4297v-700z" />
    <glyph glyph-name="uni041D" unicode="&#x41d;" horiz-adv-x="657" 
d="M567.87 0h-65.1699v320.09h-348.13v-320.09h-65.1699v700h65.1699v-321.04h348.13v321.04h65.1699v-700z" />
    <glyph glyph-name="uni041E" unicode="&#x41e;" horiz-adv-x="623" 
d="M72.2305 210.96l0.000976562 269.261c0 157.1 97.7998 235.14 241.12 235.14c153.04 0 237.35 -93.0498 237.35 -236.08v-268.32c0 -166.68 -127.11 -222.96 -238.29 -222.96c-110.11 0 -240.181 56.1396 -240.181 222.96zM485.531 210.961l0.000976562 268.319
c0 111.51 -59.4902 177.22 -172.181 177.22c-108.32 0 -175.95 -55.3398 -175.95 -176.27v-269.26c0 -123.26 89.8896 -164.04 175.01 -164.04c85.9199 0 173.12 40.6201 173.12 164.03z" />
    <glyph glyph-name="uni041F" unicode="&#x41f;" horiz-adv-x="657" 
d="M567.87 0h-65.2295v641.1h-348.03v-641.1h-65.21v700h478.47v-700z" />
    <glyph glyph-name="uni0420" unicode="&#x420;" horiz-adv-x="606" 
d="M89.3896 700l258.511 -0.00976562c127.63 0 197.189 -89.4502 197.189 -191.7c0 -129.38 -71.7998 -202.37 -199.08 -202.34h-191.45v-305.95h-65.1699v700zM154.561 641.13l0.000976562 -276.17h190.81c88.6201 0 136.8 49.04 136.8 142.82
c0 73.1299 -47.3203 133.35 -135.08 133.35h-192.53z" />
    <glyph glyph-name="uni0421" unicode="&#x421;" horiz-adv-x="562" 
d="M72.2305 224.42v257.081c0 157.1 98.7402 235.14 239.971 235.14c98.8701 0 168.28 -41.5596 203.16 -109.43l-48.71 -24.3799c-28.25 48.1396 -81.8203 74.9395 -150.021 74.9395c-105.08 0 -179.23 -57.1299 -179.23 -176.28v-257.07
c0 -119.14 74.1504 -176.279 179.23 -176.279c68.2002 0 121.771 26.8096 150.021 74.9395l48.71 -24.3701c-34.8799 -67.8701 -104.29 -109.71 -203.16 -109.71c-141.23 0 -239.971 78.3203 -239.971 235.42z" />
    <glyph glyph-name="uni0422" unicode="&#x422;" horiz-adv-x="530" 
d="M482.76 641.13h-192.061v-641.13h-65.1699v641.13h-185.46v58.8701h442.69v-58.8701z" />
    <glyph glyph-name="uni0423" unicode="&#x423;" horiz-adv-x="627" 
d="M569.91 700l-255.479 -596.9c-28.7197 -67.5 -73.3096 -117.1 -150.47 -117.1h-66.2002v58.8496h56.2695c54.0195 0 87.2695 31.54 111.26 89.7402l29.0498 68.5303l-229.2 496.88h68.3203l191.72 -423.17l177.44 423.17h67.29z" />
    <glyph glyph-name="uni0424" unicode="&#x424;" horiz-adv-x="756" 
d="M410.59 630.15l31.5508 -0.00976562c137.89 0 243.06 -59.8301 243.06 -280.15c0 -220.56 -105.2 -280.18 -243.58 -280.22h-31.0303v-69.7803h-65.2002v69.8203h-31.0195c-141.21 0 -243.56 61.0498 -243.56 280.189c0 220.62 105.51 280.17 243.729 280.22h30.8799
v69.7803h65.1699v-69.8496zM345.391 571.351l-30.7402 0.00976562c-114.31 -0.919922 -178.67 -48.5098 -178.67 -221.37c0 -172.85 64.6299 -220.39 178.7 -221.31h30.71v442.67zM410.62 128.78l31.0195 -0.00878906c113.81 0.94043 178.38 48.54 178.38 221.22
c0 172.71 -64.3096 220.35 -178.38 221.369h-31.0195v-442.58z" />
    <glyph glyph-name="uni0425" unicode="&#x425;" horiz-adv-x="615" 
d="M352.16 363.16l231.24 -363.16h-77.0303l-199.27 310.82l-197.5 -310.82h-78.1104l232.24 363.19l-214.33 336.81h75.1797l182.43 -292.19l182.44 292.19h77.0596z" />
    <glyph glyph-name="uni0427" unicode="&#x427;" horiz-adv-x="618" 
d="M133.5 700.28v-251.642c0 -77.6904 41.6602 -108.78 115.521 -108.78c46.3398 0 192.02 25.4404 215.06 29.6709v330.46h64.5898v-700h-64.5898v310.62c-43.7803 -6.92969 -178.08 -31.1699 -232.37 -31.1699c-98.9199 0 -163.729 51.6504 -163.729 155.311v265.53
h65.5195z" />
    <glyph glyph-name="uni0426" unicode="&#x426;" horiz-adv-x="691" 
d="M567.63 57.4404l84.25 0.00976562v-210.45h-61.2695v152h-501.45v700.57h65.2197v-641.1h348.04v641.1h65.21v-642.13z" />
    <glyph glyph-name="uni0428" unicode="&#x428;" horiz-adv-x="951" 
d="M861.79 0h-772.18v699.74h65.2305v-641.11h288.26v641.11h65.2197v-641.11h288.26v641.11h65.21v-699.74z" />
    <glyph glyph-name="uni0429" unicode="&#x429;" horiz-adv-x="986" 
d="M861.79 57.6104h84.2598v-210.61h-61.2695v153h-795.17v699.74h65.2305v-641.11h288.26v641.11h65.2197v-641.11h288.26v641.11h65.21v-642.13z" />
    <glyph glyph-name="uni042F" unicode="&#x42f;" horiz-adv-x="602" 
d="M512.56 0h-65.1689v309.48h-129.44l-193.27 -309.48h-76.7197l201.71 317.47l-33.79 1.19043c-102.61 11.0898 -159.021 77.5498 -159.021 191.3c0 101.41 69.5596 190.04 197.189 190.04h258.51v-700zM447.391 641.14l-192.52 -0.000976562
c-87.7598 0.0302734 -135.08 -59.3994 -135.08 -131.569c0 -92.5498 48.1797 -141.08 136.79 -141.08h190.81v272.65z" />
    <glyph glyph-name="uni042C" unicode="&#x42c;" horiz-adv-x="597" 
d="M154.71 387.59h213.55c116.26 0 181.66 -65.29 181.66 -193.79c0 -128.51 -65.4004 -193.8 -181.66 -193.8h-278.77v700.01h65.2197v-312.42zM154.66 328.89v-270.18h200.8c83.8203 0 129.391 46.3799 129.391 135.09c0 88.7002 -45.5703 135.09 -129.391 135.09h-200.8z
" />
    <glyph glyph-name="uni042A" unicode="&#x42a;" horiz-adv-x="660" 
d="M218.37 387.59h213.55c116.26 0 181.66 -65.29 181.66 -193.79c0 -128.51 -65.4004 -193.8 -181.66 -193.8h-278.77v642.14h-150.32v57.8701h215.54v-312.42zM218.32 328.89v-270.18h200.8c83.8203 0 129.391 46.3799 129.391 135.09
c0 88.7002 -45.5703 135.09 -129.391 135.09h-200.8z" />
    <glyph glyph-name="uni042B" unicode="&#x42b;" horiz-adv-x="811" 
d="M154.62 387.59h213.539c116.27 0 181.67 -65.29 181.67 -193.79c0 -128.51 -65.4004 -193.8 -181.67 -193.8h-278.77v700.01h65.2305v-312.42zM721.999 -0h-64.6104v700.01h64.6104v-700.01zM154.559 328.89v-270.18h200.8c83.8203 0 129.4 46.3799 129.4 135.09
c0 88.7002 -45.5801 135.09 -129.4 135.09h-200.8z" />
    <glyph glyph-name="uni042D" unicode="&#x42d;" horiz-adv-x="562" 
d="M95.2002 582.37l-48.71 24.3701c34.8896 67.8701 104.3 109.43 203.17 109.43c141.23 0 239.971 -78.04 239.971 -235.14v-257.08c0 -157.1 -98.7402 -234.96 -239.971 -234.96c-98.8701 0 -168.28 41.3799 -203.17 109.25l48.71 24.3701
c28.25 -48.1299 81.8203 -74.9395 150.021 -74.9395c105.08 0 179.23 57.1396 179.23 176.279v101.75h-263.45v53.5801h263.45v101.75c0 119.14 -74.1504 176.279 -179.24 176.279c-68.1904 0 -121.761 -26.8096 -150.011 -74.9395z" />
    <glyph glyph-name="uni042E" unicode="&#x42e;" horiz-adv-x="864" 
d="M313.06 379.32l0.00195312 99.2891c0 157.11 97.8096 235.141 241.119 235.141c153.04 0 237.35 -93.0498 237.35 -236.08v-268.32c0 -166.68 -127.11 -223.35 -238.29 -223.35c-110.11 0 -240.181 56.5303 -240.181 223.351v111.1h-159.11v-320.45h-64.5498v700h64.5498
v-320.68h159.11zM726.361 209.35l0.000976562 268.31c0 111.51 -59.4805 177.22 -172.181 177.22c-108.32 0 -175.95 -55.3398 -175.95 -176.27v-269.26c0 -123.25 89.8896 -164.04 175.01 -164.04c85.9199 0 173.12 40.6299 173.12 164.04z" />
    <glyph glyph-name="uni0430" unicode="&#x430;" horiz-adv-x="505" 
d="M108.95 427.17l-32.8818 34.4307c32.8604 27.0898 81.8906 47.5996 154.311 47.5996c189.41 0 210.21 -106.25 210.21 -209.91v-301.3h-50.6904l-1.2998 25.8496c-41.4502 -23.25 -93.1299 -34.8496 -142.49 -34.8496c-107.97 3 -201.05 44.2598 -201.05 173.84
c0 135.66 103.89 169.18 214.37 169.18c36.1104 0 77.7705 -4.29004 118.251 -9.61035c-1.4502 68.25 -21.0098 134.03 -153.31 134.03c-48.5596 0 -86.5596 -11.0801 -115.42 -29.2598zM377.668 69.7002l-0.00292969 206.77
c-36.2998 4.74023 -74.1797 8.68066 -109.699 8.68066c-89.1797 0 -164.149 -24.46 -164.149 -122.32c0 -93.1299 67.8701 -122.33 151.521 -122.33c43.4102 0 88.3906 11.0498 122.331 29.2002z" />
    <glyph glyph-name="uni0431" unicode="&#x431;" horiz-adv-x="564" 
d="M414.89 699.99l0.00976562 -53.6895c-97.8398 -5.83008 -192.189 -10.5605 -245.38 -53.9502c-41.9697 -32.8896 -61.1602 -71.8594 -64.6201 -170.59c28.0703 50.9102 79.3701 78.4697 152.521 78.4697c118.31 0 185.34 -79.6904 185.34 -199.16v-114.99
c0 -98.9805 -52.46 -197.08 -193.85 -197.08c-140.54 0 -196.67 97.4199 -196.67 197.07v133.23c0.120117 180.99 5.70996 254.601 75.5898 313.87c62.3496 55.75 184.39 60.7695 287.06 66.8193zM379.85 186.081v114.99c0 91.0098 -46.9404 146.33 -130.931 146.33
c-88.3496 0 -133.76 -49.8701 -133.76 -146.33v-114.99c0 -76.0498 39.3496 -144.45 133.76 -144.45c94.1104 0 130.931 68.2402 130.931 144.45z" />
    <glyph glyph-name="uni0432" unicode="&#x432;" horiz-adv-x="508" 
d="M72.9805 500.16l212.819 -0.00976562c61.4004 0 149.721 -27.8799 149.721 -127.7c0 -91.5801 -73.4297 -114.19 -73.4297 -114.19s83.6396 -22.25 83.6396 -121.81c0 -106.71 -90.2197 -136.45 -148.83 -136.45h-223.92v500.16zM135.78 279.36h142.02
c58.8604 0 96.9404 28.4297 96.9404 85.3594c0 55.79 -37.9902 84.7305 -96.8301 84.7305h-142.13v-170.09zM135.78 50.9707l149.16 -0.00976562c33.1699 0 99.5996 13.5996 99.5996 92.1191c0 77.1299 -66.4805 92.3203 -99.4902 92.3203h-149.27v-184.43z" />
    <glyph glyph-name="uni0433" unicode="&#x433;" horiz-adv-x="421" 
d="M384.53 449.88l-248.64 -0.000976562v-449.88h-62.9102v500.94h311.55v-51.0596z" />
    <glyph glyph-name="uni0434" unicode="&#x434;" horiz-adv-x="586" 
d="M486.89 51.9004l69.1797 0.000976562v-172.9h-58.3896v121.55h-408.54v-121.55h-58.3896v173.52c40.1602 0 59.9902 1.76953 80.5303 19.5c17.6699 15.1201 26.9297 38.5098 26.9297 70.4502v358.39h348.68v-448.96zM201.129 449.802v-304.65
c0 -46.1797 -14.8701 -74.7598 -34.04 -93.25h256.89v397.9h-222.85z" />
    <glyph glyph-name="uni0435" unicode="&#x435;" horiz-adv-x="477" 
d="M52.2305 152.1v176.562c0 115.41 74.9697 181.26 194.399 181.26c121.28 0 183.4 -69.7197 183.4 -179.109v-101.41h-316.4v-84.3604c0 -72.4805 52.9404 -107.211 121.421 -107.211c43.6299 0 93.6699 14.7598 137.63 42.1494l33.8799 -32.3398
c-43.7197 -35.6699 -101.13 -57.6504 -177 -58.6504c-114.75 0 -177.33 63.46 -177.33 163.11zM370.521 273.081v59.8701c0 96.0303 -64.1299 125.55 -125.2 125.55c-66.0596 0 -130.17 -32.75 -130.17 -127.7v-57.7197h255.37z" />
    <glyph glyph-name="uni0436" unicode="&#x436;" horiz-adv-x="778" 
d="M419.5 262.29l241.811 238.65h74.0098l-248.74 -239.42l268.42 -260.74h-75.5098l-259.99 256.96v-257.24h-60.4199v257.24l-260 -256.96h-75.5l268.41 260.74l-248.74 239.42h74.0098l241.82 -238.65v240.23h60.4199v-240.23z" />
    <glyph glyph-name="uni0437" unicode="&#x437;" horiz-adv-x="454" 
d="M99.5098 424.05l-46.709 25.3184c37.5098 38.2598 84.7598 62.0195 155.99 62.0195c94.8496 0 186.08 -37.1602 186.08 -132.42c0 -82.7002 -68.9902 -112.22 -79.7705 -118.37c12.4805 -5.87988 91 -33.9199 91 -125.05c0 -102.68 -120.57 -144.56 -210.08 -144.56
c-66.1201 0 -115.04 17.4805 -148.79 50.2002l44.5498 26.0596c28.6699 -15.0996 66.8096 -23.7793 101.22 -23.8496c53.1201 0 150.18 21.2803 150.18 96.21c0 74.1699 -64.8301 95.6201 -117.65 95.6201h-78.3398v44.0703h79.2002c64.3799 0 105.56 34.54 105.56 90.9805
c0 56.4502 -48.3096 88.2998 -126.579 88.2998c-38.0498 0 -74.3301 -11.5596 -105.86 -34.5293z" />
    <glyph glyph-name="uni0438" unicode="&#x438;" horiz-adv-x="522" 
d="M449.56 0h-60.04v388.43l-253.47 -388.43h-63.0801v500.94h60.0498v-387.66l253.68 387.66h62.8604v-500.94z" />
    <glyph glyph-name="uni0439" unicode="&#x439;" horiz-adv-x="522" 
d="M360.96 707.56h35.1787c0 -73.6104 -58 -128.21 -130.3 -128.21s-130.31 54.5996 -130.31 128.21h35.1904c1.98047 -46.9004 40.2705 -89.4902 95.1201 -89.4902c54.1299 0 93.1299 42.5898 95.1201 89.4902zM449.559 -0h-60.04v388.43l-253.47 -388.43h-63.0801v500.94
h60.0498v-387.66l253.68 387.66h62.8604v-500.94z" />
    <glyph glyph-name="uni043A" unicode="&#x43a;" horiz-adv-x="492" 
d="M133.4 261.79l241.82 238.651h74.0098l-248.75 -239.41l268.42 -260.75h-75.5098l-259.99 256.96v-257.24h-60.4199v502.02h60.4199v-240.23z" />
    <glyph glyph-name="uni043B" unicode="&#x43b;" horiz-adv-x="557" 
d="M484.23 0h-62.9199v449.89h-222.84v-312.85c0 -54.6104 -18.3604 -92.6904 -49.5703 -117.011c-23.5 -17.5303 -58.6904 -31.0303 -103.83 -31.0303v55.4004c20.1396 0 44.29 3.58008 62.7803 19.0703c18.1504 15.0703 27.7002 38.5605 27.7002 70.8906v366.58h348.68
v-500.94z" />
    <glyph glyph-name="uni043C" unicode="&#x43c;" horiz-adv-x="611" 
d="M538.91 0h-60.04v378.45l-146.55 -378.45h-52.7598l-146.54 378.45v-378.45h-60.04v503.09h63.4004l169.56 -436.8l169.56 436.8h63.4102v-503.09z" />
    <glyph glyph-name="uni043D" unicode="&#x43d;" horiz-adv-x="522" 
d="M449.56 0h-62.9199v226.01h-250.75v-226.01h-62.9199v503.09h62.9199v-226.02h250.75v226.02h62.9199v-503.09z" />
    <glyph glyph-name="uni043E" unicode="&#x43e;" horiz-adv-x="495" 
d="M52.2305 187.92v124.27c0 126.95 69.1602 199.16 197.22 199.16c124.91 0 193.3 -78.3096 193.3 -199.159v-124.28c0 -99 -52.3896 -196.92 -193.84 -196.92c-140.55 0 -196.68 97.2695 -196.68 196.93zM379.83 187.92l0.0107422 124.28
c0 91.0098 -46.9404 146.319 -130.931 146.319c-88.2695 0 -133.76 -49.9404 -133.76 -146.33v-124.27c0 -76.0498 39.3496 -144.45 133.75 -144.45c94.0498 0 130.93 68.2598 130.93 144.45z" />
    <glyph glyph-name="uni043F" unicode="&#x43f;" horiz-adv-x="522" 
d="M449.56 0h-62.9102v449.88h-250.75v-449.88h-62.9199v500.94h376.58v-500.94z" />
    <glyph glyph-name="uni0440" unicode="&#x440;" horiz-adv-x="514" 
d="M125.09 500.28l1.29688 -26.0098c41.4502 23.2598 93.1299 34.4395 142.49 34.4395c98.1904 0 193.131 -43.3799 193.131 -168.99v-177c0 -130.76 -92.2695 -171.72 -186.409 -171.72c-48.0596 0 -100.1 12.2998 -138.279 28.2197v-221.22h-62.9199v702.28h50.6904z
M399.087 166.36l0.0107422 174.29c-0.290039 81.7305 -60.4902 116.961 -138.36 116.961c-43.9902 0 -88.6299 -10.4297 -123.42 -28.04v-362.04c30.75 -13.9102 80.2695 -25.8701 128.119 -25.8701c75.6602 0 133.65 31.0596 133.65 124.699z" />
    <glyph glyph-name="uni0441" unicode="&#x441;" horiz-adv-x="446" 
d="M52.2305 194.02v112.439c0 133.88 79.5996 203.46 195.239 203.46c63.6299 0 112.68 -23.7695 150.189 -62.0293l-46.7002 -25.3398c-31.54 22.9805 -66.9502 34.54 -103.48 34.54c-76.0898 0 -132.32 -47.0801 -132.32 -150.63v-112.44
c0 -103.55 56.2305 -150.63 132.32 -150.63c36.5303 0 71.9404 11.5596 103.48 34.54l46.7002 -25.3398c-37.5098 -38.2598 -86.5596 -61.5898 -150.189 -61.5898c-115.64 0 -195.239 69.1396 -195.239 203.02z" />
    <glyph glyph-name="uni0442" unicode="&#x442;" horiz-adv-x="455" 
d="M414.61 449.35h-155.48v-449.35h-62.9199v449.35h-155.47v51.5898h373.87v-51.5898z" />
    <glyph glyph-name="uni0443" unicode="&#x443;" horiz-adv-x="521" 
d="M452 501l-0.000976562 -537.012c0 -110 -71.2598 -162 -168.56 -162c-65.8496 1 -125.979 19 -177.85 52l25.1104 38c47.9102 -27 98.0498 -42 140.77 -42c67.0303 0 116.681 35 117.61 109v68.75c-36.75 -17.4502 -90.2197 -27.75 -139.71 -27.75
c-99.0596 0.290039 -184.979 42.9102 -184.979 169.021v331.99h62.9199v-328.18c0 -93.6396 57.9902 -124.699 133.65 -124.699c47.8496 0 97.3691 11.96 128.119 25.8701v427.01h62.9199z" />
    <glyph glyph-name="uni0444" unicode="&#x444;" horiz-adv-x="661" 
d="M362.14 506.72l17.5791 -0.0302734c131.49 -0.25 229.41 -58.0898 229.41 -251.16c0 -188.94 -72.0498 -261.53 -228.52 -261.53h-18.4697v-196h-62.9199v196h-19.8799c-164.48 0 -227.11 84.8799 -227.11 261.479c0 193.28 96.1299 251.221 228.2 251.221
l18.79 0.0302734v194.71h62.9199v-194.72zM299.219 453.729l-18.2988 -0.0195312c-88.5303 -0.330078 -165.761 -34.5703 -165.761 -198.23c0 -151.33 50.75 -208.67 165.06 -208.67l19 -0.0302734v406.95zM362.14 46.79l17.1602 0.0400391
c108.45 1.01953 166.91 48.3398 166.91 208.55c0 163.43 -78.6104 197.76 -166.551 198.33l-17.5195 0.0302734v-406.95z" />
    <glyph glyph-name="uni0445" unicode="&#x445;" horiz-adv-x="418" 
d="M251.1 249.99l145.731 -249.959h-67.3896l-118.17 204.46l-123.19 -204.46h-68.75l153.85 251.02l-147.57 249.92h69.5996l116.72 -207.73l116.6 207.73h68.46z" />
    <glyph glyph-name="uni0447" unicode="&#x447;" horiz-adv-x="497" 
d="M116.57 503.09l-0.00976562 -164.52c0 -62.4199 31.5801 -90.2998 93.0996 -90.2998c45.79 0 119.9 14.7695 151.46 21.1494v233.66h62.9199v-503.09h-62.9199v213.29c-34.3896 -7.00977 -112.81 -22.25 -169.899 -22.25c-80.9502 0 -137.57 45.0996 -137.57 133.649
v178.41h62.9199z" />
    <glyph glyph-name="uni0446" unicode="&#x446;" horiz-adv-x="549" 
d="M449.58 52.2803h69.1797v-172.28h-58.3896v120.93h-387.4v500.23h62.9404v-449.17h250.75v449.17h62.9199v-448.88z" />
    <glyph glyph-name="uni0448" unicode="&#x448;" horiz-adv-x="754" 
d="M681 0h-608.029v500.94h62.9199v-450.21h209.64v450.21h62.9199v-450.21h209.63v450.21h62.9199v-500.94z" />
    <glyph glyph-name="uni0449" unicode="&#x449;" horiz-adv-x="780" 
d="M681 51.3398l69.1807 -0.000976562v-172.35h-58.3896v121h-618.82v500.95h62.9199v-450.21h209.63v450.21h62.9297v-449.88h209.63v449.88h62.9199v-449.6z" />
    <glyph glyph-name="uni044C" unicode="&#x44c;" horiz-adv-x="490" 
d="M135.81 292.52l153.34 0.00878906c61.8301 0 156.59 -35.8496 156.59 -146.27s-95.0498 -146.26 -153.899 -146.26h-218.86v500.15h62.8301v-207.63zM135.819 241.078v-190.111h144.56c35.2695 0 104.149 15.5703 104.149 95.0605
c0 79.4805 -68.8799 95.0508 -104.149 95.0508h-144.56z" />
    <glyph glyph-name="uni044A" unicode="&#x44a;" horiz-adv-x="542" 
d="M187.49 292.52l153.32 0.00878906c61.8301 0 156.6 -35.8496 156.6 -146.27s-95.0498 -146.26 -153.899 -146.26h-219.15v445.12h-120.11v55.0303h183.24v-207.63zM187.48 241.078v-190.111h144.56c35.2695 0 104.159 15.5703 104.159 95.0605
c0 79.4805 -68.8896 95.0508 -104.159 95.0508h-144.56z" />
    <glyph glyph-name="uni044B" unicode="&#x44b;" horiz-adv-x="647" 
d="M135.81 292.52l153.34 -0.000976562c61.8301 0 156.59 -35.8398 156.59 -146.26s-95.0498 -146.27 -153.899 -146.27h-218.86v500.16h62.8301v-207.63zM574.079 -0.0117188h-62.8301v500.16h62.8301v-500.16zM135.819 241.078v-190.111h144.56
c35.2695 0 104.149 15.5703 104.149 95.0508c0 79.4902 -68.8799 95.0605 -104.149 95.0605h-144.56z" />
    <glyph glyph-name="uni044D" unicode="&#x44d;" horiz-adv-x="451" 
d="M98.1299 432.37l-46.6299 25.3193c38.1104 36.8301 87.1602 59.4004 149.53 59.4004c115.65 0 195.24 -69.5703 195.24 -203.46v-121.03c0 -144.15 -83.0098 -194.601 -206.7 -194.601c-59.5098 0 -104.97 18.7305 -139.5 47.6709l44.4805 26.0303
c29.1201 -13.3398 61.4102 -21.1396 95.0205 -21.1396c87.1104 0 143.431 28.7998 143.78 139.47v45.9102h-184.11v42.9297h184.05v38.0898c-0.419922 101.1 -57.0303 147.29 -132.261 147.29c-35.7598 0 -70.9199 -10.6602 -102.9 -31.8799z" />
    <glyph glyph-name="uni044E" unicode="&#x44e;" horiz-adv-x="682" 
d="M240.34 276.41l-0.000976562 42.1182c2.37988 123.37 71.5303 192.74 196.98 192.74c124.91 0 193.3 -78.3096 193.3 -199.159v-124.27c0 -99 -52.3896 -196.84 -193.84 -196.84c-136.89 0 -194.09 92.5195 -196.58 190.369v43.9805h-104.31v-225.3h-62.9199v501.66
h62.9199v-225.3h104.45zM567.699 187.838v124.27c0 91.0098 -46.9297 146.33 -130.93 146.33c-88.2695 0 -133.75 -49.9502 -133.75 -146.33v-124.27c0 -76.0498 39.3496 -144.45 133.75 -144.45c94.0498 0 130.93 68.2598 130.93 144.45z" />
    <glyph glyph-name="uni044F" unicode="&#x44f;" horiz-adv-x="515" 
d="M442.08 0l-62.8291 0.000976562v207.63h-123.78l-129.9 -207.63h-66.0801l138.24 217.71l-6.88965 1.71973c-41.6904 8.96973 -121.511 37.3096 -121.511 134.46c0 110.42 95.04 146.26 153.89 146.26h218.86v-500.15zM379.251 449.181l-144.56 -0.00878906
c-35.2695 0 -104.159 -15.5703 -104.159 -95.0508s68.8896 -95.0508 104.159 -95.0508h144.56v190.11z" />
    <glyph glyph-name="Delta" unicode="&#x394;" horiz-adv-x="833" 
 />
    <glyph glyph-name="Omega" unicode="&#x3a9;" horiz-adv-x="833" 
 />
    <glyph glyph-name="mu" unicode="&#x3bc;" horiz-adv-x="833" 
 />
    <glyph glyph-name="pi" unicode="&#x3c0;" horiz-adv-x="127" 
 />
    <glyph glyph-name="zero" unicode="0" horiz-adv-x="575" 
d="M68.6504 192.5l-0.0107422 307.551c0 143.64 89.2402 215.149 220.79 215.149c140.21 0 217.11 -85.3701 217.11 -216.07v-306.63c0 -152.09 -115.68 -203.5 -218.029 -203.5c-100.75 0 -219.86 51.2803 -219.86 203.5zM443.62 194.201v303.55
c0 99.3301 -53.1299 158.59 -154.229 158.59c-97.3301 0 -157.83 -49.7998 -157.83 -157.689v-304.44c0 -109.87 80.9102 -146.01 156.93 -146.01c76.7695 0 155.13 36.0195 155.13 146z" />
    <glyph glyph-name="one" unicode="1" horiz-adv-x="330" 
d="M240.62 0l-59.8594 -0.0126953v601.3c-16.0498 -18.1904 -34.9502 -31.6602 -55.21 -42.1699c-26.1104 -12.3398 -53.8408 -19.1094 -75.9512 -21.6094l-15.2695 59.7002c28.6699 4.48047 57.8398 14.3008 83.0996 29.4912
c29.4004 17.1504 53.7402 41.2207 69.3906 73.3008h53.7998v-700z" />
    <glyph glyph-name="two" unicode="2" horiz-adv-x="474" 
d="M113.4 549.3l-61.1904 17.709c26.6396 81.8203 82.7197 143.44 196.96 143.44c107.02 0 181.97 -79.8096 181.97 -182.5c0 -50.79 -18.0498 -101.75 -54.2402 -147.38l-241.11 -321.98h295.35v-58.5996h-385.56v46.8398l274.61 362.44
c34.46 45 47.9902 84.5098 47.9902 120.58c0 69.4697 -49.8496 121.729 -119.01 121.729c-85.1504 0 -118.96 -47.0195 -135.77 -102.279z" />
    <glyph glyph-name="three" unicode="3" horiz-adv-x="515" 
d="M118.09 574.62l-56.1494 23.3486c22.6904 55.4502 83.0508 112.16 170.951 112.16c104.09 0 185.439 -73.8496 185.439 -183.06c0 -74.8496 -47.2803 -127.159 -97.3506 -149.6c65.6797 -24.1504 126.56 -89.79 126.56 -180.94c0 -126.51 -92.96 -208.54 -215.36 -208.54
c-91.3701 0 -156.84 48.4902 -189.29 98.9004l49.4297 32.4502c28.1201 -43.4502 79.96 -72.1504 139.86 -72.1504c87.1797 0 151.92 64.0098 151.92 150.479c0 84.3203 -73.79 151.16 -157.17 151.16h-54.3301v53.0303h54.3301c68.2002 0 129.07 51.79 129.07 122.94
c0 72.5801 -51.9502 126.68 -123.101 126.68c-59.0098 0 -99.0498 -38.1797 -114.81 -76.8594z" />
    <glyph glyph-name="four" unicode="4" horiz-adv-x="509" 
d="M402.5 241.1h61.1104v-56.5303h-61.1104v-184.57h-62.9199v184.57h-303.84v56.5303l300.63 459.04h66.1299v-459.04zM101.13 241.1h238.46v359.63z" />
    <glyph glyph-name="five" unicode="5" horiz-adv-x="519" 
d="M404.4 641.13l-232.72 0.00878906l-23.1299 -210.71h92.3604c121.51 -1.78027 219.85 -96.21 219.85 -218.35c0 -123.57 -93.1201 -224.08 -227.13 -224.08c-86.8896 0 -158.21 49.9199 -189.94 101.76l49.4297 31.7305c26.6797 -44.1699 84.6201 -74.29 140.51 -74.29
c99.4902 0 163.721 78.7305 164.181 162.61c-0.44043 82.3799 -62.0908 161.78 -162.751 161.78h-148.76l36.7305 328.58h281.37v-59.04z" />
    <glyph glyph-name="six" unicode="6" horiz-adv-x="575" 
d="M71.4902 209.37v253.972c0 115.29 73.7803 246.56 251.59 246.56c82.6699 0 142.979 -33.3604 175.489 -61.0508l-38.29 -44.46c-28.6201 24.5098 -76.5303 46.6494 -138.62 46.6494c-143.11 0 -190.33 -106.32 -190.33 -184.13v-134.38
c39.8799 74.1299 110.12 97.21 165.72 97.21c123.66 0 220.601 -97.4502 220.601 -220.37s-99.0098 -221.38 -223.439 -221.38c-124.42 0 -222.72 98.4697 -222.72 221.38zM294.221 370.842c-93.7803 0 -157.708 -69.8799 -159.818 -161.47
c0 -90.1797 67.8096 -162.18 159.819 -162.18c92 0 160.52 71.5898 160.52 162.18c0 90.5996 -68.1602 161.47 -160.521 161.47z" />
    <glyph glyph-name="seven" unicode="7" horiz-adv-x="482" 
d="M443.11 654.41l-335.141 -654.41h-62.9199l327.25 640.42h-336.27v59.5801h407.08v-45.5898z" />
    <glyph glyph-name="eight" unicode="8" horiz-adv-x="567" 
d="M284.74 710.13c104.09 0 185.442 -73.8408 185.442 -183.061c0 -74.8496 -47.2803 -127.159 -97.3506 -149.589c65.6797 -24.1504 126.56 -89.79 126.56 -180.94c0 -126.51 -92.96 -208.54 -215.36 -208.54c-121.69 0 -216.801 82.0303 -216.801 208.54
c0 91.8604 59.4502 158.221 127.99 181.65c-48.6396 23.1504 -96.6396 75.46 -96.6396 148.88c0 109.21 81.3496 183.06 186.159 183.06zM284.743 651.488c-71.8701 0 -123.82 -54.1006 -123.82 -126.69c0 -70.4297 61.9805 -120.949 123.101 -120.949
c63.9902 0 123.82 49.7998 123.82 120.95c0 72.5898 -51.9502 126.689 -123.101 126.689zM284.023 346.728c-84.3203 0 -153.35 -64.7402 -153.35 -149.061c0 -86.46 66.8799 -150.479 153.35 -150.479c87.1797 0 151.92 64.0195 151.92 150.479
c0 84.3203 -72.6104 149.061 -151.92 149.061z" />
    <glyph glyph-name="nine" unicode="9" horiz-adv-x="575" 
d="M443.48 231.27l-0.00976562 134.379c-39.8799 -74.1396 -110.12 -97.2197 -165.71 -97.2197c-123.67 0 -220.61 97.46 -220.61 220.38s99.0195 221.09 223.439 221.09c124.43 0 222.729 -98.1797 222.729 -221.09v-253.97c0 -115.29 -73.7803 -246.85 -251.59 -246.85
c-82.6699 0 -142.979 33.6504 -175.489 61.3506l38.29 44.4502c28.6201 -24.5 76.5303 -46.6396 138.62 -46.6396c143.11 0 190.33 106.31 190.33 184.119zM280.591 650.988c-92 0 -160.521 -71.5811 -160.521 -162.181c0 -90.5898 68.1602 -161.46 160.521 -161.46
c93.7803 0 157.71 69.8701 159.82 161.46c0 90.1904 -67.8096 162.181 -159.819 162.181z" />
    <glyph glyph-name="zero.lf" horiz-adv-x="575" 
d="M68.6504 192.5l-0.0107422 307.551c0 143.64 89.2402 215.149 220.79 215.149c140.21 0 217.11 -85.3701 217.11 -216.07v-306.63c0 -152.09 -115.68 -203.5 -218.029 -203.5c-100.75 0 -219.86 51.2803 -219.86 203.5zM443.62 194.201v303.55
c0 99.3301 -53.1299 158.59 -154.229 158.59c-97.3301 0 -157.83 -49.7998 -157.83 -157.689v-304.44c0 -109.87 80.9102 -146.01 156.93 -146.01c76.7695 0 155.13 36.0195 155.13 146z" />
    <glyph glyph-name="one.lf" horiz-adv-x="330" 
d="M240.62 0h-59.8799v601.3c-16.2002 -18.3799 -35.3906 -31.9199 -55.9707 -42.4502c-25.9502 -12.1299 -53.3398 -18.8496 -75.1797 -21.3398l-15.2695 59.7002c29.2598 4.51953 58.8701 14.6592 84.3105 30.2588c28.75 17.0703 52.6299 40.8008 68.1895 72.5312h53.7998
v-700z" />
    <glyph glyph-name="two.lf" horiz-adv-x="474" 
d="M113.4 549.3l-61.1904 17.709c26.6396 81.8203 82.7197 143.44 196.96 143.44c107.02 0 181.97 -79.8096 181.97 -182.5c0 -50.79 -18.0498 -101.75 -54.2402 -147.38l-241.11 -321.98h295.35v-58.5996h-385.56v46.8398l274.61 362.44
c34.46 45 47.9902 84.5098 47.9902 120.58c0 69.4697 -49.8496 121.729 -119.01 121.729c-85.1504 0 -118.96 -47.0195 -135.77 -102.279z" />
    <glyph glyph-name="three.lf" horiz-adv-x="515" 
d="M118.09 574.62l-56.1494 23.3486c22.6904 55.4502 83.0508 112.16 170.951 112.16c104.09 0 185.439 -73.8496 185.439 -183.06c0 -74.8496 -47.2803 -127.159 -97.3506 -149.6c65.6797 -24.1504 126.56 -89.79 126.56 -180.94c0 -126.51 -92.96 -208.54 -215.36 -208.54
c-91.3701 0 -156.84 48.4902 -189.29 98.9004l49.4297 32.4502c28.1201 -43.4502 79.96 -72.1504 139.86 -72.1504c87.1797 0 151.92 64.0098 151.92 150.479c0 84.3203 -73.79 151.16 -157.17 151.16h-54.3301v53.0303h54.3301c68.2002 0 129.07 51.79 129.07 122.94
c0 72.5801 -51.9502 126.68 -123.101 126.68c-59.0098 0 -99.0498 -38.1797 -114.81 -76.8594z" />
    <glyph glyph-name="four.lf" horiz-adv-x="509" 
d="M402.5 241.1h61.1104v-56.5303h-61.1104v-184.57h-62.9199v184.57h-303.84v56.5303l300.63 459.04h66.1299v-459.04zM101.13 241.1h238.46v359.63z" />
    <glyph glyph-name="five.lf" horiz-adv-x="519" 
d="M404.4 641.13l-232.72 0.00878906l-23.1299 -210.71h92.3604c121.51 -1.78027 219.85 -96.21 219.85 -218.35c0 -123.57 -93.1201 -224.08 -227.13 -224.08c-86.8896 0 -158.21 49.9199 -189.94 101.76l49.4297 31.7305c26.6797 -44.1699 84.6201 -74.29 140.51 -74.29
c99.4902 0 163.721 78.7305 164.181 162.61c-0.44043 82.3799 -62.0908 161.78 -162.751 161.78h-148.76l36.7305 328.58h281.37v-59.04z" />
    <glyph glyph-name="six.lf" horiz-adv-x="600" 
d="M71.4902 209.37v253.972c0 115.29 73.7803 246.56 251.59 246.56c82.6699 0 142.979 -33.3604 175.489 -61.0508l-38.29 -44.46c-28.6201 24.5098 -76.5303 46.6494 -138.62 46.6494c-143.11 0 -190.33 -106.32 -190.33 -184.13v-134.38
c39.8799 74.1299 110.12 97.21 165.72 97.21c123.66 0 220.601 -97.4502 220.601 -220.37s-99.0098 -221.38 -223.439 -221.38c-124.42 0 -222.72 98.4697 -222.72 221.38zM294.221 370.842c-93.7803 0 -157.708 -69.8799 -159.818 -161.47
c0 -90.1797 67.8096 -162.18 159.819 -162.18c92 0 160.52 71.5898 160.52 162.18c0 90.5996 -68.1602 161.47 -160.521 161.47z" />
    <glyph glyph-name="seven.lf" horiz-adv-x="503" 
d="M443.11 654.41l-335.141 -654.41h-62.9199l327.25 640.42h-336.27v59.5801h407.08v-45.5898z" />
    <glyph glyph-name="eight.lf" horiz-adv-x="567" 
d="M284.74 710.13c104.09 0 185.442 -73.8408 185.442 -183.061c0 -74.8496 -47.2803 -127.159 -97.3506 -149.589c65.6797 -24.1504 126.56 -89.79 126.56 -180.94c0 -126.51 -92.96 -208.54 -215.36 -208.54c-121.69 0 -216.801 82.0303 -216.801 208.54
c0 91.8604 59.4502 158.221 127.99 181.65c-48.6396 23.1504 -96.6396 75.46 -96.6396 148.88c0 109.21 81.3496 183.06 186.159 183.06zM284.743 651.488c-71.8701 0 -123.82 -54.1006 -123.82 -126.69c0 -70.4297 61.9805 -120.949 123.101 -120.949
c63.9902 0 123.82 49.7998 123.82 120.95c0 72.5898 -51.9502 126.689 -123.101 126.689zM284.023 346.728c-84.3203 0 -153.35 -64.7402 -153.35 -149.061c0 -86.46 66.8799 -150.479 153.35 -150.479c87.1797 0 151.92 64.0195 151.92 150.479
c0 84.3203 -72.6104 149.061 -151.92 149.061z" />
    <glyph glyph-name="nine.lf" horiz-adv-x="575" 
d="M443.48 231.27l-0.00976562 134.379c-39.8799 -74.1396 -110.12 -97.2197 -165.71 -97.2197c-123.67 0 -220.61 97.46 -220.61 220.38s99.0195 221.09 223.439 221.09c124.43 0 222.729 -98.1797 222.729 -221.09v-253.97c0 -115.29 -73.7803 -246.85 -251.59 -246.85
c-82.6699 0 -142.979 33.6504 -175.489 61.3506l38.29 44.4502c28.6201 -24.5 76.5303 -46.6396 138.62 -46.6396c143.11 0 190.33 106.31 190.33 184.119zM280.591 650.988c-92 0 -160.521 -71.5811 -160.521 -162.181c0 -90.5898 68.1602 -161.46 160.521 -161.46
c93.7803 0 157.71 69.8701 159.82 161.46c0 90.1904 -67.8096 162.181 -159.819 162.181z" />
    <glyph glyph-name="zero.osf" horiz-adv-x="575" 
d="M68.6504 192.5l-0.0107422 101.551c0 143.64 89.2402 215.149 220.79 215.149c140.21 0 217.11 -85.3701 217.11 -216.07v-100.63c0 -152.09 -115.68 -203.5 -218.029 -203.5c-100.75 0 -219.86 51.2803 -219.86 203.5zM443.62 194.201v97.5498
c0 99.3301 -53.1299 158.59 -154.24 158.59c-97.3301 0 -157.83 -49.7998 -157.83 -157.689v-98.4404c0 -109.87 80.9199 -146.01 156.93 -146.01c76.7803 0 155.141 36.0195 155.141 146z" />
    <glyph glyph-name="one.osf" horiz-adv-x="458" 
d="M274.32 56.2998l112.131 -0.00195312v-56.2998h-289.11v56.2998h118.96v351.14c-16.1201 -17.1699 -34.7598 -29.9395 -54.5498 -39.9697c-23.8496 -11.0996 -48.3799 -17.6992 -68.0303 -20.2588l-13.5801 52.9404c25.8896 4.75977 52.6699 13.9102 76.2197 27.9805
c28.5303 16.5098 52.2803 39.79 67.71 71.0801h50.25v-442.91z" />
    <glyph glyph-name="two.osf" horiz-adv-x="472" 
d="M113.09 356.31l-60.8789 17.0293c26.7803 76.1904 84.0801 135.61 194.95 135.61c100.85 0 181.979 -69.0098 181.979 -173.16c0 -50.6299 -32.9102 -112.66 -106.771 -163.13l-166.22 -115.64h272.54v-57.0195h-385.11v46.4102l218.7 145.43
c61.3096 42.6201 103.899 98.8896 103.899 142.1c0 68.2305 -47.9902 118.181 -118.55 118.181c-83.6602 0 -119.94 -50.0703 -134.54 -95.8105z" />
    <glyph glyph-name="three.osf" horiz-adv-x="515" 
d="M118.1 373.51l-56.1484 22.9082c22.6904 55.4502 83.0508 112.16 170.951 112.16c104.1 0 185.449 -73.8496 185.449 -183.06c0 -74.8496 -47.29 -127.159 -97.3604 -149.6c65.6797 -24.1504 126.56 -89.79 126.56 -179.93c0 -127 -92.96 -209 -215.36 -209
c-91.3701 0 -156.851 49 -189.291 99l49.4297 33c28.1104 -44 79.96 -73 139.85 -73c87.1904 0 151.921 65 151.921 151c0 83.8896 -73.7803 150.729 -157.16 150.729h-54.3398v53.0303h54.3398c68.2002 0 129.07 51.79 129.07 122.94
c0 72.5801 -51.9502 126.68 -123.101 126.68c-59.0195 0 -99.0498 -38.1797 -114.81 -76.8594z" />
    <glyph glyph-name="four.osf" horiz-adv-x="509" 
d="M402.5 41.7402h61.1104v-56.7402h-61.1104v-184h-62.9199v184h-303.84v56.7402l300.63 459.03h66.1299v-459.03zM101.13 41.7402h238.46v359.63z" />
    <glyph glyph-name="five.osf" horiz-adv-x="519" 
d="M404.4 442.06l-232.72 -0.000976562l-23.1299 -210.71h92.3604c121.51 -1.78027 219.85 -96.21 219.85 -218.35c0 -123 -93.1201 -223 -227.13 -223c-86.8896 0 -158.21 49 -189.94 101l49.4297 32c26.6797 -44 84.6201 -74 140.51 -74
c99.4902 0 163.721 79 164.181 162.07c-0.44043 82.3799 -62.0908 161.78 -162.751 161.78h-148.76l36.7305 328.86h281.37v-59.6504z" />
    <glyph glyph-name="six.osf" horiz-adv-x="600" 
d="M71.4902 209.37v253.972c0 115.29 73.7803 246.56 251.59 246.56c82.6699 0 142.979 -33.3604 175.489 -61.0508l-38.29 -44.46c-28.6201 24.5098 -76.5303 46.6494 -138.62 46.6494c-143.11 0 -190.33 -106.32 -190.33 -184.13v-134.38
c39.8799 74.1299 110.12 97.21 165.72 97.21c123.66 0 220.601 -97.4502 220.601 -220.37s-99.0098 -221.38 -223.439 -221.38c-124.42 0 -222.72 98.4697 -222.72 221.38zM294.221 370.842c-93.7803 0 -157.708 -69.8799 -159.818 -161.47
c0 -90.1797 67.8096 -162.18 159.819 -162.18c92 0 160.52 71.5898 160.52 162.18c0 90.5996 -68.1602 161.47 -160.521 161.47z" />
    <glyph glyph-name="seven.osf" horiz-adv-x="503" 
d="M443.11 455.41l-335.141 -654.41h-62.9199l327.25 640.42h-336.27v59.5801h407.08v-45.5898z" />
    <glyph glyph-name="eight.osf" horiz-adv-x="567" 
d="M284.74 710.13c104.09 0 185.442 -73.8408 185.442 -183.061c0 -74.8496 -47.2803 -127.159 -97.3506 -149.589c65.6797 -24.1504 126.56 -89.79 126.56 -180.94c0 -126.51 -92.96 -208.54 -215.36 -208.54c-121.69 0 -216.801 82.0303 -216.801 208.54
c0 91.8604 59.4502 158.221 127.99 181.65c-48.6396 23.1504 -96.6396 75.46 -96.6396 148.88c0 109.21 81.3496 183.06 186.159 183.06zM284.743 651.488c-71.8701 0 -123.82 -54.1006 -123.82 -126.69c0 -70.4297 61.9805 -120.949 123.101 -120.949
c63.9902 0 123.82 49.7998 123.82 120.95c0 72.5898 -51.9502 126.689 -123.101 126.689zM284.023 346.728c-84.3203 0 -153.35 -64.7402 -153.35 -149.061c0 -86.46 66.8799 -150.479 153.35 -150.479c87.1797 0 151.92 64.0195 151.92 150.479
c0 84.3203 -72.6104 149.061 -151.92 149.061z" />
    <glyph glyph-name="nine.osf" horiz-adv-x="575" 
d="M443.48 29.8604l-0.0107422 133.939c-39.8799 -74.1396 -110.12 -97.2197 -165.71 -97.2197c-123.67 0 -220.61 97.46 -220.61 220.38s99.0195 221.09 223.439 221.09c124.37 0 222.73 -98.1699 222.73 -221.09v-253.96c0 -115 -73.7803 -246 -251.59 -246
c-82.6699 0 -142.979 33 -175.489 61l38.29 44c28.6201 -24 76.5303 -46 138.62 -46c143.11 0 190.33 106 190.33 183.86zM280.59 449.14c-92 0 -160.529 -71.5811 -160.529 -162.181c0 -90.5898 68.1602 -161.46 160.53 -161.46c93.7695 0 157.699 69.8701 159.81 161.46
c0 90.2002 -67.8604 162.181 -159.811 162.181z" />
    <glyph glyph-name="zero.tf" horiz-adv-x="575" 
d="M68.6504 192.5l-0.0107422 307.551c0 143.64 89.2402 215.149 220.79 215.149c140.21 0 217.11 -85.3701 217.11 -216.07v-306.63c0 -152.09 -115.68 -203.5 -218.029 -203.5c-100.75 0 -219.86 51.2803 -219.86 203.5zM443.62 194.201v303.55
c0 99.3301 -53.1299 158.59 -154.229 158.59c-97.3301 0 -157.83 -49.7998 -157.83 -157.689v-304.44c0 -109.87 80.9102 -146.01 156.93 -146.01c76.7695 0 155.13 36.0195 155.13 146z" />
    <glyph glyph-name="one.tf" horiz-adv-x="561" 
d="M319.58 57.7598l118.139 0.000976562v-57.7598h-302.53v57.7598h124.53v551.41c-16.3799 -18.5801 -35.8994 -32.2002 -56.8398 -42.7402c-25.7598 -11.9004 -52.7695 -18.5605 -74.3291 -21.041l-15.2695 59.7002c28.2197 4.4502 57.04 14.0303 82.1396 28.9102
c29.9297 17.1904 54.6299 41.5303 70.3604 73.8799h53.7998v-650.12z" />
    <glyph glyph-name="two.tf" horiz-adv-x="566" 
d="M113.4 549.3l-61.1904 17.709c26.6396 81.8203 82.7197 143.44 196.96 143.44c107.02 0 181.97 -79.8096 181.97 -182.5c0 -50.79 -18.0498 -101.75 -54.2402 -147.38l-241.11 -321.98h295.35v-58.5996h-385.56v46.8398l274.61 362.44
c34.46 45 47.9902 84.5098 47.9902 120.58c0 69.4697 -49.8496 121.729 -119.01 121.729c-85.1504 0 -118.96 -47.0195 -135.77 -102.279z" />
    <glyph glyph-name="three.tf" horiz-adv-x="564" 
d="M118.09 574.62l-56.1494 23.3486c22.6904 55.4502 83.0508 112.16 170.951 112.16c104.09 0 185.439 -73.8496 185.439 -183.06c0 -74.8496 -47.2803 -127.159 -97.3506 -149.6c65.6797 -24.1504 126.56 -89.79 126.56 -180.94c0 -126.51 -92.96 -208.54 -215.36 -208.54
c-91.3701 0 -156.84 48.4902 -189.29 98.9004l49.4297 32.4502c28.1201 -43.4502 79.96 -72.1504 139.86 -72.1504c87.1797 0 151.92 64.0098 151.92 150.479c0 84.3203 -73.79 151.16 -157.17 151.16h-54.3301v53.0303h54.3301c68.2002 0 129.07 51.79 129.07 122.94
c0 72.5801 -51.9502 126.68 -123.101 126.68c-59.0098 0 -99.0498 -38.1797 -114.81 -76.8594z" />
    <glyph glyph-name="four.tf" horiz-adv-x="570" 
d="M402.5 241.1h61.1104v-56.5303h-61.1104v-184.57h-62.9199v184.57h-303.84v56.5303l300.63 459.04h66.1299v-459.04zM101.13 241.1h238.46v359.63z" />
    <glyph glyph-name="five.tf" horiz-adv-x="570" 
d="M404.4 641.13l-232.72 0.00878906l-23.1299 -210.71h92.3604c121.51 -1.78027 219.85 -96.21 219.85 -218.35c0 -123.57 -93.1201 -224.08 -227.13 -224.08c-86.8896 0 -158.21 49.9199 -189.94 101.76l49.4297 31.7305c26.6797 -44.1699 84.6201 -74.29 140.51 -74.29
c99.4902 0 163.721 78.7305 164.181 162.61c-0.44043 82.3799 -62.0908 161.78 -162.751 161.78h-148.76l36.7305 328.58h281.37v-59.04z" />
    <glyph glyph-name="six.tf" horiz-adv-x="585" 
d="M71.4902 209.37v253.972c0 115.29 73.7803 246.56 251.59 246.56c82.6699 0 142.979 -33.3604 175.489 -61.0508l-38.29 -44.46c-28.6201 24.5098 -76.5303 46.6494 -138.62 46.6494c-143.11 0 -190.33 -106.32 -190.33 -184.13v-134.38
c39.8799 74.1299 110.12 97.21 165.72 97.21c123.66 0 220.601 -97.4502 220.601 -220.37s-99.0098 -221.38 -223.439 -221.38c-124.42 0 -222.72 98.4697 -222.72 221.38zM294.221 370.842c-93.7803 0 -157.708 -69.8799 -159.818 -161.47
c0 -90.1797 67.8096 -162.18 159.819 -162.18c92 0 160.52 71.5898 160.52 162.18c0 90.5996 -68.1602 161.47 -160.521 161.47z" />
    <glyph glyph-name="seven.tf" horiz-adv-x="558" 
d="M443.11 654.41l-335.141 -654.41h-62.9199l327.25 640.42h-336.27v59.5801h407.08v-45.5898z" />
    <glyph glyph-name="eight.tf" horiz-adv-x="571" 
d="M284.74 710.13c104.09 0 185.442 -73.8408 185.442 -183.061c0 -74.8496 -47.2803 -127.159 -97.3506 -149.589c65.6797 -24.1504 126.56 -89.79 126.56 -180.94c0 -126.51 -92.96 -208.54 -215.36 -208.54c-121.69 0 -216.801 82.0303 -216.801 208.54
c0 91.8604 59.4502 158.221 127.99 181.65c-48.6396 23.1504 -96.6396 75.46 -96.6396 148.88c0 109.21 81.3496 183.06 186.159 183.06zM284.743 651.488c-71.8701 0 -123.82 -54.1006 -123.82 -126.69c0 -70.4297 61.9805 -120.949 123.101 -120.949
c63.9902 0 123.82 49.7998 123.82 120.95c0 72.5898 -51.9502 126.689 -123.101 126.689zM284.023 346.728c-84.3203 0 -153.35 -64.7402 -153.35 -149.061c0 -86.46 66.8799 -150.479 153.35 -150.479c87.1797 0 151.92 64.0195 151.92 150.479
c0 84.3203 -72.6104 149.061 -151.92 149.061z" />
    <glyph glyph-name="nine.tf" horiz-adv-x="585" 
d="M443.48 231.27l-0.00976562 134.379c-39.8799 -74.1396 -110.12 -97.2197 -165.71 -97.2197c-123.67 0 -220.61 97.46 -220.61 220.38s99.0195 221.09 223.439 221.09c124.43 0 222.729 -98.1797 222.729 -221.09v-253.97c0 -115.29 -73.7803 -246.85 -251.59 -246.85
c-82.6699 0 -142.979 33.6504 -175.489 61.3506l38.29 44.4502c28.6201 -24.5 76.5303 -46.6396 138.62 -46.6396c143.11 0 190.33 106.31 190.33 184.119zM280.591 650.988c-92 0 -160.521 -71.5811 -160.521 -162.181c0 -90.5898 68.1602 -161.46 160.521 -161.46
c93.7803 0 157.71 69.8701 159.82 161.46c0 90.1904 -67.8096 162.181 -159.819 162.181z" />
    <glyph glyph-name="zero.tosf" horiz-adv-x="575" 
d="M68.7598 192.5l-0.000976562 101.551c0 143.64 89.2402 215.149 220.79 215.149c140.2 0 217.101 -85.3701 217.101 -216.07v-100.63c0 -152.09 -115.67 -203.5 -218.02 -203.5c-100.76 0 -219.87 51.2803 -219.87 203.5zM443.729 194.201v97.5498
c0 99.3301 -53.1299 158.59 -154.229 158.59c-97.3301 0 -157.83 -49.7998 -157.83 -157.689v-98.4404c0 -109.87 80.9102 -146.01 156.93 -146.01c76.7803 0 155.13 36.0195 155.13 146z" />
    <glyph glyph-name="one.tosf" horiz-adv-x="546" 
d="M314.15 56.2998l112.132 -0.000976562v-56.2998h-289.11v56.2998h118.96v351.14c-16.0703 -17.1299 -34.6299 -29.8799 -54.3398 -39.9102c-23.9004 -11.1396 -48.5107 -17.7598 -68.2412 -20.3193l-13.5801 52.9404c25.5898 4.73047 52.1396 13.7305 75.5693 27.5908
c28.8896 16.54 52.8799 40 68.3604 71.4697h50.25v-442.91z" />
    <glyph glyph-name="two.tosf" horiz-adv-x="586" 
d="M159.55 356.31l-60.8887 17.0293c26.7803 76.1797 84.0801 135.609 194.95 135.609c100.85 0 181.979 -69.0098 181.979 -173.17c0 -50.6299 -32.9102 -112.66 -106.771 -163.12l-166.22 -115.64h272.54v-57.0195h-385.11v46.4102l218.71 145.43
c61.2998 42.6104 103.899 98.8906 103.899 142.101c0 68.2305 -47.9902 118.181 -118.55 118.181c-83.6602 0 -119.94 -50.0703 -134.54 -95.8105z" />
    <glyph glyph-name="three.tosf" horiz-adv-x="564" 
d="M150.94 373.25l-56.1484 23.2588c22.7002 55.4502 83.0498 112.17 170.96 112.17c104.09 0 185.439 -73.8496 185.439 -183.069c0 -74.8496 -47.2803 -127.159 -97.3506 -149.589c65.6797 -24.1504 126.56 -89.7803 126.56 -180.021c0 -127 -92.96 -209 -215.37 -209
c-91.3701 0 -156.84 49 -189.29 99l49.4297 33c28.1201 -44 79.96 -73 139.86 -73c87.1797 0 151.92 65 151.92 151c0 83.6299 -73.79 150.47 -157.17 150.47h-54.3301v53.0303h54.3301c68.2002 0 129.07 51.7803 129.07 122.931
c0 72.5898 -51.9502 126.689 -123.101 126.689c-59.0098 0 -99.0498 -38.1904 -114.81 -76.8701z" />
    <glyph glyph-name="four.tosf" horiz-adv-x="570" 
d="M436.16 41.7402h61.1201v-56.7402h-61.1201v-184h-62.9102v184h-303.84v56.7402l300.62 459.03h66.1299v-459.03zM134.79 41.7402h238.46v359.63z" />
    <glyph glyph-name="five.tosf" horiz-adv-x="570" 
d="M433.77 442.06l-232.729 -0.000976562l-23.1201 -210.71h92.3604c121.5 -1.78027 219.84 -96.21 219.84 -218.35c0 -123 -93.1104 -223 -227.12 -223c-86.8896 0 -158.21 49 -189.94 101l49.4297 32c26.6797 -44 84.6201 -74 140.51 -74
c99.4902 0 163.721 79 164.181 162.07c-0.44043 82.3799 -62.0908 161.78 -162.761 161.78h-148.76l36.7402 328.86h281.37v-59.6504z" />
    <glyph glyph-name="six.tosf" horiz-adv-x="586" 
d="M78.6504 209.37v253.972c0 115.29 73.7803 246.56 251.59 246.56c82.6699 0 142.979 -33.3604 175.489 -61.0508l-38.29 -44.46c-28.6201 24.5098 -76.5303 46.6494 -138.62 46.6494c-143.11 0 -190.33 -106.32 -190.33 -184.13v-134.38
c39.8799 74.1299 110.12 97.21 165.72 97.21c123.66 0 220.601 -97.4502 220.601 -220.37s-99.0098 -221.38 -223.439 -221.38c-124.42 0 -222.72 98.4697 -222.72 221.38zM301.381 370.842c-93.7803 0 -157.708 -69.8799 -159.818 -161.47
c0 -90.1797 67.8096 -162.18 159.819 -162.18c92 0 160.52 71.5898 160.52 162.18c0 90.5996 -68.1602 161.47 -160.521 161.47z" />
    <glyph glyph-name="seven.tosf" horiz-adv-x="558" 
d="M493.25 455.41l-335.141 -654.41h-62.9199l327.25 640.42h-336.27v59.5801h407.08v-45.5898z" />
    <glyph glyph-name="eight.tosf" horiz-adv-x="571" 
d="M283.31 710.13c104.09 0 185.441 -73.8408 185.441 -183.061c0 -74.8496 -47.2803 -127.159 -97.3506 -149.589c65.6797 -24.1504 126.56 -89.79 126.56 -180.94c0 -126.51 -92.96 -208.54 -215.37 -208.54c-121.69 0 -216.79 82.0303 -216.79 208.54
c0 91.8604 59.4404 158.221 127.99 181.65c-48.6396 23.1504 -96.6396 75.46 -96.6396 148.88c0 109.21 81.3496 183.06 186.159 183.06zM283.312 651.488c-71.8701 0 -123.82 -54.1006 -123.82 -126.69c0 -70.4297 61.9805 -120.949 123.101 -120.949
c63.9902 0 123.82 49.7998 123.82 120.95c0 72.5898 -51.9502 126.689 -123.101 126.689zM282.592 346.728c-84.3203 0 -153.341 -64.7402 -153.341 -149.061c0 -86.46 66.8799 -150.479 153.34 -150.479c87.1904 0 151.921 64.0195 151.921 150.479
c0 84.3203 -72.6104 149.061 -151.92 149.061z" />
    <glyph glyph-name="nine.tosf" horiz-adv-x="586" 
d="M455.66 29.8604l-0.00976562 133.939c-39.8799 -74.1396 -110.12 -97.2197 -165.72 -97.2197c-123.66 0 -220.601 97.46 -220.601 220.38s99.0098 221.09 223.439 221.09c124.36 0 222.721 -98.1699 222.721 -221.09v-253.96c0 -115 -73.7695 -246 -251.59 -246
c-82.6602 0 -142.98 33 -175.48 61l38.29 44c28.6104 -24 76.5205 -46 138.62 -46c143.1 0 190.33 106 190.33 183.86zM292.771 449.14c-92 0 -160.53 -71.5811 -160.53 -162.181c0 -90.5898 68.1602 -161.46 160.521 -161.46c93.7803 0 157.71 69.8701 159.82 161.46
c0 90.2002 -67.8701 162.181 -159.811 162.181z" />
    <glyph glyph-name="fraction" unicode="&#x2044;" horiz-adv-x="380" 
d="M97.4902 0h-57.4902l243 700h57.4902z" />
    <glyph glyph-name="onehalf" unicode="&#xbd;" horiz-adv-x="729" 
d="M180.33 279l-47.8691 -0.00976562v342.62c-9.42969 -8.5498 -21.1699 -15.8096 -33.9102 -21.1094c-14.4805 -5.37012 -29.2803 -8.69043 -42.04 -9.27051l-12.1904 46.6299c13.5898 1.91992 31.5703 7.63965 48.1104 16.4199
c19.4199 9.46973 37.04 24.96 45.8896 45.7197h42.0098v-421zM237.961 -0.00976562h-57.4902l243 700h57.4902zM498.65 323.521l-47.2402 12.4795c16.5 50.3799 50.4297 91.04 121.83 91.04c66.3799 0 111.93 -49.4502 111.93 -112.44
c0 -29.5303 -9.78027 -61.2002 -32.7803 -89.2998l-136.26 -179.97h169.04v-45.3398h-236.71v35.1602l162.31 213.58c20.8398 26.3701 25.8203 48.9502 25.8203 66.9502c0 36.4697 -24.7197 66.0996 -63.3496 66.0996c-45.4404 0 -65.04 -26.3301 -74.5898 -58.2598z" />
    <glyph glyph-name="onequarter" unicode="&#xbc;" horiz-adv-x="709" 
d="M180.33 279h-47.8799v342.62c-9.16016 -8.2998 -20.29 -15.4502 -32.4697 -20.7402c-14.8701 -5.63965 -30.3398 -9.08008 -43.4795 -9.63965l-12.1797 46.6201c13.9199 1.91016 32.4297 7.81055 49.25 16.9805c18.9297 9.50977 35.9795 24.8096 44.749 45.1592h42.0098
v-421zM234.55 0h-57.5l243 700h57.5zM629.25 153.29h35.3486v-45.7305h-35.3496v-107.56h-49.3398v107.56h-177.56v40.3203l178.78 273.15h48.1201v-267.74zM453.749 153.29h127.97v195.84z" />
    <glyph glyph-name="threequarters" unicode="&#xbe;" horiz-adv-x="790" 
d="M98.9697 619.87l-44.0879 18.041c17.2695 42.9199 57.8896 71.8799 106.659 71.8799c60.7402 0 110.62 -44.7305 110.62 -111.08c0 -40.6699 -20.4004 -68.0303 -49.0303 -84.1504c45.4297 -21.29 71.4492 -62.4697 71.4492 -110.12
c0 -75.0195 -57.8398 -128.64 -133.76 -128.64c-50.3398 0 -91.8203 25.4404 -116.49 62.79l38.9404 24.9404c15.3301 -24.8604 44.4502 -40.6201 77.0801 -40.6201c49.6797 0 85.5898 34.7197 85.5898 84.7393c0 48.29 -39.8398 84.1201 -85.1094 84.1201h-36.4199v41.75
h34.8896c35.0098 0 65.2793 26.46 65.2793 63.8096c0 37.46 -27.6602 65.3896 -64.1602 65.3896c-28.6504 0 -51.4805 -16.4697 -61.4502 -42.8496zM316.212 -0.00878906h-57.5l243 700h57.5zM710.912 153.281h35.3496v-45.7305h-35.3496v-107.56h-49.3301v107.56h-177.56
v40.3203l178.77 273.15h48.1201v-267.74zM535.412 153.281h127.98v195.84z" />
    <glyph glyph-name="oneeighth" unicode="&#x215b;" horiz-adv-x="736" 
d="M180.33 279h-47.8682v342.62c-9.09961 -8.24023 -20.0801 -15.3604 -32.1201 -20.6406c-14.9502 -5.70996 -30.6006 -9.17969 -43.8311 -9.73926l-12.1904 46.6201c13.6904 1.91992 31.8301 7.68945 48.46 16.5898c19.2695 9.48047 36.71 24.9102 45.54 45.5498h42.0098
v-421zM237.962 0h-57.5l243 700h57.5zM562.021 427.28c63.8398 0 112.879 -45.9092 112.879 -111.469c0 -55.6396 -38.0195 -79.6699 -53 -88.5195c19.5303 -9.69043 70.2705 -41.6807 70.2705 -107.621c0 -75.9805 -59.0996 -126.671 -130.569 -126.671
s-131.41 49.0098 -131.41 126.67c0 67.6201 50.8896 98.7402 71.1201 108.23c-14.7002 9.01953 -52.5898 34.9092 -52.5898 87.8994c0 62.8701 49.2998 111.48 113.3 111.48zM562.021 382.642c-39.7695 0 -66.3809 -33.3096 -66.3809 -68.5
c0 -35.1797 32.3096 -65.1299 65.96 -65.1299s66.3809 26.8604 66.3809 65.1299c0 38.2197 -26.0596 68.5 -65.96 68.5zM561.6 203.941c-52.4102 0 -84.6387 -43.9209 -84.6387 -82.2412s29.9297 -83.0898 84.6396 -83.0898s83.7998 43.2305 83.7998 83.0908
s-35.2305 82.2402 -83.8008 82.2402z" />
    <glyph glyph-name="threeeighths" unicode="&#x215c;" horiz-adv-x="809" 
d="M98.9697 619.87l-44.0879 18.041c17.2695 42.9199 57.8896 71.8799 106.659 71.8799c60.7402 0 110.62 -44.7305 110.62 -111.08c0 -40.6699 -20.4004 -68.0303 -49.0303 -84.1504c45.4297 -21.29 71.4492 -62.4697 71.4492 -110.12
c0 -75.0195 -57.8398 -128.64 -133.76 -128.64c-50.3398 0 -91.8203 25.4404 -116.49 62.79l38.9404 24.9404c15.3301 -24.8604 44.4502 -40.6201 77.0801 -40.6201c49.6797 0 85.5898 34.7197 85.5898 84.7393c0 48.29 -39.8398 84.1201 -85.1094 84.1201h-36.4199v41.75
h34.8896c35.0098 0 65.2793 26.46 65.2793 63.8096c0 37.46 -27.6602 65.3896 -64.1602 65.3896c-28.6504 0 -51.4805 -16.4697 -61.4502 -42.8496zM317.651 -0.00878906h-57.5l243 700h57.5zM635.201 427.271c64 0 112.879 -45.959 112.879 -111.469
c0 -55.6299 -38.0195 -79.6602 -53 -88.5205c19.5303 -9.69043 70.2705 -41.6807 70.2705 -107.61c0 -75.9805 -59.0898 -126.671 -130.56 -126.671s-131.42 49 -131.42 126.66c0 67.6201 50.9004 98.75 71.1201 108.23c-14.7002 9.03027 -52.5801 34.9199 -52.5801 87.9102
c0 62.8896 49.0996 111.47 113.29 111.47zM635.21 382.643c-39.5898 0 -66.3809 -33.3496 -66.3809 -68.5c0 -35.1904 32.3096 -65.1406 65.96 -65.1406s66.3809 26.8604 66.3809 65.1406c0 38.2695 -26.1904 68.5 -65.96 68.5zM634.779 203.942
c-52.4102 0 -84.6396 -43.9297 -84.6396 -82.25s29.9404 -83.0801 84.6504 -83.0801s83.7998 43.2305 83.7998 83.0801c0 39.9199 -35.3701 82.25 -83.8105 82.25z" />
    <glyph glyph-name="fiveeighths" unicode="&#x215d;" horiz-adv-x="809" 
d="M256.2 654.71l-137.66 -0.00976562l-12.1797 -111.76h50.6201c65.0596 -0.820312 132.64 -47.7207 132.64 -133.211c0 -92.4805 -75.1299 -137.53 -139.41 -137.53c-57.8701 0 -100.8 37.1104 -116.63 62.4199l39 24.8604
c14.4902 -24.0596 46.5303 -41.9893 77.6299 -41.9893c55.9004 0 90.5303 46.1797 90.7803 90.96c-0.259766 45.2305 -34.3994 89.4102 -89.9297 89.4102h-94.3301l22.6201 202.14h176.85v-45.29zM317.271 -0.00976562h-57.4902l243 700h57.4902zM635.19 427.26
c64 0 112.879 -45.9482 112.879 -111.458c0 -55.6396 -38.0195 -79.6699 -53 -88.5195c19.5303 -9.69043 70.2705 -41.6807 70.2705 -107.621c0 -75.9805 -59.0898 -126.671 -130.56 -126.671s-131.42 49.0098 -131.42 126.67c0 67.6201 50.9004 98.7402 71.1201 108.23
c-14.7002 9.01953 -52.5801 34.9092 -52.5801 87.8994c0 62.8896 49.0996 111.47 113.29 111.47zM635.199 382.632c-39.5898 0 -66.3809 -33.3398 -66.3809 -68.5c0 -35.1797 32.3096 -65.1299 65.96 -65.1299s66.3809 26.8604 66.3809 65.1299
c0 38.2803 -26.1904 68.5 -65.96 68.5zM634.769 203.932c-52.4102 0 -84.6396 -43.9209 -84.6396 -82.2412s29.9404 -83.0898 84.6504 -83.0898s83.7998 43.2305 83.7998 83.0908c0 39.9199 -35.3701 82.2402 -83.8105 82.2402z" />
    <glyph glyph-name="seveneighths" unicode="&#x215e;" horiz-adv-x="710" 
d="M280.88 665.29l-193.351 -376.93h-50.1299l187.08 366.02h-192.31v45.6201h248.71v-34.71zM215.839 0h-57.4902l243 700h57.4902zM536.528 427.27c64 0 112.879 -45.9482 112.879 -111.458c0 -55.6396 -38.0195 -79.6699 -53.0098 -88.5195
c19.54 -9.69043 70.2803 -41.6807 70.2803 -107.621c0 -75.9805 -59.0996 -126.671 -130.569 -126.671s-131.41 49.0098 -131.41 126.67c0 67.6201 50.8896 98.7402 71.1201 108.23c-14.7002 9.01953 -52.5801 34.9092 -52.5801 87.8994
c0 62.8896 49.0996 111.47 113.29 111.47zM536.527 382.642c-39.5801 0 -66.3809 -33.3398 -66.3809 -68.5c0 -35.1797 32.3096 -65.1299 65.96 -65.1299s66.3809 26.8604 66.3809 65.1299c0 38.2803 -26.1904 68.5 -65.96 68.5zM536.106 203.941
c-52.4102 0 -84.6387 -43.9209 -84.6387 -82.2412s29.9297 -83.0898 84.6396 -83.0898s83.8096 43.2305 83.8096 83.0908c0 39.9199 -35.3701 82.2402 -83.8105 82.2402z" />
    <glyph glyph-name="zero.dnom" horiz-adv-x="361" 
d="M44.3203 127.66l-0.000976562 165.76c0 73.79 41.6602 133.83 137.141 133.83c95.4502 0 134.95 -64.0703 134.95 -134.38v-165.76c0 -73.7695 -41.6797 -134.109 -137.14 -134.109c-95.4502 0 -134.95 64.3496 -134.95 134.659zM266.359 125.37v169.251
c0 45.4297 -23.6699 87.4795 -84.9297 87.4795c-61.25 0 -87.0596 -37.5703 -87.0596 -86.9502v-169.25c0 -45.4199 23.6699 -87.4697 84.9199 -87.4697c61.2598 0 87.0693 37.5596 87.0693 86.9395z" />
    <glyph glyph-name="one.dnom" horiz-adv-x="200" 
d="M156.26 0l-47.8701 -0.000976562v342.62c-9.12988 -8.25977 -20.1602 -15.3896 -32.25 -20.6797c-14.9199 -5.67969 -30.5098 -9.13965 -43.7002 -9.69922l-12.1904 46.6201c13.9102 1.91016 32.3906 7.7998 49.2109 16.96c18.9404 9.5 36.0205 24.8096 44.79 45.1797
h42.0098v-421z" />
    <glyph glyph-name="two.dnom" horiz-adv-x="298" 
d="M81.54 323.53l-47.2402 12.4688c16.5 50.3896 50.4297 91.04 121.83 91.04c66.3799 0 111.93 -49.4404 111.93 -112.44c0 -29.5195 -9.78027 -61.1895 -32.7803 -89.2891l-136.26 -179.97h169.04v-45.3398h-236.71v35.1602l162.31 213.58
c20.8398 26.3604 25.8203 48.9404 25.8203 66.9502c0 36.4697 -24.7197 66.0996 -63.3496 66.0996c-45.4404 0 -65.04 -26.3398 -74.5898 -58.2598z" />
    <glyph glyph-name="three.dnom" horiz-adv-x="322" 
d="M90.3604 337.34l-44.0879 18.0527c17.2695 42.9199 57.8994 71.8799 106.669 71.8799c60.7402 0 110.62 -44.7305 110.62 -111.08c0 -40.6699 -20.4102 -68.0303 -49.0303 -84.1504c45.5498 -21.3701 71.4395 -62.4805 71.4395 -110.12
c0 -75.0195 -57.8398 -128.92 -133.76 -128.92c-50.3398 0 -91.8203 25.7197 -116.49 63.0693l38.9404 24.9404c15.3301 -24.8604 44.4502 -40.6201 77.0801 -40.6201c49.6797 0 85.5898 34.7197 85.5898 84.7393c0 48.29 -39.8398 84.1201 -85.1094 84.1201h-36.4199v41.75
h34.8896c35.0098 0 65.2793 26.46 65.2793 63.8096c0 37.46 -27.6602 65.3896 -64.1602 65.3896c-28.6504 0 -51.4805 -16.4805 -61.4502 -42.8604z" />
    <glyph glyph-name="four.dnom" horiz-adv-x="315" 
d="M249.73 153.29l35.3486 -0.0107422v-45.7197h-35.3496v-107.57h-49.3398v107.57h-177.56v40.3203l178.78 273.15h48.1201v-267.74zM74.2295 153.279h127.97v195.84z" />
    <glyph glyph-name="five.dnom" horiz-adv-x="323" 
d="M256.2 375.78l-137.661 -0.00976562l-12.1797 -111.75h50.3701c65.1904 0 132.891 -47.6396 132.891 -133.22c0 -92.4805 -75.1299 -137.82 -139.41 -137.82c-57.8701 0 -100.8 37.3896 -116.63 62.6992l39 24.8701c14.4902 -24.0596 46.5303 -41.9893 77.6299 -41.9893
c55.9004 0 90.5303 46.1797 90.7803 90.96c-0.259766 45.2305 -34.3994 89.4102 -89.9297 89.4102h-94.3301l22.6201 202.14h176.85v-45.29z" />
    <glyph glyph-name="six.dnom" horiz-adv-x="352" 
d="M44.3203 127.14l-0.00292969 146.979c0 85.1904 58.5303 150.971 153.931 150.971c59.9404 0 94.71 -26.7002 106.95 -37.2402l-29.3398 -33.9805c-17.3496 14.8398 -43.6396 25.4502 -78.4092 25.4502c-64.71 0 -105.76 -43.7998 -106.84 -101.17v-65.0098
c12.1504 15.6602 40.5107 47.3105 92.2207 47.3105c72.8604 0 135.73 -57.5801 135.73 -133.311c0 -76.9697 -62.6699 -136.14 -137.33 -136.14c-74.5801 0 -136.91 59.1299 -136.91 136.14zM181.228 215.239c-54.6299 0 -88.29 -42.2383 -88.29 -89.2285
c0 -46.9502 34.7598 -89.6406 88.29 -89.6406c53.6504 0 88.71 42.5195 88.71 89.6396c0 47.0898 -33.8096 89.2295 -88.71 89.2295z" />
    <glyph glyph-name="seven.dnom" horiz-adv-x="310" 
d="M280.88 376.93l-193.351 -376.93h-50.1299l187.08 366.02h-192.31v45.6201h248.71v-34.71z" />
    <glyph glyph-name="eight.dnom" horiz-adv-x="336" 
d="M169 427.27c64 0 112.869 -45.96 112.869 -111.47c0 -55.6299 -38.0195 -79.6602 -53 -88.5205c19.5303 -9.69043 70.2705 -41.6807 70.2705 -107.61c0 -75.9805 -59.0898 -126.671 -130.56 -126.671s-131.41 49 -131.41 126.66c0 67.6201 50.8896 98.75 71.1201 108.23
c-14.7002 9.03027 -52.5898 34.9199 -52.5898 87.9102c0 62.8604 49.2998 111.471 113.3 111.471zM168.989 382.64c-39.7803 0 -66.3809 -33.3203 -66.3809 -68.5c0 -35.1904 32.3096 -65.1406 65.96 -65.1406s66.3701 26.8604 66.3701 65.1406
c0 38.2695 -26.1797 68.5 -65.9492 68.5zM168.559 203.939c-52.4004 0 -84.6387 -43.9297 -84.6387 -82.25s29.9297 -83.0801 84.6396 -83.0801s83.8096 43.2305 83.8096 83.0801s-35.2402 82.25 -83.8105 82.25z" />
    <glyph glyph-name="nine.dnom" horiz-adv-x="352" 
d="M261.53 140.51l0.000976562 64.8496c-12.1504 -15.6602 -40.5107 -47.3105 -92.2207 -47.3105c-72.8604 0 -135.73 57.5801 -135.73 133.311c0 76.9199 62.75 136 137.33 136s136.91 -59 136.91 -136v-146.97c0 -85.2002 -58.5303 -151.4 -153.931 -151.4
c-59.8896 0 -94.5693 27.0303 -106.949 37.6602l29.3398 33.9805c17.3496 -14.8398 43.6396 -25.4502 78.4092 -25.4502c64.7803 0 105.94 43.9199 106.841 101.33zM170.921 382.14c-53.5498 0 -88.7217 -42.5518 -88.7217 -89.6416
c0 -47.1299 34.0703 -89.2295 88.7207 -89.2295c54.6201 0 88.2803 42.2402 88.2803 89.2207c0 46.96 -34.7598 89.6504 -88.2793 89.6504z" />
    <glyph glyph-name="zero.numr" horiz-adv-x="361" 
d="M44.3203 409.98l0.00976562 165.76c0 73.79 41.6602 133.83 137.13 133.83c95.5 0 135.13 -64.1904 134.95 -134.381v-165.76c0 -73.7695 -41.6797 -133.829 -137.14 -133.829c-95.4502 0 -134.95 64.0703 -134.95 134.38zM266.37 407.69v169.25
c0 45.4404 -23.8496 87.4805 -84.9297 87.4805c-61.25 0 -87.0596 -37.5703 -87.0596 -86.9502v-169.25c0 -45.4199 23.6699 -87.4697 84.9199 -87.4697c61.2598 0 87.0693 37.5596 87.0693 86.9395z" />
    <glyph glyph-name="one.numr" horiz-adv-x="200" 
d="M156.26 279l-47.8711 -0.000976562v342.61c-9.12012 -8.25 -20.1396 -15.3799 -32.2295 -20.6699c-14.9199 -5.67969 -30.5195 -9.13965 -43.7197 -9.69922l-12.1797 46.6201c14.4004 1.88965 33.6602 8.08008 50.8398 17.8398
c18.2197 9.53027 34.5 24.54 43.1504 44.2998h42.0098v-421z" />
    <glyph glyph-name="two.numr" horiz-adv-x="298" 
d="M81.54 601.88l-47.2402 12.4688c16.5 50.3896 50.4297 91.04 121.83 91.04c66.3799 0 111.93 -49.4404 111.93 -112.44c0 -29.5195 -9.78027 -61.1895 -32.7803 -89.2891l-136.26 -179.97h169.04v-45.3398h-236.71v35.1602l162.31 213.58
c20.8398 26.3604 25.8203 48.9404 25.8203 66.9502c0 36.4697 -24.7197 66.0996 -63.3496 66.0996c-45.4404 0 -65.04 -26.3398 -74.5898 -58.2598z" />
    <glyph glyph-name="three.numr" horiz-adv-x="322" 
d="M89.6396 619.87l-44.0869 18.041c17.2695 42.9199 57.8994 71.8799 106.669 71.8799c60.7402 0 110.62 -44.7305 110.62 -111.08c0 -40.6699 -20.4102 -68.0303 -49.0303 -84.1504c45.4297 -21.29 71.4395 -62.4697 71.4395 -110.12
c0 -75.0195 -57.8301 -128.64 -133.75 -128.64c-50.3496 0 -91.8301 25.4404 -116.5 62.79l38.9404 24.9404c15.3301 -24.8604 44.4502 -40.6201 77.0898 -40.6201c49.6699 0 85.5801 34.7197 85.5801 84.7393c0 48.29 -39.8301 84.1201 -85.1104 84.1201h-36.4102v41.75
h34.8799c35.0195 0 65.2793 26.46 65.2793 63.8096c0 37.46 -27.6504 65.3896 -64.1602 65.3896c-28.6396 0 -51.4697 -16.4697 -61.4502 -42.8496z" />
    <glyph glyph-name="four.numr" horiz-adv-x="315" 
d="M249.73 432.33l35.3486 -0.0107422v-45.7197h-35.3496v-107.57h-49.3398v107.57h-177.56v40.3203l178.78 273.15h48.1201v-267.74zM74.2295 432.319h127.97v195.84z" />
    <glyph glyph-name="five.numr" horiz-adv-x="323" 
d="M256.2 654.71l-137.659 -0.0107422l-12.1797 -111.75h50.2197c65.2695 0 133.039 -47.5898 133.039 -133.22c0 -92.4805 -75.1299 -137.53 -139.41 -137.53c-57.8701 0 -100.8 37.1104 -116.63 62.4199l39 24.8604c14.4902 -24.0596 46.5303 -41.9893 77.6299 -41.9893
c55.9004 0 90.5303 46.1797 90.7803 90.96c-0.259766 45.2305 -34.3994 89.4102 -89.9297 89.4102h-94.3301l22.6201 202.14h176.85v-45.29z" />
    <glyph glyph-name="six.numr" horiz-adv-x="352" 
d="M44.3203 411.07l0.00878906 146.971c0 85.2002 58.5303 150.98 153.931 150.98c59.9404 0 94.71 -26.7002 106.95 -37.2402l-29.3398 -33.9805c-17.3604 14.8398 -43.6406 25.4502 -78.4209 25.4502c-64.8799 0 -106.07 -44.0801 -106.84 -101.561v-64.6201
c12.1504 15.6602 40.5107 47.3105 92.2207 47.3105c72.8604 0 135.73 -57.5801 135.73 -133.311c0 -76.96 -62.6699 -136 -137.33 -136c-74.5801 0 -136.91 59 -136.91 136zM181.229 499.161c-54.6201 0 -88.2793 -42.2383 -88.2793 -89.2188
c0 -46.96 34.7598 -89.6504 88.2793 -89.6504c53.6504 0 88.7207 42.5195 88.7207 89.6494c0 47.0898 -33.8203 89.2197 -88.7207 89.2197z" />
    <glyph glyph-name="seven.numr" horiz-adv-x="310" 
d="M280.88 665.29l-193.351 -376.93h-50.1299l187.08 366.02h-192.31v45.6201h248.71v-34.71z" />
    <glyph glyph-name="eight.numr" horiz-adv-x="336" 
d="M169 709.15c64 0 112.879 -45.9697 112.879 -111.479c0 -55.6299 -38.0195 -79.6602 -53 -88.5205c19.5303 -9.69043 70.2705 -41.6807 70.2705 -107.61c0 -75.9805 -59.0996 -126.391 -130.569 -126.391s-131.41 48.7305 -131.41 126.391
c0 67.6201 50.8896 98.75 71.1201 108.23c-14.7002 9.01953 -52.5898 34.9092 -52.5898 87.9092c0 62.8604 49.2998 111.471 113.3 111.471zM168.999 664.511c-39.7695 0 -66.3809 -33.3203 -66.3809 -68.5c0 -35.1904 32.3096 -65.1406 65.96 -65.1406
s66.3809 26.8604 66.3809 65.1406c0 38.2695 -26.1797 68.5 -65.96 68.5zM168.578 485.811c-52.4102 0 -84.6494 -43.9297 -84.6494 -82.25s29.9297 -83.0801 84.6396 -83.0801s83.8096 43.2305 83.8096 83.0801s-35.2402 82.25 -83.7998 82.25z" />
    <glyph glyph-name="nine.numr" horiz-adv-x="352" 
d="M261.53 422.75l0.00195312 64.2607c-12.1504 -15.6602 -40.5107 -47.3105 -92.2207 -47.3105c-72.8604 0 -135.73 57.5801 -135.73 133.311c0 76.9297 62.75 136.01 137.33 136.01s136.91 -59 136.91 -136.01v-146.97c0 -85.2002 -58.5303 -151.11 -153.931 -151.11
c-59.8896 0 -94.5693 26.7402 -106.959 37.3799l29.3496 33.9805c17.3496 -14.8398 43.6396 -25.4502 78.4092 -25.4502c65.04 0 106.32 44.3496 106.84 101.909zM170.922 663.791c-53.5498 0 -88.7217 -42.5518 -88.7217 -89.6416
c0 -47.1299 34.0703 -89.2295 88.7207 -89.2295c54.6201 0 88.2803 42.2402 88.2803 89.2305c0 46.9502 -34.7598 89.6406 -88.2793 89.6406z" />
    <glyph glyph-name="onesuperior" unicode="&#xb9;" horiz-adv-x="198" 
d="M156.26 279l-47.8604 -0.000976562v342.61c-9.26953 -8.38965 -20.6396 -15.5898 -33.04 -20.8896c-14.7197 -5.53027 -29.9297 -8.91992 -42.9199 -9.49023l-12.1797 46.6299c14.5801 1.87988 34.1396 8.17969 51.4395 18.1699
c17.9404 9.53027 33.9404 24.4307 42.5508 43.9707h42.0098v-421z" />
    <glyph glyph-name="twosuperior" unicode="&#xb2;" horiz-adv-x="298" 
d="M81.54 601.88l-47.2402 12.4688c16.5 50.3896 50.4297 91.04 121.83 91.04c66.3799 0 111.93 -49.4404 111.93 -112.44c0 -29.5195 -9.78027 -61.1895 -32.7803 -89.2891l-136.26 -179.97h169.04v-45.3398h-236.71v35.1602l162.31 213.58
c20.8398 26.3604 25.8203 48.9404 25.8203 66.9502c0 36.4697 -24.7197 66.0996 -63.3496 66.0996c-45.4404 0 -65.04 -26.3398 -74.5898 -58.2598z" />
    <glyph glyph-name="threesuperior" unicode="&#xb3;" horiz-adv-x="325" 
d="M89.6396 619.87l-44.0869 18.041c17.2695 42.9199 57.8896 71.8799 106.659 71.8799c60.7402 0 110.62 -44.7305 110.62 -111.08c0 -40.6699 -20.4004 -68.0303 -49.0303 -84.1504c45.4297 -21.29 71.4492 -62.4697 71.4492 -110.12
c0 -75.04 -54.79 -128.64 -133.75 -128.64c-50.3496 0 -91.8301 25.4404 -116.5 62.79l38.9404 24.9404c15.3301 -24.8604 44.4502 -40.6201 77.0898 -40.6201c49.6699 0 85.5801 34.7197 85.5801 84.7393c0 48.29 -39.8301 84.1201 -85.1104 84.1201h-36.4102v41.75
h34.8799c35.0195 0 65.2793 26.46 65.2793 63.8096c0 37.46 -27.6504 65.3896 -64.1602 65.3896c-28.6396 0 -51.4697 -16.4697 -61.4502 -42.8496z" />
    <glyph glyph-name="asterisk" unicode="*" horiz-adv-x="403" 
d="M225.51 566.51l126.682 49.5596l15.5996 -46.2695l-128.28 -42.0498l82.8604 -103.62l-39.9697 -29.4502l-76.6201 108.26l-74.2803 -108.89l-39.1904 28.1104l77.4199 104.36l-126.9 42.3496l15.71 46.2305l122.95 -49.3203l-2.7002 134.22h49.3701z" />
    <glyph glyph-name="backslash" unicode="\" horiz-adv-x="379" 
d="M346.03 0h-63.0498l-242.98 700h63.0498z" />
    <glyph glyph-name="bullet" unicode="&#x2022;" horiz-adv-x="303" 
d="M153.54 431.1c61.3496 0 111.43 -50.0801 111.43 -111.43s-50.0801 -110.71 -111.43 -110.71s-110.71 49.3604 -110.71 110.71s49.3604 111.43 110.71 111.43z" />
    <glyph glyph-name="colon" unicode=":" horiz-adv-x="142" 
d="M74.6396 437.4c20.4805 0 37.7002 -17.2197 37.7002 -37.7002s-17.2197 -37.6904 -37.7002 -37.6904c-20.4902 0 -37.7598 17.21 -37.7598 37.6904s17.2695 37.7002 37.7598 37.7002zM74.6797 72.2607c20.4902 0 37.7002 -17.21 37.7002 -37.7002
c0 -20.4805 -17.21 -37.5703 -37.7002 -37.5703c-20.4805 0 -37.7607 17.0898 -37.7607 37.5703c0 20.4902 17.2803 37.7002 37.7607 37.7002z" />
    <glyph glyph-name="comma" unicode="," horiz-adv-x="145" 
d="M34.7803 -57l20.999 61.5996c-9.34961 6.67969 -15.6494 17.75 -15.6494 29.96c0 20.4902 17.21 37.7002 37.7002 37.7002c20.4805 0 37.6904 -17.21 37.6904 -37.7002c0 -6.17969 -1.57031 -12.0596 -4.32031 -17.2598l-34.7998 -74.2998h-41.6201z" />
    <glyph glyph-name="ellipsis" unicode="&#x2026;" horiz-adv-x="541" 
d="M74.8604 72.2695c20.4805 0 37.7002 -17.2197 37.7002 -37.7002c0 -20.4902 -17.2197 -37.5801 -37.7002 -37.5801c-20.4902 0 -37.7002 17.0898 -37.7002 37.5801c0 20.4805 17.21 37.7002 37.7002 37.7002zM273.91 72.2695
c20.4805 0 37.7002 -17.2197 37.7002 -37.7002c0 -20.4902 -17.2197 -37.5801 -37.7002 -37.5801s-37.7002 17.0898 -37.7002 37.5801c0 20.4805 17.2197 37.7002 37.7002 37.7002zM473.67 72.2695c20.4902 0 37.7002 -17.2197 37.7002 -37.7002
c0 -20.4902 -17.21 -37.5801 -37.7002 -37.5801c-20.4805 0 -37.6904 17.0898 -37.6904 37.5801c0 20.4805 17.21 37.7002 37.6904 37.7002z" />
    <glyph glyph-name="exclam" unicode="!" horiz-adv-x="158" 
d="M108.13 148.93h-50.6592l-12.4902 551.35h75.6396zM82.8008 72.5498c20.4902 0 37.7002 -17.2197 37.7002 -37.7002c0 -20.4902 -17.21 -37.8604 -37.7002 -37.8604c-20.4805 0 -37.7002 17.3701 -37.7002 37.8604c0 20.4805 17.2197 37.7002 37.7002 37.7002z" />
    <glyph glyph-name="exclamdown" unicode="&#xa1;" horiz-adv-x="158" 
d="M82.7998 500.75c20.4805 0 37.7002 -17.21 37.7002 -37.7002c0 -20.4805 -17.2197 -37.7002 -37.7002 -37.7002c-20.4902 0 -37.7002 17.2197 -37.7002 37.7002c0 20.4902 17.21 37.7002 37.7002 37.7002zM119.18 -202h-72.0508l12.4902 550.98h47.0801z" />
    <glyph glyph-name="numbersign" unicode="#" horiz-adv-x="680" 
d="M517.06 467.25h131.27v-58.8604h-144.73l-34.8701 -146.87h165.42v-58.8604h-178.9l-47.5195 -202.66h-59.5l47.5195 202.66h-172.57l-47.5195 -202.66h-59.5l47.5195 202.66h-125.1v58.8604h138.57l34.8701 146.87h-159.26v58.8604h173.45l53.96 232.75h59.5
l-53.9697 -232.75h171.86l54.6904 232.75h59.5zM271.52 408.39l-34.8701 -146.87h172.58l34.8701 146.87h-172.58z" />
    <glyph glyph-name="period" unicode="." horiz-adv-x="143" 
d="M74.8604 72.2598c20.4805 0 37.7002 -17.2197 37.7002 -37.7002c0 -20.4902 -17.2197 -37.5703 -37.7002 -37.5703c-20.4902 0 -37.7002 17.0801 -37.7002 37.5703c0 20.4805 17.21 37.7002 37.7002 37.7002z" />
    <glyph glyph-name="periodcentered" unicode="&#xb7;" horiz-adv-x="100" 
d="M54.4902 357.37c20.4902 0 37.7002 -17.2197 37.7002 -37.7002c0 -20.4902 -17.21 -37.6904 -37.7002 -37.6904c-20.4805 0 -37.7607 17.2002 -37.7607 37.6904c0 20.4805 17.2803 37.7002 37.7607 37.7002z" />
    </font>
</defs>
</svg>
